<svg xmlns="http://www.w3.org/2000/svg" xmlns:xlink="http://www.w3.org/1999/xlink" width="0" zoomAndPan="magnify" viewBox="0 0 375 374.999991" height="500" preserveAspectRatio="xMidYMid meet" version="1.0"><defs><g/></defs><g fill="#faff00" fill-opacity="1"><g transform="translate(36.870027, 128.810228)"><g><path d="M 14.796875 -0.078125 C 12.242188 -0.078125 9.921875 -0.59375 7.828125 -1.625 C 5.742188 -2.65625 4.082031 -4.21875 2.84375 -6.3125 C 1.613281 -8.40625 1 -11.019531 1 -14.15625 C 1 -16 1.320312 -17.757812 1.96875 -19.4375 C 2.613281 -21.113281 3.519531 -22.609375 4.6875 -23.921875 C 5.851562 -25.234375 7.222656 -26.265625 8.796875 -27.015625 C 10.378906 -27.765625 12.125 -28.140625 14.03125 -28.140625 C 16.414062 -28.140625 18.503906 -27.703125 20.296875 -26.828125 C 22.097656 -25.960938 23.5 -24.78125 24.5 -23.28125 C 25.507812 -21.78125 26.015625 -20.101562 26.015625 -18.25 C 26.015625 -17.53125 25.875 -16.84375 25.59375 -16.1875 C 25.3125 -15.53125 24.878906 -14.984375 24.296875 -14.546875 C 23.722656 -14.117188 22.984375 -13.90625 22.078125 -13.90625 C 21.210938 -13.90625 20.53125 -14.039062 20.03125 -14.3125 C 19.539062 -14.582031 19.128906 -14.910156 18.796875 -15.296875 C 18.460938 -15.679688 18.117188 -16.078125 17.765625 -16.484375 C 17.421875 -16.890625 16.992188 -17.222656 16.484375 -17.484375 C 15.972656 -17.753906 15.273438 -17.890625 14.390625 -17.890625 C 13.554688 -17.890625 12.789062 -17.675781 12.09375 -17.25 C 11.40625 -16.820312 10.851562 -16.238281 10.4375 -15.5 C 10.019531 -14.757812 9.8125 -13.921875 9.8125 -12.984375 C 9.8125 -11.585938 10.175781 -10.367188 10.90625 -9.328125 C 11.644531 -8.285156 12.703125 -7.765625 14.078125 -7.765625 C 15.140625 -7.765625 15.984375 -7.921875 16.609375 -8.234375 C 17.242188 -8.554688 17.78125 -8.925781 18.21875 -9.34375 C 18.664062 -9.757812 19.148438 -10.128906 19.671875 -10.453125 C 20.203125 -10.773438 20.878906 -10.9375 21.703125 -10.9375 C 22.890625 -10.9375 23.78125 -10.546875 24.375 -9.765625 C 24.976562 -8.992188 25.226562 -8.046875 25.125 -6.921875 C 25.019531 -5.765625 24.515625 -4.660156 23.609375 -3.609375 C 22.710938 -2.566406 21.507812 -1.71875 20 -1.0625 C 18.488281 -0.40625 16.753906 -0.078125 14.796875 -0.078125 Z M 14.796875 -0.078125 "/></g></g></g><g fill="#faff00" fill-opacity="1"><g transform="translate(63.881217, 128.810228)"><g><path d="M 14.71875 0.046875 C 12.863281 0.0664062 11.117188 -0.269531 9.484375 -0.96875 C 7.847656 -1.664062 6.398438 -2.65625 5.140625 -3.9375 C 3.878906 -5.226562 2.882812 -6.726562 2.15625 -8.4375 C 1.4375 -10.15625 1.050781 -12.019531 1 -14.03125 C 0.976562 -15.957031 1.316406 -17.765625 2.015625 -19.453125 C 2.710938 -21.140625 3.6875 -22.625 4.9375 -23.90625 C 6.195312 -25.195312 7.65625 -26.210938 9.3125 -26.953125 C 10.976562 -27.691406 12.78125 -28.0625 14.71875 -28.0625 C 16.5625 -28.09375 18.300781 -27.757812 19.9375 -27.0625 C 21.570312 -26.363281 23.019531 -25.375 24.28125 -24.09375 C 25.539062 -22.820312 26.539062 -21.328125 27.28125 -19.609375 C 28.019531 -17.898438 28.398438 -16.039062 28.421875 -14.03125 C 28.472656 -12.101562 28.144531 -10.296875 27.4375 -8.609375 C 26.726562 -6.921875 25.742188 -5.4375 24.484375 -4.15625 C 23.222656 -2.882812 21.753906 -1.878906 20.078125 -1.140625 C 18.398438 -0.410156 16.613281 -0.015625 14.71875 0.046875 Z M 14.828125 -7.796875 C 16.015625 -7.796875 17.054688 -8.222656 17.953125 -9.078125 C 18.847656 -9.941406 19.28125 -11.109375 19.25 -12.578125 C 19.25 -14.078125 18.804688 -15.253906 17.921875 -16.109375 C 17.046875 -16.972656 16.015625 -17.40625 14.828125 -17.40625 C 13.648438 -17.40625 12.617188 -16.972656 11.734375 -16.109375 C 10.847656 -15.253906 10.40625 -14.078125 10.40625 -12.578125 C 10.40625 -11.109375 10.847656 -9.941406 11.734375 -9.078125 C 12.617188 -8.222656 13.648438 -7.796875 14.828125 -7.796875 Z M 14.828125 -7.796875 "/></g></g></g><g fill="#faff00" fill-opacity="1"><g transform="translate(93.304124, 128.810228)"><g><path d="M 6.46875 0 C 5.632812 0 4.90625 -0.332031 4.28125 -1 C 3.65625 -1.675781 3.132812 -2.5625 2.71875 -3.65625 C 2.300781 -4.757812 1.960938 -5.96875 1.703125 -7.28125 C 1.453125 -8.59375 1.269531 -9.910156 1.15625 -11.234375 C 1.050781 -12.566406 1 -13.765625 1 -14.828125 C 1 -16.203125 1.101562 -17.648438 1.3125 -19.171875 C 1.53125 -20.703125 1.90625 -22.144531 2.4375 -23.5 C 2.976562 -24.851562 3.71875 -25.957031 4.65625 -26.8125 C 5.601562 -27.675781 6.8125 -28.109375 8.28125 -28.109375 C 9.300781 -28.109375 10.191406 -27.773438 10.953125 -27.109375 C 11.710938 -26.453125 12.398438 -25.539062 13.015625 -24.375 C 13.640625 -23.21875 14.234375 -21.882812 14.796875 -20.375 C 15.359375 -18.875 15.960938 -17.28125 16.609375 -15.59375 C 16.492188 -17.90625 16.5625 -20.003906 16.8125 -21.890625 C 17.070312 -23.773438 17.601562 -25.28125 18.40625 -26.40625 C 19.21875 -27.539062 20.359375 -28.109375 21.828125 -28.109375 C 23.085938 -28.109375 24.097656 -27.675781 24.859375 -26.8125 C 25.628906 -25.957031 26.210938 -24.851562 26.609375 -23.5 C 27.015625 -22.144531 27.289062 -20.703125 27.4375 -19.171875 C 27.582031 -17.648438 27.65625 -16.203125 27.65625 -14.828125 C 27.65625 -13.734375 27.570312 -12.53125 27.40625 -11.21875 C 27.25 -9.90625 26.984375 -8.59375 26.609375 -7.28125 C 26.234375 -5.96875 25.722656 -4.757812 25.078125 -3.65625 C 24.441406 -2.5625 23.660156 -1.675781 22.734375 -1 C 21.804688 -0.332031 20.703125 0 19.421875 0 C 18.265625 0 17.273438 -0.367188 16.453125 -1.109375 C 15.640625 -1.847656 14.914062 -2.828125 14.28125 -4.046875 C 13.65625 -5.265625 13.070312 -6.609375 12.53125 -8.078125 C 12 -9.554688 11.441406 -11.03125 10.859375 -12.5 C 10.878906 -10.65625 10.875 -8.960938 10.84375 -7.421875 C 10.820312 -5.878906 10.679688 -4.554688 10.421875 -3.453125 C 10.171875 -2.359375 9.738281 -1.507812 9.125 -0.90625 C 8.507812 -0.300781 7.625 0 6.46875 0 Z M 6.46875 0 "/></g></g></g><g fill="#faff00" fill-opacity="1"><g transform="translate(121.963321, 128.810228)"><g><path d="M 6.46875 0 C 5.632812 0 4.90625 -0.332031 4.28125 -1 C 3.65625 -1.675781 3.132812 -2.5625 2.71875 -3.65625 C 2.300781 -4.757812 1.960938 -5.96875 1.703125 -7.28125 C 1.453125 -8.59375 1.269531 -9.910156 1.15625 -11.234375 C 1.050781 -12.566406 1 -13.765625 1 -14.828125 C 1 -16.203125 1.101562 -17.648438 1.3125 -19.171875 C 1.53125 -20.703125 1.90625 -22.144531 2.4375 -23.5 C 2.976562 -24.851562 3.71875 -25.957031 4.65625 -26.8125 C 5.601562 -27.675781 6.8125 -28.109375 8.28125 -28.109375 C 9.300781 -28.109375 10.191406 -27.773438 10.953125 -27.109375 C 11.710938 -26.453125 12.398438 -25.539062 13.015625 -24.375 C 13.640625 -23.21875 14.234375 -21.882812 14.796875 -20.375 C 15.359375 -18.875 15.960938 -17.28125 16.609375 -15.59375 C 16.492188 -17.90625 16.5625 -20.003906 16.8125 -21.890625 C 17.070312 -23.773438 17.601562 -25.28125 18.40625 -26.40625 C 19.21875 -27.539062 20.359375 -28.109375 21.828125 -28.109375 C 23.085938 -28.109375 24.097656 -27.675781 24.859375 -26.8125 C 25.628906 -25.957031 26.210938 -24.851562 26.609375 -23.5 C 27.015625 -22.144531 27.289062 -20.703125 27.4375 -19.171875 C 27.582031 -17.648438 27.65625 -16.203125 27.65625 -14.828125 C 27.65625 -13.734375 27.570312 -12.53125 27.40625 -11.21875 C 27.25 -9.90625 26.984375 -8.59375 26.609375 -7.28125 C 26.234375 -5.96875 25.722656 -4.757812 25.078125 -3.65625 C 24.441406 -2.5625 23.660156 -1.675781 22.734375 -1 C 21.804688 -0.332031 20.703125 0 19.421875 0 C 18.265625 0 17.273438 -0.367188 16.453125 -1.109375 C 15.640625 -1.847656 14.914062 -2.828125 14.28125 -4.046875 C 13.65625 -5.265625 13.070312 -6.609375 12.53125 -8.078125 C 12 -9.554688 11.441406 -11.03125 10.859375 -12.5 C 10.878906 -10.65625 10.875 -8.960938 10.84375 -7.421875 C 10.820312 -5.878906 10.679688 -4.554688 10.421875 -3.453125 C 10.171875 -2.359375 9.738281 -1.507812 9.125 -0.90625 C 8.507812 -0.300781 7.625 0 6.46875 0 Z M 6.46875 0 "/></g></g></g><g fill="#faff00" fill-opacity="1"><g transform="translate(150.622518, 128.810228)"><g><path d="M 14.75 0 C 13.65625 0 12.484375 -0.078125 11.234375 -0.234375 C 9.992188 -0.398438 8.769531 -0.738281 7.5625 -1.25 C 6.351562 -1.757812 5.253906 -2.507812 4.265625 -3.5 C 3.273438 -4.488281 2.484375 -5.804688 1.890625 -7.453125 C 1.296875 -9.109375 1 -11.15625 1 -13.59375 C 1 -16.269531 1.453125 -18.707031 2.359375 -20.90625 C 3.273438 -23.101562 4.65625 -24.859375 6.5 -26.171875 C 8.351562 -27.484375 10.675781 -28.140625 13.46875 -28.140625 C 15.476562 -28.140625 17.117188 -27.960938 18.390625 -27.609375 C 19.660156 -27.265625 20.65625 -26.8125 21.375 -26.25 C 22.101562 -25.6875 22.609375 -25.066406 22.890625 -24.390625 C 23.171875 -23.722656 23.3125 -23.054688 23.3125 -22.390625 C 23.3125 -21.691406 23.128906 -21.019531 22.765625 -20.375 C 22.410156 -19.738281 21.84375 -19.234375 21.0625 -18.859375 C 20.3125 -18.503906 19.535156 -18.347656 18.734375 -18.390625 C 17.929688 -18.429688 17.207031 -18.453125 16.5625 -18.453125 C 15.164062 -18.453125 14.070312 -18.203125 13.28125 -17.703125 C 12.488281 -17.210938 11.9375 -16.457031 11.625 -15.4375 C 12.050781 -15.46875 12.523438 -15.488281 13.046875 -15.5 C 13.566406 -15.507812 14.109375 -15.515625 14.671875 -15.515625 C 15.773438 -15.515625 16.828125 -15.492188 17.828125 -15.453125 C 18.835938 -15.410156 19.539062 -15.351562 19.9375 -15.28125 C 20.875 -15.09375 21.582031 -14.722656 22.0625 -14.171875 C 22.550781 -13.617188 22.796875 -12.992188 22.796875 -12.296875 C 22.796875 -11.628906 22.566406 -11.023438 22.109375 -10.484375 C 21.648438 -9.953125 20.914062 -9.582031 19.90625 -9.375 C 19.53125 -9.289062 18.8125 -9.226562 17.75 -9.1875 C 16.6875 -9.144531 15.582031 -9.125 14.4375 -9.125 C 13.976562 -9.125 13.535156 -9.128906 13.109375 -9.140625 C 12.679688 -9.160156 12.289062 -9.171875 11.9375 -9.171875 C 12.3125 -8.335938 12.878906 -7.6875 13.640625 -7.21875 C 14.410156 -6.75 15.398438 -6.515625 16.609375 -6.515625 C 17.054688 -6.515625 17.707031 -6.5625 18.5625 -6.65625 C 19.425781 -6.75 20.257812 -6.675781 21.0625 -6.4375 C 22.351562 -6.03125 23 -5.1875 23 -3.90625 C 23 -3.207031 22.765625 -2.554688 22.296875 -1.953125 C 21.828125 -1.347656 20.992188 -0.867188 19.796875 -0.515625 C 18.609375 -0.171875 16.925781 0 14.75 0 Z M 14.75 0 "/></g></g></g><g fill="#faff00" fill-opacity="1"><g transform="translate(174.940628, 128.810228)"><g><path d="M 14.796875 -0.078125 C 12.242188 -0.078125 9.921875 -0.59375 7.828125 -1.625 C 5.742188 -2.65625 4.082031 -4.21875 2.84375 -6.3125 C 1.613281 -8.40625 1 -11.019531 1 -14.15625 C 1 -16 1.320312 -17.757812 1.96875 -19.4375 C 2.613281 -21.113281 3.519531 -22.609375 4.6875 -23.921875 C 5.851562 -25.234375 7.222656 -26.265625 8.796875 -27.015625 C 10.378906 -27.765625 12.125 -28.140625 14.03125 -28.140625 C 16.414062 -28.140625 18.503906 -27.703125 20.296875 -26.828125 C 22.097656 -25.960938 23.5 -24.78125 24.5 -23.28125 C 25.507812 -21.78125 26.015625 -20.101562 26.015625 -18.25 C 26.015625 -17.53125 25.875 -16.84375 25.59375 -16.1875 C 25.3125 -15.53125 24.878906 -14.984375 24.296875 -14.546875 C 23.722656 -14.117188 22.984375 -13.90625 22.078125 -13.90625 C 21.210938 -13.90625 20.53125 -14.039062 20.03125 -14.3125 C 19.539062 -14.582031 19.128906 -14.910156 18.796875 -15.296875 C 18.460938 -15.679688 18.117188 -16.078125 17.765625 -16.484375 C 17.421875 -16.890625 16.992188 -17.222656 16.484375 -17.484375 C 15.972656 -17.753906 15.273438 -17.890625 14.390625 -17.890625 C 13.554688 -17.890625 12.789062 -17.675781 12.09375 -17.25 C 11.40625 -16.820312 10.851562 -16.238281 10.4375 -15.5 C 10.019531 -14.757812 9.8125 -13.921875 9.8125 -12.984375 C 9.8125 -11.585938 10.175781 -10.367188 10.90625 -9.328125 C 11.644531 -8.285156 12.703125 -7.765625 14.078125 -7.765625 C 15.140625 -7.765625 15.984375 -7.921875 16.609375 -8.234375 C 17.242188 -8.554688 17.78125 -8.925781 18.21875 -9.34375 C 18.664062 -9.757812 19.148438 -10.128906 19.671875 -10.453125 C 20.203125 -10.773438 20.878906 -10.9375 21.703125 -10.9375 C 22.890625 -10.9375 23.78125 -10.546875 24.375 -9.765625 C 24.976562 -8.992188 25.226562 -8.046875 25.125 -6.921875 C 25.019531 -5.765625 24.515625 -4.660156 23.609375 -3.609375 C 22.710938 -2.566406 21.507812 -1.71875 20 -1.0625 C 18.488281 -0.40625 16.753906 -0.078125 14.796875 -0.078125 Z M 14.796875 -0.078125 "/></g></g></g><g fill="#faff00" fill-opacity="1"><g transform="translate(201.951819, 128.810228)"><g><path d="M 15.078125 -0.078125 C 13.734375 -0.078125 12.710938 -0.519531 12.015625 -1.40625 C 11.316406 -2.289062 10.84375 -3.609375 10.59375 -5.359375 C 10.34375 -7.117188 10.21875 -9.300781 10.21875 -11.90625 C 10.21875 -12.84375 10.226562 -13.722656 10.25 -14.546875 C 10.28125 -15.378906 10.304688 -16.160156 10.328125 -16.890625 C 7.117188 -17.046875 4.757812 -17.5 3.25 -18.25 C 1.75 -19 1 -20.300781 1 -22.15625 C 1 -24.457031 2.171875 -26.007812 4.515625 -26.8125 C 6.867188 -27.613281 10.398438 -28.015625 15.109375 -28.015625 C 19.859375 -28.015625 23.429688 -27.613281 25.828125 -26.8125 C 28.222656 -26.007812 29.421875 -24.457031 29.421875 -22.15625 C 29.421875 -20.332031 28.664062 -19.035156 27.15625 -18.265625 C 25.644531 -17.503906 23.289062 -17.046875 20.09375 -16.890625 C 20.15625 -16.160156 20.195312 -15.378906 20.21875 -14.546875 C 20.25 -13.722656 20.265625 -12.84375 20.265625 -11.90625 C 20.265625 -7.800781 19.898438 -4.800781 19.171875 -2.90625 C 18.453125 -1.019531 17.085938 -0.078125 15.078125 -0.078125 Z M 15.078125 -0.078125 "/></g></g></g><g fill="#faff00" fill-opacity="1"><g transform="translate(232.379597, 128.810228)"><g><path d="M 7.28125 0.078125 C 5.425781 0.078125 3.96875 -0.816406 2.90625 -2.609375 C 1.851562 -4.410156 1.234375 -6.769531 1.046875 -9.6875 C 0.828125 -13.300781 1.21875 -16.492188 2.21875 -19.265625 C 3.226562 -22.046875 4.75 -24.210938 6.78125 -25.765625 C 8.820312 -27.328125 11.253906 -28.109375 14.078125 -28.109375 C 16.910156 -28.109375 19.335938 -27.328125 21.359375 -25.765625 C 23.390625 -24.210938 24.90625 -22.054688 25.90625 -19.296875 C 26.914062 -16.535156 27.300781 -13.332031 27.0625 -9.6875 C 26.875 -6.6875 26.25 -4.3125 25.1875 -2.5625 C 24.125 -0.820312 22.671875 0.046875 20.828125 0.046875 C 19.773438 0.046875 18.96875 -0.144531 18.40625 -0.53125 C 17.84375 -0.925781 17.445312 -1.425781 17.21875 -2.03125 C 17 -2.632812 16.890625 -3.25 16.890625 -3.875 C 16.890625 -4.507812 16.925781 -5.054688 17 -5.515625 C 16.144531 -5.484375 15.140625 -5.457031 13.984375 -5.4375 C 12.835938 -5.425781 11.875 -5.453125 11.09375 -5.515625 C 11.175781 -5.054688 11.21875 -4.507812 11.21875 -3.875 C 11.21875 -3.25 11.101562 -2.632812 10.875 -2.03125 C 10.644531 -1.425781 10.25 -0.921875 9.6875 -0.515625 C 9.125 -0.117188 8.320312 0.078125 7.28125 0.078125 Z M 10.8125 -12.65625 C 12.925781 -12.738281 15.046875 -12.738281 17.171875 -12.65625 C 17.304688 -13.601562 17.289062 -14.503906 17.125 -15.359375 C 16.96875 -16.210938 16.632812 -16.90625 16.125 -17.4375 C 15.613281 -17.976562 14.890625 -18.25 13.953125 -18.25 C 13.015625 -18.25 12.296875 -17.976562 11.796875 -17.4375 C 11.304688 -16.90625 10.984375 -16.21875 10.828125 -15.375 C 10.679688 -14.53125 10.675781 -13.625 10.8125 -12.65625 Z M 10.8125 -12.65625 "/></g></g></g><g fill="#faff00" fill-opacity="1"><g transform="translate(260.476054, 128.810228)"><g><path d="M 6.671875 0.046875 C 5.460938 0.046875 4.484375 -0.347656 3.734375 -1.140625 C 2.984375 -1.929688 2.40625 -2.988281 2 -4.3125 C 1.601562 -5.644531 1.335938 -7.101562 1.203125 -8.6875 C 1.066406 -10.269531 1 -11.835938 1 -13.390625 C 1 -15.210938 1.25 -16.992188 1.75 -18.734375 C 2.25 -20.472656 3.015625 -22.046875 4.046875 -23.453125 C 5.078125 -24.859375 6.378906 -25.976562 7.953125 -26.8125 C 9.535156 -27.644531 11.414062 -28.0625 13.59375 -28.0625 C 15.789062 -28.0625 17.78125 -27.601562 19.5625 -26.6875 C 21.34375 -25.78125 22.769531 -24.484375 23.84375 -22.796875 C 24.914062 -21.109375 25.453125 -19.097656 25.453125 -16.765625 C 25.453125 -14.671875 25.128906 -12.875 24.484375 -11.375 C 23.835938 -9.875 22.972656 -8.644531 21.890625 -7.6875 C 20.804688 -6.738281 19.597656 -6.035156 18.265625 -5.578125 C 16.941406 -5.128906 15.597656 -4.925781 14.234375 -4.96875 C 12.867188 -5.007812 11.59375 -5.269531 10.40625 -5.75 C 10.539062 -5.101562 10.613281 -4.445312 10.625 -3.78125 C 10.644531 -3.113281 10.539062 -2.488281 10.3125 -1.90625 C 10.082031 -1.332031 9.675781 -0.863281 9.09375 -0.5 C 8.519531 -0.132812 7.710938 0.046875 6.671875 0.046875 Z M 13.984375 -11.21875 C 14.953125 -11.21875 15.789062 -11.570312 16.5 -12.28125 C 17.207031 -12.988281 17.5625 -13.8125 17.5625 -14.75 C 17.5625 -15.71875 17.207031 -16.554688 16.5 -17.265625 C 15.789062 -17.972656 14.953125 -18.328125 13.984375 -18.328125 C 13.023438 -18.328125 12.1875 -17.972656 11.46875 -17.265625 C 10.757812 -16.554688 10.40625 -15.71875 10.40625 -14.75 C 10.40625 -13.8125 10.757812 -12.988281 11.46875 -12.28125 C 12.1875 -11.570312 13.023438 -11.21875 13.984375 -11.21875 Z M 13.984375 -11.21875 "/></g></g></g><g fill="#faff00" fill-opacity="1"><g transform="translate(286.924516, 128.810228)"><g><path d="M 14.75 0 C 13.65625 0 12.484375 -0.078125 11.234375 -0.234375 C 9.992188 -0.398438 8.769531 -0.738281 7.5625 -1.25 C 6.351562 -1.757812 5.253906 -2.507812 4.265625 -3.5 C 3.273438 -4.488281 2.484375 -5.804688 1.890625 -7.453125 C 1.296875 -9.109375 1 -11.15625 1 -13.59375 C 1 -16.269531 1.453125 -18.707031 2.359375 -20.90625 C 3.273438 -23.101562 4.65625 -24.859375 6.5 -26.171875 C 8.351562 -27.484375 10.675781 -28.140625 13.46875 -28.140625 C 15.476562 -28.140625 17.117188 -27.960938 18.390625 -27.609375 C 19.660156 -27.265625 20.65625 -26.8125 21.375 -26.25 C 22.101562 -25.6875 22.609375 -25.066406 22.890625 -24.390625 C 23.171875 -23.722656 23.3125 -23.054688 23.3125 -22.390625 C 23.3125 -21.691406 23.128906 -21.019531 22.765625 -20.375 C 22.410156 -19.738281 21.84375 -19.234375 21.0625 -18.859375 C 20.3125 -18.503906 19.535156 -18.347656 18.734375 -18.390625 C 17.929688 -18.429688 17.207031 -18.453125 16.5625 -18.453125 C 15.164062 -18.453125 14.070312 -18.203125 13.28125 -17.703125 C 12.488281 -17.210938 11.9375 -16.457031 11.625 -15.4375 C 12.050781 -15.46875 12.523438 -15.488281 13.046875 -15.5 C 13.566406 -15.507812 14.109375 -15.515625 14.671875 -15.515625 C 15.773438 -15.515625 16.828125 -15.492188 17.828125 -15.453125 C 18.835938 -15.410156 19.539062 -15.351562 19.9375 -15.28125 C 20.875 -15.09375 21.582031 -14.722656 22.0625 -14.171875 C 22.550781 -13.617188 22.796875 -12.992188 22.796875 -12.296875 C 22.796875 -11.628906 22.566406 -11.023438 22.109375 -10.484375 C 21.648438 -9.953125 20.914062 -9.582031 19.90625 -9.375 C 19.53125 -9.289062 18.8125 -9.226562 17.75 -9.1875 C 16.6875 -9.144531 15.582031 -9.125 14.4375 -9.125 C 13.976562 -9.125 13.535156 -9.128906 13.109375 -9.140625 C 12.679688 -9.160156 12.289062 -9.171875 11.9375 -9.171875 C 12.3125 -8.335938 12.878906 -7.6875 13.640625 -7.21875 C 14.410156 -6.75 15.398438 -6.515625 16.609375 -6.515625 C 17.054688 -6.515625 17.707031 -6.5625 18.5625 -6.65625 C 19.425781 -6.75 20.257812 -6.675781 21.0625 -6.4375 C 22.351562 -6.03125 23 -5.1875 23 -3.90625 C 23 -3.207031 22.765625 -2.554688 22.296875 -1.953125 C 21.828125 -1.347656 20.992188 -0.867188 19.796875 -0.515625 C 18.609375 -0.171875 16.925781 0 14.75 0 Z M 14.75 0 "/></g></g></g><g fill="#faff00" fill-opacity="1"><g transform="translate(311.242614, 128.810228)"><g><path d="M 15.078125 -0.078125 C 13.734375 -0.078125 12.710938 -0.519531 12.015625 -1.40625 C 11.316406 -2.289062 10.84375 -3.609375 10.59375 -5.359375 C 10.34375 -7.117188 10.21875 -9.300781 10.21875 -11.90625 C 10.21875 -12.84375 10.226562 -13.722656 10.25 -14.546875 C 10.28125 -15.378906 10.304688 -16.160156 10.328125 -16.890625 C 7.117188 -17.046875 4.757812 -17.5 3.25 -18.25 C 1.75 -19 1 -20.300781 1 -22.15625 C 1 -24.457031 2.171875 -26.007812 4.515625 -26.8125 C 6.867188 -27.613281 10.398438 -28.015625 15.109375 -28.015625 C 19.859375 -28.015625 23.429688 -27.613281 25.828125 -26.8125 C 28.222656 -26.007812 29.421875 -24.457031 29.421875 -22.15625 C 29.421875 -20.332031 28.664062 -19.035156 27.15625 -18.265625 C 25.644531 -17.503906 23.289062 -17.046875 20.09375 -16.890625 C 20.15625 -16.160156 20.195312 -15.378906 20.21875 -14.546875 C 20.25 -13.722656 20.265625 -12.84375 20.265625 -11.90625 C 20.265625 -7.800781 19.898438 -4.800781 19.171875 -2.90625 C 18.453125 -1.019531 17.085938 -0.078125 15.078125 -0.078125 Z M 15.078125 -0.078125 "/></g></g></g><g fill="#ad82cf" fill-opacity="1"><g transform="translate(35.09315, 127.03335)"><g><path d="M 14.796875 -0.078125 C 12.242188 -0.078125 9.921875 -0.59375 7.828125 -1.625 C 5.742188 -2.65625 4.082031 -4.21875 2.84375 -6.3125 C 1.613281 -8.40625 1 -11.019531 1 -14.15625 C 1 -16 1.320312 -17.757812 1.96875 -19.4375 C 2.613281 -21.113281 3.519531 -22.609375 4.6875 -23.921875 C 5.851562 -25.234375 7.222656 -26.265625 8.796875 -27.015625 C 10.378906 -27.765625 12.125 -28.140625 14.03125 -28.140625 C 16.414062 -28.140625 18.503906 -27.703125 20.296875 -26.828125 C 22.097656 -25.960938 23.5 -24.78125 24.5 -23.28125 C 25.507812 -21.78125 26.015625 -20.101562 26.015625 -18.25 C 26.015625 -17.53125 25.875 -16.84375 25.59375 -16.1875 C 25.3125 -15.53125 24.878906 -14.984375 24.296875 -14.546875 C 23.722656 -14.117188 22.984375 -13.90625 22.078125 -13.90625 C 21.210938 -13.90625 20.53125 -14.039062 20.03125 -14.3125 C 19.539062 -14.582031 19.128906 -14.910156 18.796875 -15.296875 C 18.460938 -15.679688 18.117188 -16.078125 17.765625 -16.484375 C 17.421875 -16.890625 16.992188 -17.222656 16.484375 -17.484375 C 15.972656 -17.753906 15.273438 -17.890625 14.390625 -17.890625 C 13.554688 -17.890625 12.789062 -17.675781 12.09375 -17.25 C 11.40625 -16.820312 10.851562 -16.238281 10.4375 -15.5 C 10.019531 -14.757812 9.8125 -13.921875 9.8125 -12.984375 C 9.8125 -11.585938 10.175781 -10.367188 10.90625 -9.328125 C 11.644531 -8.285156 12.703125 -7.765625 14.078125 -7.765625 C 15.140625 -7.765625 15.984375 -7.921875 16.609375 -8.234375 C 17.242188 -8.554688 17.78125 -8.925781 18.21875 -9.34375 C 18.664062 -9.757812 19.148438 -10.128906 19.671875 -10.453125 C 20.203125 -10.773438 20.878906 -10.9375 21.703125 -10.9375 C 22.890625 -10.9375 23.78125 -10.546875 24.375 -9.765625 C 24.976562 -8.992188 25.226562 -8.046875 25.125 -6.921875 C 25.019531 -5.765625 24.515625 -4.660156 23.609375 -3.609375 C 22.710938 -2.566406 21.507812 -1.71875 20 -1.0625 C 18.488281 -0.40625 16.753906 -0.078125 14.796875 -0.078125 Z M 14.796875 -0.078125 "/></g></g></g><g fill="#ad82cf" fill-opacity="1"><g transform="translate(62.10434, 127.03335)"><g><path d="M 14.71875 0.046875 C 12.863281 0.0664062 11.117188 -0.269531 9.484375 -0.96875 C 7.847656 -1.664062 6.398438 -2.65625 5.140625 -3.9375 C 3.878906 -5.226562 2.882812 -6.726562 2.15625 -8.4375 C 1.4375 -10.15625 1.050781 -12.019531 1 -14.03125 C 0.976562 -15.957031 1.316406 -17.765625 2.015625 -19.453125 C 2.710938 -21.140625 3.6875 -22.625 4.9375 -23.90625 C 6.195312 -25.195312 7.65625 -26.210938 9.3125 -26.953125 C 10.976562 -27.691406 12.78125 -28.0625 14.71875 -28.0625 C 16.5625 -28.09375 18.300781 -27.757812 19.9375 -27.0625 C 21.570312 -26.363281 23.019531 -25.375 24.28125 -24.09375 C 25.539062 -22.820312 26.539062 -21.328125 27.28125 -19.609375 C 28.019531 -17.898438 28.398438 -16.039062 28.421875 -14.03125 C 28.472656 -12.101562 28.144531 -10.296875 27.4375 -8.609375 C 26.726562 -6.921875 25.742188 -5.4375 24.484375 -4.15625 C 23.222656 -2.882812 21.753906 -1.878906 20.078125 -1.140625 C 18.398438 -0.410156 16.613281 -0.015625 14.71875 0.046875 Z M 14.828125 -7.796875 C 16.015625 -7.796875 17.054688 -8.222656 17.953125 -9.078125 C 18.847656 -9.941406 19.28125 -11.109375 19.25 -12.578125 C 19.25 -14.078125 18.804688 -15.253906 17.921875 -16.109375 C 17.046875 -16.972656 16.015625 -17.40625 14.828125 -17.40625 C 13.648438 -17.40625 12.617188 -16.972656 11.734375 -16.109375 C 10.847656 -15.253906 10.40625 -14.078125 10.40625 -12.578125 C 10.40625 -11.109375 10.847656 -9.941406 11.734375 -9.078125 C 12.617188 -8.222656 13.648438 -7.796875 14.828125 -7.796875 Z M 14.828125 -7.796875 "/></g></g></g><g fill="#ad82cf" fill-opacity="1"><g transform="translate(91.527247, 127.03335)"><g><path d="M 6.46875 0 C 5.632812 0 4.90625 -0.332031 4.28125 -1 C 3.65625 -1.675781 3.132812 -2.5625 2.71875 -3.65625 C 2.300781 -4.757812 1.960938 -5.96875 1.703125 -7.28125 C 1.453125 -8.59375 1.269531 -9.910156 1.15625 -11.234375 C 1.050781 -12.566406 1 -13.765625 1 -14.828125 C 1 -16.203125 1.101562 -17.648438 1.3125 -19.171875 C 1.53125 -20.703125 1.90625 -22.144531 2.4375 -23.5 C 2.976562 -24.851562 3.71875 -25.957031 4.65625 -26.8125 C 5.601562 -27.675781 6.8125 -28.109375 8.28125 -28.109375 C 9.300781 -28.109375 10.191406 -27.773438 10.953125 -27.109375 C 11.710938 -26.453125 12.398438 -25.539062 13.015625 -24.375 C 13.640625 -23.21875 14.234375 -21.882812 14.796875 -20.375 C 15.359375 -18.875 15.960938 -17.28125 16.609375 -15.59375 C 16.492188 -17.90625 16.5625 -20.003906 16.8125 -21.890625 C 17.070312 -23.773438 17.601562 -25.28125 18.40625 -26.40625 C 19.21875 -27.539062 20.359375 -28.109375 21.828125 -28.109375 C 23.085938 -28.109375 24.097656 -27.675781 24.859375 -26.8125 C 25.628906 -25.957031 26.210938 -24.851562 26.609375 -23.5 C 27.015625 -22.144531 27.289062 -20.703125 27.4375 -19.171875 C 27.582031 -17.648438 27.65625 -16.203125 27.65625 -14.828125 C 27.65625 -13.734375 27.570312 -12.53125 27.40625 -11.21875 C 27.25 -9.90625 26.984375 -8.59375 26.609375 -7.28125 C 26.234375 -5.96875 25.722656 -4.757812 25.078125 -3.65625 C 24.441406 -2.5625 23.660156 -1.675781 22.734375 -1 C 21.804688 -0.332031 20.703125 0 19.421875 0 C 18.265625 0 17.273438 -0.367188 16.453125 -1.109375 C 15.640625 -1.847656 14.914062 -2.828125 14.28125 -4.046875 C 13.65625 -5.265625 13.070312 -6.609375 12.53125 -8.078125 C 12 -9.554688 11.441406 -11.03125 10.859375 -12.5 C 10.878906 -10.65625 10.875 -8.960938 10.84375 -7.421875 C 10.820312 -5.878906 10.679688 -4.554688 10.421875 -3.453125 C 10.171875 -2.359375 9.738281 -1.507812 9.125 -0.90625 C 8.507812 -0.300781 7.625 0 6.46875 0 Z M 6.46875 0 "/></g></g></g><g fill="#ad82cf" fill-opacity="1"><g transform="translate(120.186444, 127.03335)"><g><path d="M 6.46875 0 C 5.632812 0 4.90625 -0.332031 4.28125 -1 C 3.65625 -1.675781 3.132812 -2.5625 2.71875 -3.65625 C 2.300781 -4.757812 1.960938 -5.96875 1.703125 -7.28125 C 1.453125 -8.59375 1.269531 -9.910156 1.15625 -11.234375 C 1.050781 -12.566406 1 -13.765625 1 -14.828125 C 1 -16.203125 1.101562 -17.648438 1.3125 -19.171875 C 1.53125 -20.703125 1.90625 -22.144531 2.4375 -23.5 C 2.976562 -24.851562 3.71875 -25.957031 4.65625 -26.8125 C 5.601562 -27.675781 6.8125 -28.109375 8.28125 -28.109375 C 9.300781 -28.109375 10.191406 -27.773438 10.953125 -27.109375 C 11.710938 -26.453125 12.398438 -25.539062 13.015625 -24.375 C 13.640625 -23.21875 14.234375 -21.882812 14.796875 -20.375 C 15.359375 -18.875 15.960938 -17.28125 16.609375 -15.59375 C 16.492188 -17.90625 16.5625 -20.003906 16.8125 -21.890625 C 17.070312 -23.773438 17.601562 -25.28125 18.40625 -26.40625 C 19.21875 -27.539062 20.359375 -28.109375 21.828125 -28.109375 C 23.085938 -28.109375 24.097656 -27.675781 24.859375 -26.8125 C 25.628906 -25.957031 26.210938 -24.851562 26.609375 -23.5 C 27.015625 -22.144531 27.289062 -20.703125 27.4375 -19.171875 C 27.582031 -17.648438 27.65625 -16.203125 27.65625 -14.828125 C 27.65625 -13.734375 27.570312 -12.53125 27.40625 -11.21875 C 27.25 -9.90625 26.984375 -8.59375 26.609375 -7.28125 C 26.234375 -5.96875 25.722656 -4.757812 25.078125 -3.65625 C 24.441406 -2.5625 23.660156 -1.675781 22.734375 -1 C 21.804688 -0.332031 20.703125 0 19.421875 0 C 18.265625 0 17.273438 -0.367188 16.453125 -1.109375 C 15.640625 -1.847656 14.914062 -2.828125 14.28125 -4.046875 C 13.65625 -5.265625 13.070312 -6.609375 12.53125 -8.078125 C 12 -9.554688 11.441406 -11.03125 10.859375 -12.5 C 10.878906 -10.65625 10.875 -8.960938 10.84375 -7.421875 C 10.820312 -5.878906 10.679688 -4.554688 10.421875 -3.453125 C 10.171875 -2.359375 9.738281 -1.507812 9.125 -0.90625 C 8.507812 -0.300781 7.625 0 6.46875 0 Z M 6.46875 0 "/></g></g></g><g fill="#ad82cf" fill-opacity="1"><g transform="translate(148.845641, 127.03335)"><g><path d="M 14.75 0 C 13.65625 0 12.484375 -0.078125 11.234375 -0.234375 C 9.992188 -0.398438 8.769531 -0.738281 7.5625 -1.25 C 6.351562 -1.757812 5.253906 -2.507812 4.265625 -3.5 C 3.273438 -4.488281 2.484375 -5.804688 1.890625 -7.453125 C 1.296875 -9.109375 1 -11.15625 1 -13.59375 C 1 -16.269531 1.453125 -18.707031 2.359375 -20.90625 C 3.273438 -23.101562 4.65625 -24.859375 6.5 -26.171875 C 8.351562 -27.484375 10.675781 -28.140625 13.46875 -28.140625 C 15.476562 -28.140625 17.117188 -27.960938 18.390625 -27.609375 C 19.660156 -27.265625 20.65625 -26.8125 21.375 -26.25 C 22.101562 -25.6875 22.609375 -25.066406 22.890625 -24.390625 C 23.171875 -23.722656 23.3125 -23.054688 23.3125 -22.390625 C 23.3125 -21.691406 23.128906 -21.019531 22.765625 -20.375 C 22.410156 -19.738281 21.84375 -19.234375 21.0625 -18.859375 C 20.3125 -18.503906 19.535156 -18.347656 18.734375 -18.390625 C 17.929688 -18.429688 17.207031 -18.453125 16.5625 -18.453125 C 15.164062 -18.453125 14.070312 -18.203125 13.28125 -17.703125 C 12.488281 -17.210938 11.9375 -16.457031 11.625 -15.4375 C 12.050781 -15.46875 12.523438 -15.488281 13.046875 -15.5 C 13.566406 -15.507812 14.109375 -15.515625 14.671875 -15.515625 C 15.773438 -15.515625 16.828125 -15.492188 17.828125 -15.453125 C 18.835938 -15.410156 19.539062 -15.351562 19.9375 -15.28125 C 20.875 -15.09375 21.582031 -14.722656 22.0625 -14.171875 C 22.550781 -13.617188 22.796875 -12.992188 22.796875 -12.296875 C 22.796875 -11.628906 22.566406 -11.023438 22.109375 -10.484375 C 21.648438 -9.953125 20.914062 -9.582031 19.90625 -9.375 C 19.53125 -9.289062 18.8125 -9.226562 17.75 -9.1875 C 16.6875 -9.144531 15.582031 -9.125 14.4375 -9.125 C 13.976562 -9.125 13.535156 -9.128906 13.109375 -9.140625 C 12.679688 -9.160156 12.289062 -9.171875 11.9375 -9.171875 C 12.3125 -8.335938 12.878906 -7.6875 13.640625 -7.21875 C 14.410156 -6.75 15.398438 -6.515625 16.609375 -6.515625 C 17.054688 -6.515625 17.707031 -6.5625 18.5625 -6.65625 C 19.425781 -6.75 20.257812 -6.675781 21.0625 -6.4375 C 22.351562 -6.03125 23 -5.1875 23 -3.90625 C 23 -3.207031 22.765625 -2.554688 22.296875 -1.953125 C 21.828125 -1.347656 20.992188 -0.867188 19.796875 -0.515625 C 18.609375 -0.171875 16.925781 0 14.75 0 Z M 14.75 0 "/></g></g></g><g fill="#ad82cf" fill-opacity="1"><g transform="translate(173.163751, 127.03335)"><g><path d="M 14.796875 -0.078125 C 12.242188 -0.078125 9.921875 -0.59375 7.828125 -1.625 C 5.742188 -2.65625 4.082031 -4.21875 2.84375 -6.3125 C 1.613281 -8.40625 1 -11.019531 1 -14.15625 C 1 -16 1.320312 -17.757812 1.96875 -19.4375 C 2.613281 -21.113281 3.519531 -22.609375 4.6875 -23.921875 C 5.851562 -25.234375 7.222656 -26.265625 8.796875 -27.015625 C 10.378906 -27.765625 12.125 -28.140625 14.03125 -28.140625 C 16.414062 -28.140625 18.503906 -27.703125 20.296875 -26.828125 C 22.097656 -25.960938 23.5 -24.78125 24.5 -23.28125 C 25.507812 -21.78125 26.015625 -20.101562 26.015625 -18.25 C 26.015625 -17.53125 25.875 -16.84375 25.59375 -16.1875 C 25.3125 -15.53125 24.878906 -14.984375 24.296875 -14.546875 C 23.722656 -14.117188 22.984375 -13.90625 22.078125 -13.90625 C 21.210938 -13.90625 20.53125 -14.039062 20.03125 -14.3125 C 19.539062 -14.582031 19.128906 -14.910156 18.796875 -15.296875 C 18.460938 -15.679688 18.117188 -16.078125 17.765625 -16.484375 C 17.421875 -16.890625 16.992188 -17.222656 16.484375 -17.484375 C 15.972656 -17.753906 15.273438 -17.890625 14.390625 -17.890625 C 13.554688 -17.890625 12.789062 -17.675781 12.09375 -17.25 C 11.40625 -16.820312 10.851562 -16.238281 10.4375 -15.5 C 10.019531 -14.757812 9.8125 -13.921875 9.8125 -12.984375 C 9.8125 -11.585938 10.175781 -10.367188 10.90625 -9.328125 C 11.644531 -8.285156 12.703125 -7.765625 14.078125 -7.765625 C 15.140625 -7.765625 15.984375 -7.921875 16.609375 -8.234375 C 17.242188 -8.554688 17.78125 -8.925781 18.21875 -9.34375 C 18.664062 -9.757812 19.148438 -10.128906 19.671875 -10.453125 C 20.203125 -10.773438 20.878906 -10.9375 21.703125 -10.9375 C 22.890625 -10.9375 23.78125 -10.546875 24.375 -9.765625 C 24.976562 -8.992188 25.226562 -8.046875 25.125 -6.921875 C 25.019531 -5.765625 24.515625 -4.660156 23.609375 -3.609375 C 22.710938 -2.566406 21.507812 -1.71875 20 -1.0625 C 18.488281 -0.40625 16.753906 -0.078125 14.796875 -0.078125 Z M 14.796875 -0.078125 "/></g></g></g><g fill="#ad82cf" fill-opacity="1"><g transform="translate(200.174941, 127.03335)"><g><path d="M 15.078125 -0.078125 C 13.734375 -0.078125 12.710938 -0.519531 12.015625 -1.40625 C 11.316406 -2.289062 10.84375 -3.609375 10.59375 -5.359375 C 10.34375 -7.117188 10.21875 -9.300781 10.21875 -11.90625 C 10.21875 -12.84375 10.226562 -13.722656 10.25 -14.546875 C 10.28125 -15.378906 10.304688 -16.160156 10.328125 -16.890625 C 7.117188 -17.046875 4.757812 -17.5 3.25 -18.25 C 1.75 -19 1 -20.300781 1 -22.15625 C 1 -24.457031 2.171875 -26.007812 4.515625 -26.8125 C 6.867188 -27.613281 10.398438 -28.015625 15.109375 -28.015625 C 19.859375 -28.015625 23.429688 -27.613281 25.828125 -26.8125 C 28.222656 -26.007812 29.421875 -24.457031 29.421875 -22.15625 C 29.421875 -20.332031 28.664062 -19.035156 27.15625 -18.265625 C 25.644531 -17.503906 23.289062 -17.046875 20.09375 -16.890625 C 20.15625 -16.160156 20.195312 -15.378906 20.21875 -14.546875 C 20.25 -13.722656 20.265625 -12.84375 20.265625 -11.90625 C 20.265625 -7.800781 19.898438 -4.800781 19.171875 -2.90625 C 18.453125 -1.019531 17.085938 -0.078125 15.078125 -0.078125 Z M 15.078125 -0.078125 "/></g></g></g><g fill="#ad82cf" fill-opacity="1"><g transform="translate(230.60272, 127.03335)"><g><path d="M 7.28125 0.078125 C 5.425781 0.078125 3.96875 -0.816406 2.90625 -2.609375 C 1.851562 -4.410156 1.234375 -6.769531 1.046875 -9.6875 C 0.828125 -13.300781 1.21875 -16.492188 2.21875 -19.265625 C 3.226562 -22.046875 4.75 -24.210938 6.78125 -25.765625 C 8.820312 -27.328125 11.253906 -28.109375 14.078125 -28.109375 C 16.910156 -28.109375 19.335938 -27.328125 21.359375 -25.765625 C 23.390625 -24.210938 24.90625 -22.054688 25.90625 -19.296875 C 26.914062 -16.535156 27.300781 -13.332031 27.0625 -9.6875 C 26.875 -6.6875 26.25 -4.3125 25.1875 -2.5625 C 24.125 -0.820312 22.671875 0.046875 20.828125 0.046875 C 19.773438 0.046875 18.96875 -0.144531 18.40625 -0.53125 C 17.84375 -0.925781 17.445312 -1.425781 17.21875 -2.03125 C 17 -2.632812 16.890625 -3.25 16.890625 -3.875 C 16.890625 -4.507812 16.925781 -5.054688 17 -5.515625 C 16.144531 -5.484375 15.140625 -5.457031 13.984375 -5.4375 C 12.835938 -5.425781 11.875 -5.453125 11.09375 -5.515625 C 11.175781 -5.054688 11.21875 -4.507812 11.21875 -3.875 C 11.21875 -3.25 11.101562 -2.632812 10.875 -2.03125 C 10.644531 -1.425781 10.25 -0.921875 9.6875 -0.515625 C 9.125 -0.117188 8.320312 0.078125 7.28125 0.078125 Z M 10.8125 -12.65625 C 12.925781 -12.738281 15.046875 -12.738281 17.171875 -12.65625 C 17.304688 -13.601562 17.289062 -14.503906 17.125 -15.359375 C 16.96875 -16.210938 16.632812 -16.90625 16.125 -17.4375 C 15.613281 -17.976562 14.890625 -18.25 13.953125 -18.25 C 13.015625 -18.25 12.296875 -17.976562 11.796875 -17.4375 C 11.304688 -16.90625 10.984375 -16.21875 10.828125 -15.375 C 10.679688 -14.53125 10.675781 -13.625 10.8125 -12.65625 Z M 10.8125 -12.65625 "/></g></g></g><g fill="#ad82cf" fill-opacity="1"><g transform="translate(258.699177, 127.03335)"><g><path d="M 6.671875 0.046875 C 5.460938 0.046875 4.484375 -0.347656 3.734375 -1.140625 C 2.984375 -1.929688 2.40625 -2.988281 2 -4.3125 C 1.601562 -5.644531 1.335938 -7.101562 1.203125 -8.6875 C 1.066406 -10.269531 1 -11.835938 1 -13.390625 C 1 -15.210938 1.25 -16.992188 1.75 -18.734375 C 2.25 -20.472656 3.015625 -22.046875 4.046875 -23.453125 C 5.078125 -24.859375 6.378906 -25.976562 7.953125 -26.8125 C 9.535156 -27.644531 11.414062 -28.0625 13.59375 -28.0625 C 15.789062 -28.0625 17.78125 -27.601562 19.5625 -26.6875 C 21.34375 -25.78125 22.769531 -24.484375 23.84375 -22.796875 C 24.914062 -21.109375 25.453125 -19.097656 25.453125 -16.765625 C 25.453125 -14.671875 25.128906 -12.875 24.484375 -11.375 C 23.835938 -9.875 22.972656 -8.644531 21.890625 -7.6875 C 20.804688 -6.738281 19.597656 -6.035156 18.265625 -5.578125 C 16.941406 -5.128906 15.597656 -4.925781 14.234375 -4.96875 C 12.867188 -5.007812 11.59375 -5.269531 10.40625 -5.75 C 10.539062 -5.101562 10.613281 -4.445312 10.625 -3.78125 C 10.644531 -3.113281 10.539062 -2.488281 10.3125 -1.90625 C 10.082031 -1.332031 9.675781 -0.863281 9.09375 -0.5 C 8.519531 -0.132812 7.710938 0.046875 6.671875 0.046875 Z M 13.984375 -11.21875 C 14.953125 -11.21875 15.789062 -11.570312 16.5 -12.28125 C 17.207031 -12.988281 17.5625 -13.8125 17.5625 -14.75 C 17.5625 -15.71875 17.207031 -16.554688 16.5 -17.265625 C 15.789062 -17.972656 14.953125 -18.328125 13.984375 -18.328125 C 13.023438 -18.328125 12.1875 -17.972656 11.46875 -17.265625 C 10.757812 -16.554688 10.40625 -15.71875 10.40625 -14.75 C 10.40625 -13.8125 10.757812 -12.988281 11.46875 -12.28125 C 12.1875 -11.570312 13.023438 -11.21875 13.984375 -11.21875 Z M 13.984375 -11.21875 "/></g></g></g><g fill="#ad82cf" fill-opacity="1"><g transform="translate(285.147638, 127.03335)"><g><path d="M 14.75 0 C 13.65625 0 12.484375 -0.078125 11.234375 -0.234375 C 9.992188 -0.398438 8.769531 -0.738281 7.5625 -1.25 C 6.351562 -1.757812 5.253906 -2.507812 4.265625 -3.5 C 3.273438 -4.488281 2.484375 -5.804688 1.890625 -7.453125 C 1.296875 -9.109375 1 -11.15625 1 -13.59375 C 1 -16.269531 1.453125 -18.707031 2.359375 -20.90625 C 3.273438 -23.101562 4.65625 -24.859375 6.5 -26.171875 C 8.351562 -27.484375 10.675781 -28.140625 13.46875 -28.140625 C 15.476562 -28.140625 17.117188 -27.960938 18.390625 -27.609375 C 19.660156 -27.265625 20.65625 -26.8125 21.375 -26.25 C 22.101562 -25.6875 22.609375 -25.066406 22.890625 -24.390625 C 23.171875 -23.722656 23.3125 -23.054688 23.3125 -22.390625 C 23.3125 -21.691406 23.128906 -21.019531 22.765625 -20.375 C 22.410156 -19.738281 21.84375 -19.234375 21.0625 -18.859375 C 20.3125 -18.503906 19.535156 -18.347656 18.734375 -18.390625 C 17.929688 -18.429688 17.207031 -18.453125 16.5625 -18.453125 C 15.164062 -18.453125 14.070312 -18.203125 13.28125 -17.703125 C 12.488281 -17.210938 11.9375 -16.457031 11.625 -15.4375 C 12.050781 -15.46875 12.523438 -15.488281 13.046875 -15.5 C 13.566406 -15.507812 14.109375 -15.515625 14.671875 -15.515625 C 15.773438 -15.515625 16.828125 -15.492188 17.828125 -15.453125 C 18.835938 -15.410156 19.539062 -15.351562 19.9375 -15.28125 C 20.875 -15.09375 21.582031 -14.722656 22.0625 -14.171875 C 22.550781 -13.617188 22.796875 -12.992188 22.796875 -12.296875 C 22.796875 -11.628906 22.566406 -11.023438 22.109375 -10.484375 C 21.648438 -9.953125 20.914062 -9.582031 19.90625 -9.375 C 19.53125 -9.289062 18.8125 -9.226562 17.75 -9.1875 C 16.6875 -9.144531 15.582031 -9.125 14.4375 -9.125 C 13.976562 -9.125 13.535156 -9.128906 13.109375 -9.140625 C 12.679688 -9.160156 12.289062 -9.171875 11.9375 -9.171875 C 12.3125 -8.335938 12.878906 -7.6875 13.640625 -7.21875 C 14.410156 -6.75 15.398438 -6.515625 16.609375 -6.515625 C 17.054688 -6.515625 17.707031 -6.5625 18.5625 -6.65625 C 19.425781 -6.75 20.257812 -6.675781 21.0625 -6.4375 C 22.351562 -6.03125 23 -5.1875 23 -3.90625 C 23 -3.207031 22.765625 -2.554688 22.296875 -1.953125 C 21.828125 -1.347656 20.992188 -0.867188 19.796875 -0.515625 C 18.609375 -0.171875 16.925781 0 14.75 0 Z M 14.75 0 "/></g></g></g><g fill="#ad82cf" fill-opacity="1"><g transform="translate(309.465737, 127.03335)"><g><path d="M 15.078125 -0.078125 C 13.734375 -0.078125 12.710938 -0.519531 12.015625 -1.40625 C 11.316406 -2.289062 10.84375 -3.609375 10.59375 -5.359375 C 10.34375 -7.117188 10.21875 -9.300781 10.21875 -11.90625 C 10.21875 -12.84375 10.226562 -13.722656 10.25 -14.546875 C 10.28125 -15.378906 10.304688 -16.160156 10.328125 -16.890625 C 7.117188 -17.046875 4.757812 -17.5 3.25 -18.25 C 1.75 -19 1 -20.300781 1 -22.15625 C 1 -24.457031 2.171875 -26.007812 4.515625 -26.8125 C 6.867188 -27.613281 10.398438 -28.015625 15.109375 -28.015625 C 19.859375 -28.015625 23.429688 -27.613281 25.828125 -26.8125 C 28.222656 -26.007812 29.421875 -24.457031 29.421875 -22.15625 C 29.421875 -20.332031 28.664062 -19.035156 27.15625 -18.265625 C 25.644531 -17.503906 23.289062 -17.046875 20.09375 -16.890625 C 20.15625 -16.160156 20.195312 -15.378906 20.21875 -14.546875 C 20.25 -13.722656 20.265625 -12.84375 20.265625 -11.90625 C 20.265625 -7.800781 19.898438 -4.800781 19.171875 -2.90625 C 18.453125 -1.019531 17.085938 -0.078125 15.078125 -0.078125 Z M 15.078125 -0.078125 "/></g></g></g></svg>