<svg xmlns="http://www.w3.org/2000/svg" xmlns:xlink="http://www.w3.org/1999/xlink" width="500" zoomAndPan="magnify" viewBox="0 0 375 374.999991" height="500" preserveAspectRatio="xMidYMid meet" version="1.0"><rect x="-37.5" width="450" fill="#ffffff" y="-37.499999" height="449.999989" fill-opacity="1"/><rect x="-37.5" width="450" fill="#ffffff" y="-37.499999" height="449.999989" fill-opacity="1"/><path fill="#000000" d="M 326.265625 248.511719 C 324.914062 247.070312 322.472656 246.921875 321.039062 248.335938 C 313.300781 255.75 305.226562 262.890625 296.378906 268.957031 C 237.003906 300.394531 192.871094 280.128906 188.292969 227.164062 C 189.441406 222.429688 190.441406 217.582031 191.328125 212.679688 C 201.464844 210.417969 210.78125 200.554688 217.667969 193.589844 C 226.929688 184.652344 235.828125 175.382812 244.800781 166.160156 C 246.351562 164.730469 247.878906 163.285156 249.382812 161.8125 C 258.539062 154.742188 267.023438 146.878906 274.277344 137.675781 C 298.410156 112.09375 292.15625 74.480469 251.15625 83.820312 C 237.242188 87.074219 224.132812 93.246094 212.003906 100.71875 C 203.507812 103.699219 189.507812 123.496094 181.578125 114.019531 C 172.898438 102.632812 164.363281 90.390625 152.199219 82.457031 C 140.230469 73.917969 121.507812 76.769531 115.515625 91.066406 C 108.761719 107.90625 115.601562 126.484375 121.597656 142.550781 C 131.339844 167.402344 150.519531 186.402344 170.074219 203.878906 C 172.585938 206.441406 175.300781 208.78125 178.332031 210.785156 C 179.050781 211.1875 179.769531 211.519531 180.484375 211.816406 C 180.238281 216.867188 180.332031 221.988281 180.792969 227.082031 C 180.058594 230.398438 179.257812 233.707031 178.332031 237 C 163.585938 298.3125 94.152344 293.570312 61.996094 249.0625 C 58.71875 244.980469 55.191406 241.011719 53.039062 236.1875 C 52.167969 234.363281 49.75 233.75 48.03125 234.667969 C 41.4375 240.417969 57 253.148438 60.320312 258.574219 C 70.417969 270.648438 83.429688 280.429688 98.398438 285.53125 C 148.195312 300.871094 171.558594 277.5625 183.589844 243.265625 C 187.808594 259.363281 196.320312 273.8125 210.058594 282.707031 C 234.335938 296.0625 264.523438 291.304688 289.113281 281.121094 C 294.664062 279.835938 333.183594 253.875 326.265625 248.511719 " fill-opacity="1" fill-rule="nonzero"/></svg>