<svg xmlns="http://www.w3.org/2000/svg" xmlns:xlink="http://www.w3.org/1999/xlink" width="500" zoomAndPan="magnify" viewBox="0 0 375 374.999991" height="500" preserveAspectRatio="xMidYMid meet" version="1.0"><defs><clipPath id="f36f6a402f"><path d="M 98 141.082031 L 277.578125 141.082031 L 277.578125 210 L 98 210 Z M 98 141.082031 " clip-rule="nonzero"/></clipPath></defs><rect x="-37.5" width="450" fill="#ffffff" y="-37.499999" height="449.999989" fill-opacity="1"/><rect x="-37.5" width="450" fill="#f6f3f0" y="-37.499999" height="449.999989" fill-opacity="1"/><g clip-path="url(#f36f6a402f)"><path fill="#000000" d="M 151.308594 157.542969 C 151.605469 157.054688 152.242188 156.902344 152.726562 157.203125 C 153.210938 157.503906 153.359375 158.144531 153.0625 158.628906 C 150.371094 163.085938 147.886719 167.640625 145.542969 172.261719 C 142.015625 179.210938 138.804688 186.320312 135.671875 193.488281 C 134.601562 195.929688 133.496094 200.039062 131.582031 202.953125 C 130.570312 204.496094 129.328125 205.71875 127.824219 206.363281 C 125.21875 207.492188 122.589844 206.984375 120.148438 205.628906 C 117.058594 203.921875 114.28125 200.796875 112.359375 198.578125 C 108.222656 193.8125 102.375 187.78125 99.777344 181.355469 C 97.816406 176.496094 97.632812 171.425781 100.929688 166.425781 C 102.320312 164.320312 104.097656 162.710938 106.105469 161.394531 C 110.351562 158.613281 115.671875 157.253906 120.074219 154.949219 C 124.535156 152.609375 128.988281 148.625 133.769531 146.015625 C 136.089844 144.753906 138.480469 143.804688 140.96875 143.414062 C 143.476562 143.019531 146.050781 143.402344 148.640625 144.191406 C 153.609375 145.703125 158.652344 148.847656 163.417969 149.539062 C 165.859375 149.898438 168.234375 149.855469 170.578125 149.601562 C 176.519531 148.964844 182.265625 147.0625 188.296875 146.511719 C 193.265625 146.070312 198.070312 147.175781 202.992188 147.25 C 204.097656 147.265625 205.210938 147.222656 206.335938 147.085938 C 207.753906 146.914062 209.152344 146.652344 210.542969 146.335938 C 216.410156 145 222.09375 142.746094 228.058594 141.847656 C 233.273438 141.0625 238.746094 141.472656 243.882812 142.972656 C 249.050781 144.488281 253.882812 147.109375 257.761719 150.699219 C 259.683594 152.484375 261.296875 154.394531 262.734375 156.386719 C 266.007812 160.90625 268.386719 165.84375 271.847656 170.484375 C 272.84375 171.816406 275.039062 173.523438 276.285156 175.363281 C 277.085938 176.550781 277.546875 177.800781 277.472656 179.039062 C 277.378906 180.78125 276.785156 182.546875 275.921875 184.238281 C 274.761719 186.496094 273.121094 188.628906 271.742188 190.378906 C 268.695312 194.234375 262.0625 200.789062 255.195312 205.03125 C 249.984375 208.246094 244.605469 210.0625 240.457031 208.808594 C 236.15625 207.503906 233.066406 204.1875 230.828125 199.832031 C 226.4375 191.28125 225.351562 178.648438 223.539062 171.550781 C 222.554688 167.6875 221.582031 164.214844 219.339844 161.929688 C 217.941406 160.507812 216.035156 159.582031 213.328125 159.316406 C 212.734375 159.261719 212.296875 158.734375 212.351562 158.140625 C 212.40625 157.542969 212.929688 157.105469 213.523438 157.160156 C 216.859375 157.441406 219.191406 158.601562 220.933594 160.328125 C 223.46875 162.835938 224.710938 166.644531 225.863281 170.9375 C 227.46875 176.914062 228.558594 186.921875 231.640625 194.925781 C 233.675781 200.210938 236.546875 204.636719 241.285156 206.007812 C 244.785156 207.023438 249.214844 205.164062 253.566406 202.402344 C 260.042969 198.304688 266.28125 192.015625 269.128906 188.324219 C 270.371094 186.714844 271.859375 184.765625 272.894531 182.695312 C 273.519531 181.441406 273.980469 180.144531 274.035156 178.859375 C 274.074219 178.105469 273.53125 177.421875 272.949219 176.722656 C 271.664062 175.183594 269.898438 173.769531 269.027344 172.628906 C 265.515625 168.007812 263.082031 163.082031 259.765625 158.582031 C 258.449219 156.792969 256.980469 155.078125 255.226562 153.484375 C 251.746094 150.316406 247.417969 148.035156 242.804688 146.722656 C 238.207031 145.414062 233.316406 145.070312 228.664062 145.804688 C 222.796875 146.722656 217.222656 148.996094 211.457031 150.34375 C 209.933594 150.699219 208.398438 150.992188 206.839844 151.1875 C 205.527344 151.351562 204.230469 151.410156 202.9375 151.394531 C 198.160156 151.339844 193.492188 150.230469 188.667969 150.671875 C 182.660156 151.207031 176.929688 153.097656 171.011719 153.71875 C 168.328125 154.003906 165.609375 154.035156 162.816406 153.617188 C 157.871094 152.867188 152.617188 149.648438 147.464844 148.046875 C 145.472656 147.425781 143.503906 147.0625 141.570312 147.355469 C 139.515625 147.664062 137.546875 148.460938 135.628906 149.488281 C 130.808594 152.066406 126.300781 156.011719 121.804688 158.316406 C 118.0625 160.230469 113.660156 161.445312 109.816406 163.453125 C 107.507812 164.660156 105.402344 166.160156 103.878906 168.414062 C 101.253906 172.296875 101.441406 176.273438 102.929688 180.09375 C 105.316406 186.21875 110.855469 191.96875 114.71875 196.542969 C 116.421875 198.558594 118.84375 201.449219 121.601562 203.027344 C 123.21875 203.953125 124.957031 204.425781 126.707031 203.699219 C 128.085938 203.128906 129.082031 201.789062 129.921875 200.257812 C 131.371094 197.625 132.3125 194.40625 133.226562 192.390625 C 136.492188 185.226562 139.835938 178.128906 143.492188 171.191406 C 145.933594 166.558594 148.515625 162 151.308594 157.542969 Z M 151.308594 157.542969 " fill-opacity="1" fill-rule="evenodd"/></g><path fill="#000000" d="M 125.71875 206.953125 C 125.503906 207.140625 125.179688 207.113281 124.992188 206.898438 C 124.808594 206.679688 124.832031 206.351562 125.050781 206.167969 C 127.492188 203.945312 128.726562 201.238281 129.402344 198.3125 C 129.917969 196.085938 130.09375 193.738281 130.21875 191.375 C 130.347656 188.957031 130.421875 186.527344 130.667969 184.199219 C 130.976562 181.628906 131.507812 179.144531 132.1875 176.703125 C 133.1875 173.101562 134.484375 169.59375 135.550781 165.957031 C 136.300781 163.449219 136.714844 160.273438 137.769531 157.542969 C 138.535156 155.566406 139.617188 153.820312 141.339844 152.675781 C 141.585938 152.507812 141.921875 152.566406 142.089844 152.8125 C 142.261719 153.058594 142.199219 153.394531 141.957031 153.566406 C 140.488281 154.644531 139.628906 156.238281 139.03125 158.003906 C 138.105469 160.746094 137.828125 163.90625 137.1875 166.414062 C 136.234375 170.078125 135.097656 173.628906 134.152344 177.238281 C 133.539062 179.59375 132.992188 181.972656 132.703125 184.441406 C 132.398438 186.734375 132.28125 189.128906 132.070312 191.507812 C 131.855469 193.96875 131.546875 196.40625 130.898438 198.699219 C 130.011719 201.832031 128.5 204.691406 125.71875 206.953125 Z M 125.71875 206.953125 " fill-opacity="1" fill-rule="evenodd"/><path fill="#000000" d="M 244.070312 207.347656 C 244.34375 207.445312 244.472656 207.746094 244.378906 208.011719 C 244.277344 208.28125 243.984375 208.417969 243.71875 208.320312 C 242.1875 207.8125 240.464844 207.277344 238.941406 206.472656 C 237.851562 205.894531 236.867188 205.171875 236.09375 204.253906 C 235.246094 203.246094 234.742188 202.039062 234.441406 200.753906 C 234.027344 198.957031 234.039062 197.007812 234.039062 195.28125 C 234.054688 193.570312 234.050781 191.859375 234.011719 190.152344 C 233.984375 189.023438 233.945312 187.894531 233.867188 186.765625 C 233.753906 184.691406 233.582031 182.570312 233.34375 180.429688 C 233 177.300781 232.5 174.140625 231.710938 171.085938 C 230.828125 167.652344 229.601562 164.347656 227.832031 161.363281 C 227.675781 161.109375 227.75 160.773438 228.003906 160.613281 C 228.257812 160.457031 228.589844 160.53125 228.75 160.785156 C 230.722656 163.785156 232.175781 167.140625 233.246094 170.652344 C 234.1875 173.753906 234.832031 176.980469 235.28125 180.183594 C 235.582031 182.355469 235.78125 184.519531 235.941406 186.628906 C 236.03125 188.082031 236.070312 189.535156 236.066406 190.992188 C 236.0625 192.433594 236.011719 193.875 235.964844 195.320312 C 235.898438 196.917969 235.808594 198.722656 236.117188 200.402344 C 236.308594 201.449219 236.644531 202.449219 237.285156 203.300781 C 237.894531 204.113281 238.707031 204.753906 239.601562 205.296875 C 241.019531 206.152344 242.632812 206.769531 244.070312 207.347656 Z M 244.070312 207.347656 " fill-opacity="1" fill-rule="evenodd"/><path fill="#000000" d="M 259.480469 164.066406 C 259.332031 163.828125 259.394531 163.503906 259.632812 163.351562 C 259.871094 163.195312 260.195312 163.265625 260.347656 163.503906 C 261.027344 164.410156 261.636719 165.34375 262.210938 166.308594 C 262.875 167.414062 263.484375 168.539062 264.109375 169.667969 C 264.355469 170.105469 264.601562 170.546875 264.847656 170.988281 C 265.214844 171.636719 265.574219 172.285156 265.976562 172.914062 C 266.507812 173.828125 267.472656 174.769531 268.027344 175.8125 C 268.339844 176.390625 268.554688 176.996094 268.574219 177.625 C 268.601562 178.398438 268.410156 179.183594 268.078125 179.941406 C 267.652344 180.917969 267.023438 181.851562 266.558594 182.671875 C 266.425781 182.941406 266.097656 183.050781 265.832031 182.917969 C 265.5625 182.785156 265.453125 182.460938 265.585938 182.191406 C 265.933594 181.363281 266.425781 180.40625 266.722656 179.433594 C 266.898438 178.871094 266.984375 178.308594 266.910156 177.765625 C 266.859375 177.398438 266.675781 177.070312 266.460938 176.746094 C 266.179688 176.304688 265.800781 175.902344 265.441406 175.5 C 264.992188 175 264.558594 174.507812 264.238281 174.027344 C 263.636719 173.058594 263.089844 172.070312 262.609375 171.046875 C 262.167969 170.113281 261.769531 169.164062 261.375 168.210938 C 260.789062 166.808594 260.214844 165.414062 259.480469 164.066406 Z M 259.480469 164.066406 " fill-opacity="1" fill-rule="evenodd"/><path fill="#000000" d="M 109.859375 167.449219 C 110.078125 167.269531 110.40625 167.304688 110.582031 167.527344 C 110.761719 167.746094 110.726562 168.074219 110.507812 168.253906 C 109.472656 169.214844 108.636719 170.339844 107.976562 171.546875 C 107.535156 172.347656 107.203125 173.1875 106.949219 174.050781 C 106.636719 175.113281 106.492188 176.210938 106.503906 177.324219 C 106.515625 178.398438 106.648438 179.492188 107.027344 180.574219 C 107.316406 181.4375 107.707031 182.257812 108.164062 183.050781 C 108.878906 184.289062 109.722656 185.457031 110.574219 186.570312 C 110.769531 186.796875 110.746094 187.136719 110.523438 187.335938 C 110.296875 187.53125 109.957031 187.503906 109.761719 187.28125 C 108.742188 186.230469 107.714844 185.128906 106.839844 183.917969 C 106.230469 183.078125 105.710938 182.1875 105.296875 181.246094 C 104.757812 179.964844 104.457031 178.65625 104.429688 177.355469 C 104.402344 176.011719 104.648438 174.683594 105.113281 173.4375 C 105.476562 172.457031 105.972656 171.527344 106.589844 170.667969 C 107.476562 169.429688 108.582031 168.34375 109.859375 167.449219 Z M 109.859375 167.449219 " fill-opacity="1" fill-rule="evenodd"/></svg>