<svg xmlns="http://www.w3.org/2000/svg" xmlns:xlink="http://www.w3.org/1999/xlink" width="500" zoomAndPan="magnify" viewBox="0 0 375 374.999991" height="500" preserveAspectRatio="xMidYMid meet" version="1.0"><defs><clipPath id="de8c588e05"><path d="M 230.742188 159.195312 L 281.957031 159.195312 L 281.957031 211.308594 L 230.742188 211.308594 Z M 230.742188 159.195312 " clip-rule="nonzero"/></clipPath><clipPath id="0aea30387e"><path d="M 145 185.914062 L 233.570312 185.914062 L 233.570312 259.6875 L 145 259.6875 Z M 145 185.914062 " clip-rule="nonzero"/></clipPath></defs><path fill="#9d88c9" d="M 158.511719 123.050781 C 192.160156 118.332031 194.878906 178.59375 163.742188 177.132812 C 138.710938 175.960938 129.265625 127.148438 158.511719 123.050781 " fill-opacity="1" fill-rule="evenodd"/><path fill="#9d88c9" d="M 212.59375 123.050781 C 249.65625 114.960938 245.328125 180.796875 210.851562 177.132812 C 183.5625 174.234375 188.878906 128.226562 212.59375 123.050781 " fill-opacity="1" fill-rule="evenodd"/><path fill="#9d88c9" d="M 146.300781 195.453125 C 133.121094 224.222656 92.957031 203.898438 97.449219 175.386719 C 102.175781 145.359375 155.882812 160.667969 146.300781 195.453125 " fill-opacity="1" fill-rule="evenodd"/><g clip-path="url(#de8c588e05)"><path fill="#9d88c9" d="M 255.34375 159.6875 C 264.011719 158.007812 274.847656 161.089844 278.894531 168.410156 C 290.054688 188.605469 269.484375 213.289062 249.234375 211.152344 C 238.113281 209.984375 231.6875 200.519531 230.914062 191.964844 C 229.261719 173.640625 242.335938 162.203125 255.34375 159.6875 " fill-opacity="1" fill-rule="evenodd"/></g><g clip-path="url(#0aea30387e)"><path fill="#9d88c9" d="M 180.320312 186.726562 C 210.882812 181.457031 238.945312 203.484375 232.660156 240.8125 C 231.359375 248.539062 224.707031 259.464844 215.210938 260.003906 C 207.546875 260.441406 198.585938 252.980469 189.042969 253.027344 C 177.195312 253.085938 167.855469 263.589844 156.765625 258.261719 C 147.449219 253.785156 143.683594 235.671875 145.425781 222.496094 C 147.933594 203.5 161.898438 189.90625 180.320312 186.726562 " fill-opacity="1" fill-rule="evenodd"/></g></svg>