<?xml version="1.0" encoding="utf-8"?>
<!-- Generator: Adobe Illustrator 27.5.0, SVG Export Plug-In . SVG Version: 6.00 Build 0)  -->
<svg version="1.1" id="Layer_1" xmlns="http://www.w3.org/2000/svg" xmlns:xlink="http://www.w3.org/1999/xlink" x="0px" y="0px"
	 viewBox="0 0 251.193 319.622" style="enable-background:new 0 0 251.193 319.622;" xml:space="preserve">
<g>
	<g>
		<g>
			<path style="fill:#CD8F5F;" d="M135.289,187.059c0,0,9.497,63.356,12.465,66.228c11.991-0.153,22.571,3.623,23.329,13.166
				c0.247,8.537-5.356,9.29-8.855,8.244c-3.46,5.261-10.48,6.004-17.194,2.844c-7.847,5.055-19.522-0.111-22.366-8.01
				c-8.542-3.692-8.087-4.425-9.358-13.189c-1.271-8.763-7.415-31.338-7.415-31.338L135.289,187.059z"/>
			<path style="fill:#99582B;" d="M137.93,279.78c-1.735,0-3.529-0.298-5.311-0.901c-4.765-1.613-8.64-5.122-10.139-9.172
				c-8.015-3.471-8.15-4.432-9.175-11.721c-0.072-0.504-0.146-1.04-0.229-1.609c-1.254-8.649-7.348-31.085-7.41-31.311
				c-0.019-0.071-0.005-0.147,0.041-0.206l29.394-37.946c0.057-0.074,0.15-0.105,0.245-0.084c0.091,0.024,0.159,0.1,0.173,0.193
				c3.253,21.695,9.975,63.134,12.335,66.027c0.208-0.003,0.416-0.004,0.622-0.004c13.653,0,22.171,4.977,22.84,13.388
				c0.105,3.614-0.798,6.175-2.684,7.622c-1.605,1.232-3.953,1.571-6.306,0.914c-3.369,4.946-10.274,6.085-17.277,2.837
				C142.974,279.115,140.518,279.78,137.93,279.78z M106.152,225.056c0.473,1.745,6.178,22.895,7.39,31.253
				c0.083,0.571,0.158,1.106,0.23,1.612c1.017,7.239,1.124,7.995,8.989,11.395c0.059,0.026,0.106,0.075,0.128,0.136
				c1.425,3.959,5.212,7.401,9.882,8.982c4.351,1.475,8.774,1.076,12.134-1.089c0.069-0.044,0.154-0.05,0.228-0.016
				c6.889,3.242,13.681,2.134,16.898-2.76c0.056-0.086,0.164-0.13,0.264-0.096c0.85,0.253,3.792,0.947,6.053-0.788
				c1.759-1.35,2.6-3.78,2.5-7.224c-0.658-8.272-9.313-13.118-23.092-12.937c-0.084,0.003-0.122-0.024-0.166-0.066
				c-2.877-2.785-11.456-59.213-12.452-65.819L106.152,225.056z"/>
		</g>
		<g>
			<path style="fill:#AC6430;" d="M122.972,211.376c1.246,4.902,2.991,9.709,5.356,14.184c2.053,3.883,4.633,7.736,8.152,10.442
				c2.221,1.708,4.792,2.784,7.503,2.892c-3.85-19.518-8.695-51.835-8.695-51.835l-13.685,17.667
				C121.957,206.963,122.415,209.184,122.972,211.376z"/>
			<path style="fill:#571B09;" d="M143.983,239.129c-0.003,0-0.006,0-0.009,0c-2.632-0.105-5.272-1.121-7.637-2.94
				c-3.053-2.35-5.664-5.691-8.215-10.518c-2.247-4.251-4.057-9.041-5.377-14.237l0,0c-0.559-2.194-1.021-4.439-1.374-6.671
				c-0.01-0.064,0.006-0.13,0.047-0.181l13.685-17.668c0.057-0.074,0.15-0.105,0.245-0.084c0.091,0.024,0.159,0.1,0.173,0.193
				c0.049,0.324,4.888,32.535,8.693,51.824c0.014,0.071-0.005,0.144-0.051,0.198C144.118,239.099,144.052,239.129,143.983,239.129z
				 M121.851,204.79c0.349,2.185,0.802,4.38,1.349,6.528l0,0c1.312,5.16,3.108,9.914,5.337,14.132
				c2.52,4.765,5.089,8.059,8.087,10.365c2.198,1.691,4.637,2.665,7.071,2.827c-3.525-17.941-7.906-46.702-8.556-51.005
				L121.851,204.79z"/>
		</g>
		<path style="fill:#CD8F5F;" d="M171.083,266.453c-0.758-9.542-11.338-13.318-23.329-13.166c-0.462-0.447-1.082-2.361-1.8-5.273
			c-0.124,0.198-0.256,0.389-0.404,0.565c-1.017,1.211-2.673,1.581-4.16,1.828c-2.54,0.423-5.119-0.025-7.672-0.019
			c-1.18,0.003-2.41,0.06-3.539,0.429c-0.81,0.265-1.567,0.666-2.297,1.1c-1.249,0.743-2.503,1.783-3.962,2.067
			c-1.564,0.305-2.832-0.712-3.644-1.96c-1.037-1.596-1.573-3.584-2.085-5.4c-0.58-2.058-1.038-4.151-1.409-6.257
			c-0.366-2.084-0.648-4.185-0.807-6.295c-0.133-1.757-0.314-3.646,0.082-5.38c0.802-3.511,3.64-5.838,6.499-7.747
			c1.515-1.012,3.081-1.949,4.563-3.009c1.689-1.208,3.17-2.623,4.48-4.236c2.728-3.359,4.567-7.346,6.059-11.388
			c-1.407-8.838-2.369-15.256-2.369-15.256l-29.394,37.946c0,0,6.144,22.575,7.415,31.338c1.271,8.763,0.816,9.497,9.358,13.189
			c2.844,7.899,14.519,13.066,22.366,8.01c6.714,3.16,13.734,2.417,17.194-2.844C165.727,275.743,171.33,274.99,171.083,266.453z"/>
		<g>
			<path style="fill:#ECCEB0;" d="M171.083,266.453c-0.758-9.542-11.338-13.318-23.329-13.166c-0.038-0.037-0.079-0.091-0.12-0.148
				c-0.065,0.016-0.128,0.038-0.193,0.054c-2.97,0.683-6.082-0.052-9.019,0.89c-1.931,0.619-3.949,1.51-5.475,2.874
				c-0.547,0.488-1.149,1.145-1.091,1.935c0.072,0.977,1.038,1.648,1.813,2.082c0.228,0.128,0.063,0.424-0.072,0.562
				c-2.306,2.363-4.854,4.635-6.515,7.527c-0.778,1.355-1.32,2.859-1.427,4.426c-0.017,0.242-0.021,0.482-0.018,0.721
				c4.761,4.981,13.252,7.29,19.396,3.332c6.714,3.16,13.734,2.417,17.194-2.844C165.727,275.743,171.33,274.99,171.083,266.453z"/>
			<path style="fill:#A57346;" d="M137.982,279.781c-4.709,0-9.461-2.214-12.515-5.409c-0.041-0.043-0.064-0.1-0.065-0.159
				c-0.004-0.245,0.002-0.492,0.019-0.741c0.102-1.497,0.593-3.019,1.457-4.526c1.375-2.396,3.359-4.377,5.279-6.294
				c0.427-0.426,0.854-0.853,1.273-1.282c0.075-0.077,0.12-0.178,0.118-0.211c-0.784-0.424-1.845-1.141-1.926-2.251
				c-0.066-0.901,0.59-1.61,1.168-2.127c1.339-1.195,3.157-2.151,5.561-2.922c1.625-0.522,3.314-0.54,4.948-0.558
				c1.353-0.016,2.754-0.03,4.09-0.337l0.191-0.053c0.093-0.024,0.191,0.014,0.247,0.093c0.011,0.017,0.023,0.032,0.034,0.048
				c0.206-0.003,0.414-0.004,0.618-0.004c13.653,0,22.171,4.976,22.84,13.387c0.001,0.004,0.001,0.007,0.001,0.012
				c0.104,3.603-0.799,6.164-2.685,7.611c-1.605,1.232-3.953,1.571-6.306,0.914c-3.369,4.946-10.274,6.085-17.277,2.837
				C142.87,279.182,140.431,279.781,137.982,279.781z M125.871,274.114c4.549,4.703,12.885,7.191,19.034,3.23
				c0.069-0.044,0.154-0.05,0.228-0.016c6.889,3.242,13.681,2.134,16.898-2.76c0.056-0.086,0.164-0.13,0.264-0.096
				c0.85,0.253,3.793,0.947,6.052-0.788c1.759-1.35,2.6-3.778,2.501-7.218c-0.651-8.135-8.995-12.948-22.369-12.948
				c-0.24,0-0.48,0.002-0.722,0.005c-0.076-0.005-0.123-0.023-0.167-0.067c-0.015-0.014-0.029-0.03-0.044-0.048l-0.05,0.014
				c-1.387,0.319-2.814,0.335-4.193,0.35c-1.598,0.018-3.251,0.035-4.809,0.536c-2.339,0.75-4.103,1.674-5.39,2.824
				c-0.499,0.446-1.064,1.046-1.013,1.741c0.065,0.884,0.998,1.505,1.694,1.896c0.127,0.07,0.209,0.186,0.229,0.322
				c0.042,0.293-0.198,0.558-0.247,0.608c-0.42,0.43-0.847,0.857-1.276,1.286c-1.897,1.895-3.86,3.854-5.203,6.194
				c-0.829,1.445-1.298,2.9-1.397,4.325C125.876,273.709,125.87,273.912,125.871,274.114z"/>
		</g>
		<path style="fill:#ECCEB0;" d="M169.96,270.487c-1.708,0.247-2.947-1.236-3.627-2.6c-1.254-2.515-2.954-4.662-5.652-5.512
			c1.37,2.268,2.492,4.864,1.97,7.54c-0.787,4.035-4.985,7.707-9.232,6.826c-1.103-0.229-2.138-0.732-3.016-1.436
			c-0.919-0.737-1.468-1.73-1.865-2.822c-0.414-1.14-0.721-2.284-1.511-3.234c-0.666-0.801-1.475-1.477-2.355-2.037
			c0.931,1.932,1.189,4.151,0.511,6.236c-0.681,2.094-2.293,3.837-4.405,4.522c-2.619,0.85-5.494,0.09-7.436-1.828
			c-2.042-2.017-2.992-5.112-2.416-7.925c0.581-2.838,2.772-5.12,5.019-6.906c-0.576-0.15-1.158-0.386-1.466-0.843
			c-0.336-0.496-0.165-1.128,0.138-1.595c0.743-1.149,2.292-1.804,3.5-2.315c1.612-0.681,3.243-1.039,4.977-1.263
			c2.388-0.308,4.793-0.459,7.179-0.782c1.259-0.171,2.528-0.358,3.76-0.673c0.191-0.049,0.373-0.11,0.557-0.168
			c-2.184-0.287-4.481-0.415-6.838-0.385c-0.039-0.037-0.079-0.091-0.12-0.148c-0.065,0.016-0.128,0.038-0.193,0.054
			c-2.97,0.683-6.082-0.052-9.019,0.89c-1.931,0.619-3.949,1.51-5.475,2.874c-0.546,0.488-1.149,1.145-1.091,1.935
			c0.072,0.977,1.038,1.648,1.813,2.082c0.228,0.128,0.063,0.424-0.072,0.562c-2.306,2.363-4.854,4.635-6.515,7.527
			c-0.778,1.355-1.32,2.859-1.427,4.426c-0.017,0.242-0.021,0.482-0.018,0.721c4.761,4.981,13.252,7.29,19.396,3.332
			c6.714,3.16,13.734,2.417,17.194-2.844c2.885,0.862,7.193,0.489,8.48-4.45C170.471,270.359,170.225,270.449,169.96,270.487z"/>
		<g>
			<path style="fill:#A57346;" d="M148.261,253.028c-2.248-0.201-4.52-0.21-6.776-0.286c-2.063-0.069-4.194-0.264-6.216,0.265
				c-3.647,0.953-6.443,3.716-9.042,6.287c-1.62,1.602-3.276,3.192-5.233,4.383c-0.128,0.078-0.246,0.399,0.004,0.27
				c3.383-1.748,5.767-4.747,8.636-7.162c1.373-1.155,2.889-2.195,4.593-2.793c1.976-0.693,4.054-0.551,6.11-0.469
				c2.495,0.1,5.003,0.273,7.501,0.24C148.131,253.758,148.731,253.07,148.261,253.028z"/>
			<path style="fill:#A57346;" d="M146.263,267.907c-1.493-2.742-4.554-4.5-7.68-4.315c-0.117,0.007-0.417,0.316-0.211,0.334
				c2.833,0.251,5.535,1.819,6.958,4.318c1.545,2.712,1.218,5.914-0.214,8.585c-0.235,0.438,0.322,0.304,0.499,0.082
				C147.603,274.425,147.77,270.673,146.263,267.907z"/>
			<path style="fill:#A57346;" d="M163.429,266.849c-0.78-2.867-2.891-5.258-5.575-6.503c-1.541-0.715-3.205-1.025-4.9-0.937
				c-0.137,0.007-0.452,0.364-0.231,0.369c3.505,0.075,6.953,2.032,8.77,5.039c0.937,1.551,1.414,3.397,1.415,5.205
				c0.001,1.934-0.59,3.606-1.431,5.319c-0.26,0.53,0.399,0.41,0.618,0.116C163.86,273.089,164.188,269.642,163.429,266.849z"/>
		</g>
		<path style="fill:#AC6430;" d="M133.555,191.593c0.321,3.624,0.799,7.234,1.322,10.834c0.932,6.41,2.11,12.789,3.414,19.133
			c1.144,5.563,2.318,11.147,3.741,16.647c0.787,3.042,1.888,6.184,3.682,8.82c-3.925-16.601-10.426-59.969-10.426-59.969
			l-1.896,2.447C133.443,190.202,133.494,190.898,133.555,191.593z"/>
		<path style="fill:#ECCEB0;" d="M136.787,263.827c0,0,7.866,2.372,7.284,10.31C147.981,269.765,141.301,263.461,136.787,263.827z"
			/>
		<path style="fill:#ECCEB0;" d="M153.754,260.973c0,0,7.865,2.372,7.284,10.31C164.948,266.911,158.268,260.607,153.754,260.973z"
			/>
		<path style="fill:#ECCEB0;" d="M161.365,257.484c0,0,7.865,2.372,7.284,10.31C172.559,263.422,165.879,257.118,161.365,257.484z"
			/>
	</g>
	<g>
		<g>
			<g>
				<path style="fill:#CD8F5F;" d="M38.241,218.366c0,0-24.434,6.274-31.368-13.373c-8.42,8.09,1.321,33.679,32.524,25.59
					C37.911,222.494,38.241,218.366,38.241,218.366z"/>
				<path style="fill:#99582B;" d="M27.893,232.413c-14.162,0-20.132-8.334-21.837-11.386c-3.281-5.871-3.006-12.686,0.655-16.203
					c0.058-0.055,0.141-0.078,0.217-0.059c0.078,0.018,0.141,0.075,0.167,0.151c6.783,19.213,30.846,13.285,31.088,13.223
					c0.075-0.017,0.153,0,0.21,0.048c0.058,0.049,0.089,0.123,0.083,0.198c-0.003,0.041-0.31,4.199,1.152,12.156
					c0.022,0.121-0.053,0.239-0.173,0.27C35.102,231.94,31.265,232.413,27.893,232.413z M6.778,205.423
					c-3.261,3.441-3.412,9.83-0.313,15.375c2.064,3.693,10.501,15.274,32.66,9.612c-1.205-6.653-1.175-10.636-1.135-11.744
					C35.137,219.297,13.432,223.44,6.778,205.423z"/>
			</g>
			<path style="fill:#ECCEB0;" d="M11.156,222.064c0.809-0.676,1.238-1.407,1.188-2.472c-0.043-0.929-0.178-1.854-0.278-2.778
				c-0.12-1.115-0.223-2.392,0.036-3.531c-2.148-2.047-3.977-4.74-5.229-8.29c-4.148,3.985-3.878,12.214,1.184,18.574
				C9.188,223.256,10.276,222.8,11.156,222.064z"/>
			<path style="fill:#AC6430;" d="M34.873,221.431c-1.692-0.147-3.374-0.352-5.076-0.332c-2.886,0.034-5.828,0.983-8.284,2.488
				c-0.576,0.353-1.154,0.755-1.666,1.196c-0.3,0.258-0.775,0.691-0.725,1.132c0.05,0.439,0.587,0.886,0.883,1.159
				c0.482,0.444,1.012,0.836,1.534,1.231c1.346,1.017,2.943,1.693,4.448,2.44c0.881,0.437,1.763,0.887,2.616,1.382
				c3.263-0.049,6.852-0.522,10.794-1.544c-0.722-3.932-1.014-6.921-1.124-8.962C37.141,221.585,36.012,221.53,34.873,221.431z"/>
		</g>
		<path style="fill:#CD8F5F;" d="M38.241,218.366c0,0-1.614,0.412-4.121,0.694c-0.275,3.295-1.695,6.81-4.842,8.306
			c-1.995,0.948-4.24,0.873-6.361,0.444c-2.84-0.574-5.545-1.815-7.931-3.446c-4.284-2.927-7.949-7.441-9.773-12.312
			c-0.342-0.912-0.605-1.853-0.775-2.808c-2.854,10.301,8.086,28.305,34.958,21.339C37.911,222.494,38.241,218.366,38.241,218.366z"
			/>
	</g>
	<g>
		<g>
			<path style="fill:#CD8F5F;" d="M182.131,198.653c0,0,16.896,61.795,20.181,64.298c11.89-1.564,22.841,0.939,24.718,10.325
				c1.252,8.448-4.224,9.856-7.822,9.23c-2.816,5.632-9.7,7.196-16.74,4.85c-7.196,5.945-19.399,2.19-23.154-5.319
				c-8.917-2.66-8.552-3.442-10.847-11.994c-2.294-8.552-11.055-30.246-11.055-30.246L182.131,198.653z"/>
			<path style="fill:#99582B;" d="M193.836,290.525c-1.156,0-2.342-0.125-3.537-0.378c-4.922-1.04-9.183-4.067-11.149-7.912
				c-8.368-2.503-8.616-3.442-10.492-10.559c-0.13-0.493-0.267-1.015-0.416-1.571c-2.265-8.44-10.959-30.001-11.046-30.218
				c-0.028-0.069-0.022-0.146,0.017-0.209l24.718-41.145c0.048-0.081,0.141-0.119,0.233-0.112c0.094,0.013,0.17,0.081,0.195,0.171
				c5.786,21.162,17.344,61.521,20.028,64.114c13.898-1.8,23.196,2.128,24.875,10.526c0.53,3.577-0.065,6.226-1.766,7.886
				c-1.45,1.412-3.739,2.026-6.155,1.65c-2.765,5.309-9.485,7.252-16.822,4.853C200.161,289.524,197.117,290.525,193.836,290.525z
				 M157.674,239.819c0.675,1.677,8.833,22.007,11.021,30.164c0.15,0.556,0.288,1.079,0.417,1.572
				c1.863,7.07,2.058,7.808,10.269,10.258c0.063,0.018,0.114,0.061,0.143,0.119c1.882,3.764,6.048,6.735,10.872,7.754
				c4.493,0.951,8.84,0.035,11.922-2.511c0.062-0.052,0.145-0.069,0.224-0.042c7.225,2.409,13.835,0.505,16.455-4.731
				c0.046-0.093,0.144-0.148,0.251-0.127c0.873,0.153,3.878,0.492,5.917-1.496c1.588-1.548,2.136-4.06,1.632-7.467
				c-1.628-8.138-10.766-11.93-24.455-10.127c-0.063,0.005-0.123-0.009-0.173-0.046c-3.185-2.427-18.353-57.451-20.121-63.894
				L157.674,239.819z"/>
		</g>
		<g>
			<path style="fill:#AC6430;" d="M172.765,224.252c1.815,4.721,4.114,9.289,6.991,13.454c2.496,3.615,5.512,7.136,9.325,9.408
				c2.407,1.435,5.087,2.2,7.791,1.988c-6.123-18.929-14.742-50.449-14.742-50.449l-11.509,19.156
				C171.237,219.989,171.953,222.141,172.765,224.252z"/>
			<path style="fill:#571B09;" d="M195.983,249.372c-2.344,0-4.753-0.703-7.023-2.055c-3.309-1.973-6.295-4.984-9.399-9.476
				c-2.731-3.956-5.091-8.499-7.015-13.504l0,0c-0.81-2.107-1.535-4.281-2.15-6.462c-0.018-0.063-0.009-0.13,0.025-0.186
				l11.509-19.157c0.048-0.081,0.141-0.119,0.233-0.112c0.094,0.013,0.17,0.081,0.195,0.171c0.086,0.315,8.688,31.732,14.739,50.439
				c0.022,0.069,0.011,0.143-0.029,0.203c-0.04,0.06-0.106,0.098-0.177,0.104C196.589,249.36,196.287,249.372,195.983,249.372z
				 M170.876,217.844c0.605,2.135,1.315,4.262,2.109,6.324l0,0c1.91,4.971,4.253,9.482,6.964,13.406
				c3.063,4.434,6.004,7.402,9.252,9.339c2.383,1.42,4.931,2.105,7.354,1.975c-5.614-17.4-13.353-45.445-14.507-49.642
				L170.876,217.844z"/>
		</g>
		<path style="fill:#CD8F5F;" d="M227.03,273.277c-1.877-9.387-12.828-11.89-24.718-10.325c-0.511-0.39-1.353-2.217-2.409-5.024
			c-0.1,0.211-0.208,0.416-0.335,0.609c-0.867,1.322-2.468,1.885-3.916,2.306c-2.472,0.719-5.087,0.579-7.62,0.885
			c-1.171,0.142-2.386,0.344-3.464,0.843c-0.773,0.358-1.478,0.846-2.152,1.363c-1.153,0.885-2.276,2.065-3.691,2.519
			c-1.517,0.487-2.896-0.373-3.849-1.517c-1.218-1.462-1.984-3.374-2.706-5.117c-0.819-1.975-1.52-4-2.136-6.047
			c-0.609-2.026-1.136-4.079-1.543-6.156c-0.339-1.729-0.742-3.584-0.553-5.352c0.383-3.581,2.927-6.226,5.541-8.458
			c1.385-1.183,2.83-2.298,4.177-3.525c1.535-1.399,2.839-2.978,3.95-4.734c2.313-3.657,3.67-7.833,4.674-12.022
			c-2.438-8.611-4.15-14.87-4.15-14.87l-24.718,41.145c0,0,8.761,21.693,11.055,30.246s1.93,9.335,10.847,11.994
			c3.755,7.509,15.957,11.264,23.154,5.319c7.04,2.347,13.923,0.782,16.74-4.85C222.806,283.133,228.281,281.725,227.03,273.277z"/>
		<g>
			<path style="fill:#ECCEB0;" d="M227.03,273.277c-1.877-9.387-12.828-11.89-24.718-10.325c-0.043-0.033-0.089-0.081-0.136-0.133
				c-0.063,0.024-0.123,0.053-0.186,0.076c-2.869,1.028-6.046,0.665-8.851,1.947c-1.844,0.843-3.744,1.965-5.098,3.499
				c-0.485,0.549-1.006,1.273-0.855,2.049c0.186,0.962,1.225,1.515,2.046,1.854c0.241,0.1,0.113,0.413-0.005,0.567
				c-2.011,2.619-4.274,5.174-5.583,8.243c-0.613,1.438-0.974,2.995-0.896,4.563c0.012,0.242,0.036,0.481,0.067,0.718
				c5.314,4.385,14.018,5.678,19.654,1.023c7.04,2.347,13.923,0.782,16.74-4.85C222.806,283.133,228.281,281.725,227.03,273.277z"/>
			<path style="fill:#A57346;" d="M193.891,290.519c-4.108,0.001-8.261-1.558-11.225-4.004c-0.046-0.038-0.075-0.091-0.084-0.151
				c-0.032-0.242-0.056-0.488-0.069-0.736c-0.074-1.5,0.233-3.07,0.915-4.667c1.082-2.541,2.82-4.743,4.5-6.873
				c0.374-0.474,0.747-0.946,1.112-1.421c0.066-0.086,0.099-0.192,0.092-0.223c-0.828-0.329-1.965-0.915-2.178-2.009
				c-0.174-0.899,0.437-1.715,0.91-2.25c1.188-1.345,2.882-2.508,5.178-3.557c1.552-0.709,3.227-0.927,4.847-1.138
				c1.343-0.174,2.732-0.355,4.023-0.817l0.081-0.033c0.034-0.015,0.069-0.029,0.104-0.042c0.089-0.031,0.191-0.006,0.255,0.064
				c0.013,0.015,0.026,0.029,0.039,0.043c13.888-1.805,23.191,2.128,24.87,10.526c0.001,0.004,0.002,0.007,0.002,0.011
				c0.528,3.566-0.067,6.215-1.768,7.875c-1.45,1.412-3.739,2.026-6.155,1.65c-2.765,5.309-9.485,7.252-16.822,4.853
				C200.012,289.646,196.963,290.519,193.891,290.519z M183.036,286.212c5.074,4.133,13.643,5.623,19.282,0.964
				c0.062-0.052,0.145-0.069,0.224-0.042c7.225,2.409,13.835,0.505,16.455-4.731c0.046-0.093,0.144-0.148,0.251-0.127
				c0.873,0.153,3.878,0.492,5.917-1.496c1.587-1.547,2.135-4.058,1.633-7.462c-1.634-8.146-10.772-11.933-24.456-10.132
				c-0.063,0.005-0.124-0.008-0.174-0.047c-0.016-0.012-0.033-0.027-0.05-0.041c-0.016,0.006-0.033,0.013-0.05,0.018
				c-1.337,0.48-2.752,0.663-4.119,0.841c-1.586,0.206-3.225,0.419-4.713,1.099c-2.234,1.02-3.877,2.146-5.02,3.44
				c-0.443,0.501-0.934,1.162-0.801,1.85c0.169,0.871,1.169,1.376,1.906,1.681c0.135,0.056,0.23,0.162,0.266,0.296
				c0.076,0.286-0.131,0.577-0.174,0.632c-0.366,0.476-0.74,0.951-1.116,1.426c-1.661,2.106-3.379,4.283-4.438,6.766
				c-0.652,1.532-0.948,3.032-0.877,4.459C182.993,285.808,183.012,286.01,183.036,286.212z"/>
		</g>
		<path style="fill:#ECCEB0;" d="M226.39,277.415c-1.667,0.447-3.072-0.88-3.908-2.154c-1.541-2.35-3.482-4.281-6.262-4.807
			c1.628,2.091,3.048,4.536,2.845,7.255c-0.306,4.1-4.042,8.241-8.363,7.866c-1.122-0.097-2.209-0.475-3.165-1.07
			c-1-0.623-1.662-1.545-2.184-2.583c-0.545-1.083-0.985-2.183-1.882-3.033c-0.756-0.717-1.639-1.293-2.578-1.745
			c1.152,1.809,1.67,3.982,1.242,6.132c-0.43,2.159-1.825,4.08-3.841,5.009c-2.501,1.153-5.445,0.737-7.599-0.94
			c-2.266-1.763-3.573-4.724-3.333-7.585c0.242-2.887,2.15-5.411,4.17-7.45c-0.59-0.082-1.195-0.247-1.555-0.664
			c-0.391-0.453-0.296-1.1-0.051-1.601c0.603-1.228,2.063-2.062,3.203-2.711c1.521-0.866,3.097-1.413,4.794-1.84
			c2.335-0.588,4.706-1.021,7.037-1.623c1.23-0.318,2.469-0.654,3.655-1.111c0.184-0.071,0.357-0.154,0.534-0.232
			c-2.202-0.028-4.499,0.115-6.836,0.423c-0.043-0.033-0.089-0.081-0.136-0.133c-0.063,0.024-0.123,0.053-0.186,0.076
			c-2.869,1.028-6.046,0.665-8.851,1.947c-1.844,0.843-3.744,1.965-5.098,3.499c-0.485,0.549-1.006,1.273-0.855,2.049
			c0.186,0.962,1.225,1.515,2.046,1.854c0.241,0.1,0.113,0.413-0.005,0.567c-2.011,2.619-4.274,5.174-5.583,8.243
			c-0.613,1.438-0.974,2.995-0.896,4.563c0.012,0.242,0.036,0.481,0.067,0.718c5.315,4.385,14.018,5.678,19.654,1.023
			c7.04,2.347,13.923,0.782,16.74-4.85c2.967,0.516,7.201-0.362,7.896-5.418C226.883,277.228,226.649,277.346,226.39,277.415z"/>
		<g>
			<path style="fill:#A57346;" d="M202.785,262.634c-2.256,0.066-4.514,0.324-6.763,0.514c-2.057,0.174-4.196,0.232-6.141,0.995
				c-3.509,1.376-5.96,4.449-8.239,7.309c-1.42,1.782-2.878,3.556-4.68,4.969c-0.118,0.093-0.197,0.425,0.036,0.268
				c3.154-2.134,5.168-5.394,7.732-8.13c1.227-1.309,2.61-2.52,4.232-3.315c1.88-0.921,3.961-1.025,6.012-1.186
				c2.49-0.195,5.001-0.318,7.477-0.646C202.742,263.374,203.257,262.621,202.785,262.634z"/>
			<path style="fill:#A57346;" d="M202.555,277.645c-1.806-2.547-5.053-3.932-8.135-3.38c-0.116,0.021-0.377,0.363-0.17,0.357
				c2.843-0.085,5.711,1.154,7.418,3.468c1.854,2.511,1.907,5.729,0.8,8.55c-0.181,0.462,0.356,0.264,0.505,0.023
				C204.653,283.959,204.377,280.214,202.555,277.645z"/>
			<path style="fill:#A57346;" d="M219.476,274.572c-1.112-2.755-3.491-4.881-6.302-5.8c-1.615-0.528-3.304-0.64-4.977-0.353
				c-0.135,0.023-0.406,0.415-0.186,0.394c3.49-0.338,7.144,1.198,9.302,3.97c1.114,1.43,1.805,3.207,2.019,5.002
				c0.229,1.921-0.161,3.65-0.794,5.45c-0.196,0.557,0.444,0.36,0.627,0.042C220.64,280.717,220.559,277.256,219.476,274.572z"/>
		</g>
		<path style="fill:#AC6430;" d="M180.944,203.36c0.745,3.561,1.645,7.09,2.589,10.603c1.681,6.255,3.602,12.451,5.645,18.597
			c1.791,5.39,3.616,10.796,5.677,16.09c1.14,2.928,2.603,5.919,4.696,8.325c-5.854-16.023-17.42-58.323-17.42-58.323l-1.594,2.653
			C180.669,201.992,180.801,202.677,180.944,203.36z"/>
	</g>
	<g>
		<path style="fill:#AC6430;" d="M110.732,141.293c0,0-5.574,2.402-7.96,8.452c-2.386,6.049,0.426,10.906-2.641,15.933
			c-3.067,5.027-5.765,10.135-7.173,11.7c-1.408,1.564-15.331,8.448-21.746,12.516c-6.414,4.067-10.951,8.448-11.577,12.672
			c0,0-20.286-14.08-22.997,16.374c0,25.24,9.804,33.583,9.804,33.583s-11.264-6.883-22.736-2.086
			c-11.472,4.798-13.976,20.859-5.006,21.276c6.466,9.387,16.896,7.718,19.399,5.841c9.178,5.215,18.565-0.417,18.773-5.423
			c8.344-1.252,14.81-4.172,17.105-11.89c4.172,1.877,10.012,2.712,10.012,2.712s0.417,17.939,0.626,26.908
			c0.209,8.969,5.423,22.528,25.24,20.651c9.178,6.675,18.147,4.172,23.154-0.626c8.761,4.38,15.019-3.755,12.307-12.516
			c-2.712-8.761-12.098-13.141-19.608-14.601c-1.252-9.595-1.252-12.933-1.252-12.933s17.939-0.834,33.375-26.7
			c15.436-25.865,28.786-39.633,29.203-59.032c0.417-19.399-17.105-37.234-17.105-37.234L110.732,141.293z"/>
		<path style="fill:#571B09;" d="M121.374,314.827c-3.583,0.001-7.537-1.149-11.587-4.074c-7.887,0.731-14.147-0.903-18.596-4.858
			c-5.936-5.275-6.742-12.967-6.813-16.029l-0.621-26.711c-1.036-0.163-5.937-0.988-9.634-2.592
			c-2.079,6.642-7.349,10.282-17.03,11.77c-0.184,2.129-1.92,4.342-4.58,5.818c-4.343,2.408-9.715,2.288-14.4-0.32
			c-1.518,1.039-4.988,1.799-8.633,1.202c-3.077-0.504-7.459-2.144-10.91-7.093c-2.889-0.18-4.848-2.01-5.382-5.036
			c-0.979-5.543,2.976-13.57,10.425-16.685c9.218-3.858,18.388-0.189,21.677,1.426c-2.51-2.96-8.89-12.477-8.89-32.706
			c0.91-10.224,3.883-16.573,8.838-18.891c5.864-2.742,12.71,1.176,14.224,2.125c0.765-3.876,4.672-8.072,11.622-12.479
			c2.96-1.877,7.6-4.398,11.693-6.623c4.768-2.59,9.27-5.037,10.004-5.851c0.897-0.996,2.373-3.538,4.084-6.482
			c0.929-1.6,1.982-3.412,3.063-5.182c1.591-2.609,1.566-5.194,1.537-7.931c-0.025-2.498-0.052-5.081,1.086-7.965
			c2.395-6.07,8.03-8.557,8.087-8.581c0.036-0.016,0.074-0.023,0.115-0.018l59.196,5.577c0.055,0.006,0.106,0.03,0.146,0.07
			c0.176,0.178,17.586,18.128,17.171,37.403c-0.311,14.42-7.65,25.617-17.809,41.113c-3.475,5.301-7.414,11.31-11.427,18.034
			c-8.001,13.408-16.688,19.982-22.567,23.137c-5.653,3.033-9.77,3.572-10.77,3.662c0.023,0.878,0.181,4.492,1.223,12.516
			c14.886,2.957,18.78,12.016,19.621,14.73c1.474,4.763,0.412,9.55-2.705,12.195c-2.587,2.195-6.146,2.44-9.784,0.673
			C130.271,312.778,126.155,314.827,121.374,314.827z M109.854,310.275c0.05,0,0.098,0.016,0.139,0.045
			c9.323,6.782,18.136,3.912,22.852-0.605c0.072-0.069,0.179-0.085,0.267-0.04c3.513,1.755,6.947,1.56,9.417-0.539
			c2.973-2.523,3.979-7.115,2.56-11.697c-0.823-2.662-4.659-11.569-19.427-14.441c-0.099-0.019-0.175-0.1-0.188-0.2
			c-1.239-9.501-1.253-12.93-1.253-12.963c0-0.126,0.098-0.229,0.224-0.235c0.044-0.002,4.528-0.251,10.828-3.638
			c5.818-3.129,14.419-9.649,22.356-22.947c4.018-6.733,7.96-12.746,11.438-18.051c10.116-15.431,17.425-26.58,17.732-40.865
			c0.398-18.513-15.859-35.835-16.978-37.003l-59.047-5.563c-0.571,0.265-5.585,2.726-7.783,8.298
			c-1.104,2.799-1.078,5.335-1.053,7.788c0.029,2.806,0.056,5.458-1.605,8.18c-1.079,1.767-2.13,3.577-3.058,5.174
			c-1.795,3.089-3.212,5.529-4.142,6.561c-0.786,0.875-5.115,3.227-10.127,5.95c-4.087,2.221-8.72,4.738-11.667,6.607
			c-7.043,4.466-10.902,8.675-11.47,12.508c-0.012,0.08-0.064,0.149-0.139,0.181c-0.075,0.031-0.16,0.025-0.228-0.023
			c-0.076-0.051-7.708-5.257-14.063-2.282c-4.792,2.243-7.674,8.462-8.566,18.485c0.001,24.793,9.625,33.3,9.722,33.383
			c0.094,0.08,0.11,0.218,0.038,0.317c-0.073,0.101-0.21,0.128-0.312,0.063c-0.111-0.067-11.297-6.766-22.523-2.069
			c-7.241,3.028-11.091,10.806-10.144,16.17c0.507,2.873,2.304,4.526,5.057,4.654c0.073,0.004,0.141,0.041,0.183,0.102
			c3.367,4.886,7.657,6.498,10.664,6.991c4.067,0.663,7.309-0.387,8.4-1.205c0.075-0.057,0.175-0.062,0.257-0.017
			c4.569,2.597,9.829,2.744,14.07,0.391c2.6-1.442,4.267-3.595,4.352-5.621c0.005-0.112,0.089-0.206,0.2-0.222
			c9.721-1.458,14.937-5.074,16.914-11.724c0.019-0.065,0.065-0.118,0.127-0.147c0.063-0.028,0.134-0.028,0.195,0
			c4.093,1.841,9.891,2.685,9.949,2.693c0.114,0.016,0.199,0.112,0.202,0.227l0.626,26.908c0.07,3.001,0.858,10.536,6.655,15.688
			c4.365,3.879,10.527,5.476,18.327,4.733C109.839,310.275,109.846,310.275,109.854,310.275z"/>
	</g>
	<path style="fill:#AC6430;" d="M169.437,148.098c1.752,2.734,3.453,5.49,5.258,8.19c3.412,5.102,6.349,10.709,7.96,16.655
		c0.838,3.094,1.461,6.283,1.923,9.454c0.453,3.11,0.694,6.257,0.478,9.398c-0.175,2.545-0.58,5.061-1.134,7.546
		c1.878-4.898,2.994-9.85,3.11-15.237c0.417-19.399-17.104-37.234-17.104-37.234l-1.382-0.13
		C168.846,147.191,169.145,147.643,169.437,148.098z"/>
	<g>
		<path style="fill:#CD8F5F;" d="M125.706,282.768c-1.252-9.595-1.252-12.933-1.252-12.933s0.228-0.013,0.633-0.065
			c-0.346-0.928-0.641-1.879-0.874-2.852c-0.517-2.166,0.358-4.935,0.067-7.14c-0.302-2.296,0.186-6.854,0-9.162
			c-0.714-8.87-0.748-14.933-0.5-23.82c-1.316,2.662-4.02,5.503-4.787,8.354c-0.629,2.34-1.013,4.732-1.473,7.109
			c-0.775,4.006-1.687,8.138-3.774,11.694c-2.073,3.531-5.385,6.201-9.433,7.076c-3.932,0.85-8.23,0.241-11.953-1.189
			c-3.458-1.328-6.79-3.641-8.427-7.043c-0.295,1.418-0.479,2.858-0.592,4.303c-0.147,1.877-0.206,3.793-0.511,5.66
			c0.714,0.128,1.157,0.192,1.157,0.192s0.417,17.939,0.626,26.908c0.209,8.969,5.424,22.528,25.24,20.651
			c9.178,6.675,18.147,4.172,23.154-0.626c8.761,4.38,15.019-3.755,12.307-12.516C142.602,288.608,133.216,284.228,125.706,282.768z
			"/>
		<path style="fill:#99582B;" d="M121.374,314.827c-3.583,0.001-7.537-1.149-11.587-4.074c-7.887,0.731-14.147-0.903-18.596-4.858
			c-5.936-5.275-6.742-12.967-6.813-16.029l-0.621-26.711c-0.197-0.031-0.532-0.086-0.968-0.164
			c-0.127-0.023-0.211-0.142-0.191-0.269c0.222-1.358,0.314-2.767,0.403-4.129c0.033-0.505,0.066-1.01,0.106-1.512
			c0.124-1.583,0.319-3,0.596-4.332c0.021-0.099,0.102-0.174,0.202-0.186c0.099-0.008,0.197,0.041,0.241,0.131
			c1.422,2.956,4.369,5.416,8.299,6.925c4.011,1.541,8.208,1.962,11.819,1.179c3.834-0.83,7.13-3.303,9.279-6.966
			c2.064-3.515,2.983-7.668,3.747-11.62c0.107-0.554,0.21-1.11,0.313-1.666c0.334-1.798,0.679-3.657,1.163-5.459
			c0.474-1.766,1.666-3.514,2.819-5.204c0.757-1.11,1.472-2.159,1.985-3.194c0.049-0.098,0.156-0.155,0.267-0.124
			c0.107,0.027,0.181,0.124,0.178,0.234c-0.242,8.664-0.232,14.723,0.499,23.795c0.085,1.065,0.031,2.564-0.027,4.153
			c-0.067,1.851-0.137,3.766,0.026,4.998c0.135,1.028,0.023,2.182-0.086,3.299c-0.128,1.314-0.259,2.673,0.014,3.817
			c0.224,0.939,0.516,1.89,0.866,2.825c0.025,0.067,0.018,0.142-0.019,0.204c-0.037,0.061-0.1,0.103-0.171,0.112
			c-0.175,0.022-0.317,0.038-0.424,0.048c0.023,0.876,0.18,4.49,1.223,12.518c14.886,2.957,18.78,12.016,19.621,14.73
			c1.474,4.763,0.412,9.55-2.705,12.195c-2.587,2.195-6.148,2.44-9.784,0.673C130.271,312.778,126.155,314.827,121.374,314.827z
			 M109.854,310.275c0.05,0,0.098,0.016,0.139,0.045c9.323,6.782,18.136,3.912,22.852-0.605c0.072-0.069,0.179-0.085,0.267-0.04
			c3.513,1.755,6.947,1.56,9.417-0.539c2.973-2.523,3.979-7.115,2.56-11.697c-0.823-2.662-4.659-11.569-19.427-14.441
			c-0.099-0.019-0.175-0.1-0.188-0.2c-1.239-9.501-1.253-12.93-1.253-12.963c0-0.125,0.098-0.228,0.222-0.235
			c0.004,0,0.117-0.007,0.323-0.028c-0.312-0.862-0.572-1.736-0.779-2.6c-0.291-1.219-0.155-2.619-0.024-3.971
			c0.106-1.09,0.215-2.216,0.086-3.192c-0.167-1.27-0.097-3.205-0.029-5.076c0.057-1.574,0.111-3.061,0.028-4.097
			c-0.704-8.747-0.742-14.698-0.527-22.863c-0.453,0.776-0.988,1.56-1.545,2.377c-1.131,1.658-2.3,3.372-2.754,5.06
			c-0.479,1.785-0.822,3.635-1.155,5.424c-0.103,0.557-0.207,1.113-0.314,1.67c-0.772,3.991-1.701,8.189-3.802,11.769
			c-2.216,3.776-5.621,6.328-9.585,7.186c-3.699,0.798-7.991,0.375-12.087-1.199c-3.775-1.45-6.674-3.764-8.241-6.559
			c-0.206,1.122-0.357,2.312-0.459,3.618c-0.039,0.5-0.072,1.003-0.105,1.506c-0.085,1.297-0.173,2.636-0.372,3.945
			c0.573,0.099,0.921,0.15,0.923,0.151c0.113,0.017,0.198,0.112,0.201,0.227l0.626,26.908c0.07,3.001,0.858,10.536,6.655,15.688
			c4.365,3.879,10.527,5.476,18.327,4.733C109.839,310.275,109.846,310.275,109.854,310.275z"/>
	</g>
	<path style="fill:#ECCEB0;" d="M177.535,196.75c0.112-3.342-0.148-6.695-0.966-9.943c-0.759-3.012-1.998-5.869-3.473-8.596
		c-1.61-2.976-3.494-5.802-5.384-8.605c-2.175-3.226-4.493-6.324-5.932-9.972c-1.343-3.402-1.893-7.088-1.347-10.719
		c0.146-0.973,0.366-1.934,0.648-2.878l-40.872-3.851c1.676,4.637,3.205,9.351,4.45,14.112c1.427,5.459,2.597,11.194,2.459,16.865
		c-0.23,9.455-8.711,15.807-11.534,24.358c-0.891,2.7-1.25,5.617-1.08,8.451c0.177,2.954,0.785,6.203,2.059,8.89
		c1.075,2.267,2.729,4.201,4.222,6.196c1.31,1.75,2.715,3.692,3.039,5.911c0.386,2.644-0.216,5.38-0.449,8.01
		c-0.278,3.129,0.206,6.309,0.381,9.436c0.275,4.928,0.07,9.822,0.011,14.749c-0.043,3.558,0.075,7.221,1.219,10.619
		c3.057-0.37,18.959-3.381,32.845-26.648c6.107-10.233,11.882-18.568,16.664-26.112C176.13,210.383,177.306,203.561,177.535,196.75z
		"/>
	<path style="fill:#ECCEB0;" d="M176.569,186.807c-0.759-3.012-1.998-5.869-3.473-8.596c-1.61-2.976-3.494-5.802-5.384-8.605
		c-2.175-3.226-4.493-6.324-5.932-9.972c-1.343-3.402-1.893-7.088-1.347-10.719c0.146-0.973,0.366-1.934,0.648-2.878l-1.52-0.143
		c-0.27,2.725-0.169,5.464,0.33,8.198c0.382,2.094,0.964,4.154,1.681,6.158c0.886,2.478,1.982,4.886,3.207,7.213
		c0.455,0.865,0.925,1.717,1.448,2.543c2.066,3.263,3.986,6.615,5.494,10.177c1.541,3.639,2.549,7.429,3.149,11.331
		c1.178,7.663,0.936,15.473-0.451,23.092c-0.229,1.26-0.498,2.511-0.783,3.758c0.286-0.446,0.579-0.899,0.858-1.339
		c1.636-6.64,2.812-13.462,3.041-20.274C177.647,193.408,177.387,190.055,176.569,186.807z"/>
	<path style="opacity:0.5;fill:#AC6430;" d="M174.494,217.024c0,0-2.272,3.87-5.702,8.919c-3.43,5.048-14.304,24.595-22.524,32.556
		c-8.22,7.961-19.327,11.37-21.511,11.384c-1.089-5.549-1.168-8.909-1.034-17.091c0.135-8.211-1.23-15.016-0.281-24.217
		c0.418-4.048-4.232-7.503-5.61-11.333c-0.661-1.835-2.365-4.093-3.03-6.957c-0.603-2.596,0.023-6.653-1.557-8.829
		c-1.281-1.764-3.298-3.101-5.562-2.908c-1.986,0.17-3.427,1.694-4.374,3.328c-1.143,1.972-1.798,4.225-2.305,6.434
		c-0.64,2.787-1.116,5.642-1.36,8.489c-0.354,4.133-0.262,8.286-0.182,12.428c0.078,4.065,0.16,8.142-0.261,12.192
		c-0.42,4.03-1.165,8.018-1.556,12.052c-0.369,3.817-0.398,7.698,0.498,11.448c0.531,2.222,1.4,4.453,3.155,5.994
		c1.395,1.225,3.198,1.768,4.962,2.214c2.533,0.641,4.989,1.298,7.383,2.374c3.96,1.779,7.724,4.092,11.827,5.414
		c0.073,0.591,0.151,1.205,0.236,1.853c7.509,1.46,16.896,5.841,19.608,14.602c2.712,8.761-3.546,16.896-12.307,12.516
		c-5.006,4.798-13.976,7.301-23.154,0.626c-19.816,1.877-25.031-11.681-25.24-20.651c-0.209-8.969-0.626-26.908-0.626-26.908
		s-5.841-0.834-10.012-2.712c-2.295,7.718-8.761,10.638-17.105,11.89c-0.209,5.006-9.595,10.638-18.773,5.423
		c-2.503,1.877-12.933,3.546-19.399-5.841c-8.969-0.417-6.466-16.479,5.006-21.276c11.473-4.798,22.737,2.086,22.737,2.086
		s-4.867-4.155-7.742-15.437c1.669,3.391,3.949,6.449,7.079,8.516c3.066,2.025,6.682,2.721,10.306,2.258
		c0.417-0.053,0.446-0.733,0.261-1.012c-1.999-3.017-2.658-6.695-2.558-10.264c0.105-3.762,1.055-7.536,2.676-10.929
		c0.649-1.359,1.418-2.657,2.32-3.859c-0.588,3.736-0.058,7.745,0.829,11.334c1.1,4.454,3.035,9.143,6.546,12.243
		c2.876,2.54,7.177,3.653,10.556,1.447c3.324-2.17,5.093-6.338,6.311-9.952c1.352-4.011,2.098-8.165,2.721-12.341
		c0.892-5.986,1.611-12.356,0.138-18.309c-1.037-4.19-3.772-7.832-7.539-9.971c-2.496-1.418-6.409-2.455-8.378,0.365
		c-1.143,1.637-1.243,3.817-1.103,5.74c0.199,2.738,1.181,5.468,2.042,8.054c1.806,5.423,4.291,11.369,3.18,17.193
		c-0.137,0.72-0.339,1.421-0.595,2.101c-1.282-7.087-4.481-13.876-8.523-19.767c-2.047-2.984-4.41-5.847-7.072-8.387
		c1.085,0.567,1.739,1.02,1.739,1.02c0.626-4.224,5.163-8.605,11.577-12.672c6.414-4.068,20.338-10.951,21.746-12.516
		c1.408-1.564,4.106-6.673,7.173-11.699c3.067-5.027,0.256-9.884,2.641-15.933c2.386-6.049,7.96-8.452,7.96-8.452l59.196,5.578
		c0,0,7.984,8.136,13.045,19.39c-2.606-0.562-5.363-0.099-7.945,0.864c-4.391,1.638-8.353,4.295-12.313,6.754
		c-2.738,1.7-5.565,3.177-8.605,4.267c-3.18,1.14-6.494,1.863-9.856,2.181c-3.212,0.305-6.437-0.294-9.655-0.268
		c-3.183,0.025-6.417,0.693-9.013,2.631c-3.617,2.699-5.611,6.746-5.939,11.204c-0.346,4.706,0.827,9.43,2.19,13.897
		c1.441,4.722,3.276,9.315,4.687,14.046C131.911,239.908,146.449,257.731,174.494,217.024z"/>
	<g>
		<path style="fill:#ECCEB0;" d="M69.884,258.397c-1.089-0.843-2.186-1.907-3.541-2.303c-1.206-0.353-2.553-0.02-3.757,0.181
			c-2.14,0.358-4.279,0.698-6.457,0.612c-2.088-0.082-4.094-0.592-6.015-1.401C48.58,254.839,47.132,254,45.801,253
			c-0.724-0.544-1.399-1.142-2.021-1.799c-4.007-1.724-11.986-4.147-20.075-0.765c-11.472,4.798-13.976,20.859-5.006,21.276
			c6.466,9.387,16.896,7.718,19.399,5.841c9.178,5.215,18.565-0.417,18.773-5.423c8.098-1.215,14.416-4.015,16.879-11.235
			C72.534,259.963,71.097,259.336,69.884,258.397z"/>
		<path style="fill:#A57346;" d="M45.766,279.876c-2.576,0-5.208-0.684-7.653-2.044c-1.518,1.039-4.988,1.799-8.633,1.202
			c-3.077-0.504-7.459-2.144-10.91-7.093c-2.889-0.18-4.848-2.01-5.382-5.036c-0.979-5.543,2.976-13.57,10.425-16.685
			c8.156-3.411,16.192-0.984,20.258,0.765c0.029,0.013,0.056,0.031,0.078,0.054c0.603,0.637,1.273,1.233,1.992,1.773
			c1.327,0.998,2.761,1.824,4.263,2.457c1.997,0.842,3.993,1.307,5.933,1.383c2.248,0.091,4.553-0.299,6.409-0.609
			c0.165-0.029,0.333-0.058,0.503-0.088c1.061-0.191,2.263-0.408,3.359-0.087c1.136,0.333,2.075,1.096,2.982,1.834
			c0.214,0.174,0.426,0.345,0.638,0.51c0.6,0.464,1.275,0.861,1.927,1.246c0.651,0.383,1.325,0.78,1.939,1.251
			c0.08,0.061,0.112,0.167,0.079,0.263c-2.181,6.394-7.391,9.904-16.879,11.362c-0.184,2.129-1.92,4.342-4.58,5.818
			C50.437,279.303,48.124,279.876,45.766,279.876z M38.098,277.318c0.04,0,0.08,0.01,0.116,0.03
			c4.569,2.597,9.829,2.744,14.07,0.391c2.6-1.442,4.267-3.595,4.352-5.621c0.005-0.112,0.089-0.206,0.2-0.222
			c9.33-1.399,14.47-4.77,16.636-10.917c-0.556-0.41-1.165-0.769-1.756-1.117c-0.664-0.391-1.352-0.797-1.977-1.28l0,0
			c-0.214-0.165-0.429-0.34-0.646-0.516c-0.871-0.708-1.772-1.441-2.817-1.747c-0.99-0.29-2.084-0.092-3.143,0.097
			c-0.172,0.031-0.342,0.061-0.509,0.089c-1.876,0.315-4.209,0.71-6.505,0.617c-1.997-0.078-4.048-0.556-6.097-1.42
			c-1.537-0.648-3.006-1.494-4.364-2.514c-0.727-0.547-1.405-1.148-2.017-1.792c-4.014-1.718-11.885-4.076-19.846-0.744
			c-7.241,3.028-11.091,10.806-10.144,16.17c0.507,2.873,2.304,4.526,5.057,4.654c0.073,0.004,0.141,0.041,0.183,0.102
			c3.367,4.886,7.657,6.498,10.664,6.991c4.067,0.663,7.309-0.387,8.4-1.205C37.999,277.334,38.049,277.318,38.098,277.318z"/>
	</g>
	<path style="fill:#ECCEB0;" d="M69.884,258.397c-1.089-0.843-2.186-1.907-3.541-2.303c-1.206-0.353-2.553-0.02-3.757,0.181
		c-2.14,0.358-4.279,0.698-6.457,0.612c-2.088-0.082-4.094-0.592-6.015-1.401C48.58,254.839,47.132,254,45.801,253
		c-0.724-0.544-1.399-1.142-2.021-1.799c-1.058-0.455-2.399-0.957-3.94-1.39c0.458,1.395,1.081,2.725,1.981,3.902
		c2.151,2.811,5.53,4.292,8.955,4.827c1.783,0.278,3.591,0.348,5.389,0.459c1.294,0.08,2.622,0.124,3.89,0.414
		c1.284,0.294,2.566,0.946,3.133,2.201c0.584,1.293,0.21,2.61-0.927,3.45c-1.041,0.769-2.272,0.999-3.534,0.799
		c-0.601-0.095-1.555-0.582-1.966,0.081c-0.365,0.589-0.454,1.423-0.539,2.09c-0.101,0.799-0.15,1.605-0.312,2.396
		c-0.294,1.441-0.989,2.789-1.97,3.881c-1.818,2.024-4.599,3.434-7.351,3.379c-2.608-0.052-5.064-1.612-5.832-4.162
		c-0.674-2.238-0.007-4.787,1.181-6.73c0.666-1.089,1.569-2.096,2.657-2.761c-1.071-0.033-2.143,0.027-3.185,0.223
		c-0.952,0.179-1.952,0.471-2.723,1.08c-0.793,0.627-1.34,1.493-1.779,2.39c-0.79,1.615-1.292,3.366-2.312,4.864
		c-1.08,1.586-2.889,2.686-4.825,2.744c-2.01,0.06-3.926-0.94-5.416-2.218c-1.19-1.021-2.09-2.311-2.525-3.825
		c-1.528-5.307,2.962-11.314,8.229-12.356c-2.3-0.851-5.049-0.707-7.096,0.631c-1.769,1.156-2.611,3.143-3.626,4.909
		c-1.098,1.912-3.032,4.866-5.657,4.141c-0.115-0.032-0.204-0.09-0.31-0.131c0.388,2.92,2.12,5.074,5.328,5.224
		c6.466,9.387,16.896,7.718,19.399,5.841c9.178,5.215,18.565-0.417,18.773-5.423c8.098-1.215,14.416-4.015,16.879-11.235
		C72.534,259.963,71.097,259.336,69.884,258.397z"/>
	<g>
		<path style="fill:#ECCEB0;" d="M127.902,283.275c-0.202,0.009-0.404,0.027-0.606,0.029c-1.448,0.014-2.677-0.282-3.966-0.94
			c-1.475-0.753-2.816-1.512-4.455-1.859c-2.981-0.632-6.119-0.612-9.073,0.152c-5.73,1.483-10.447,5.348-14.522,9.48
			c-3.046,3.089-6.048,6.753-7.238,11.01c-0.043,0.153-0.078,0.308-0.115,0.462c3.461,5.63,10.086,10.022,21.928,8.9
			c9.178,6.675,18.147,4.172,23.154-0.626c8.761,4.38,15.019-3.755,12.307-12.516C142.861,289.444,134.949,285.112,127.902,283.275z
			"/>
		<path style="fill:#A57346;" d="M121.374,314.827c-3.583,0.001-7.537-1.149-11.587-4.074c-12.904,1.197-19.126-4.241-22.063-9.019
			c-0.033-0.053-0.043-0.117-0.028-0.177l0.022-0.095c0.029-0.126,0.06-0.252,0.094-0.376c1.299-4.645,4.787-8.566,7.298-11.113
			c3.549-3.598,8.419-7.935,14.631-9.543c2.918-0.754,6.096-0.809,9.181-0.153c1.479,0.313,2.706,0.946,4.004,1.617l0.509,0.262
			c1.263,0.646,2.453,0.919,3.857,0.914c0.129-0.001,0.256-0.009,0.385-0.016l0.212-0.012c0.023-0.002,0.047,0.002,0.071,0.007
			c4.306,1.123,14.638,4.758,17.577,14.251c1.474,4.763,0.412,9.55-2.705,12.195c-2.587,2.195-6.148,2.44-9.784,0.673
			C130.271,312.778,126.155,314.827,121.374,314.827z M109.854,310.275c0.05,0,0.098,0.016,0.139,0.045
			c9.323,6.782,18.136,3.912,22.852-0.605c0.072-0.069,0.179-0.085,0.267-0.04c3.513,1.755,6.947,1.56,9.417-0.539
			c2.973-2.523,3.979-7.115,2.56-11.697c-2.86-9.242-12.959-12.813-17.211-13.926l-0.172,0.009c-0.168,0.01-0.338,0.02-0.509,0.018
			c-1.441,0-2.671-0.3-3.975-0.967l-0.511-0.263c-1.269-0.656-2.468-1.275-3.886-1.576c-3.016-0.638-6.117-0.587-8.966,0.15
			c-6.1,1.579-10.907,5.862-14.414,9.418c-2.473,2.509-5.91,6.37-7.179,10.909c-0.033,0.118-0.062,0.238-0.089,0.358l0,0
			c5.217,8.395,14.65,9.368,21.655,8.706C109.839,310.275,109.846,310.275,109.854,310.275z"/>
	</g>
	<path style="fill:#ECCEB0;" d="M145.851,302.722c-1.221,0.475-2.452,0.366-3.693,0.042c-1.83-0.478-2.757-1.881-3.21-3.621
		c-0.221-0.849-0.387-1.714-0.701-2.536c-0.361-0.944-1.002-1.803-1.689-2.536c-2.716-2.892-6.821-3.265-10.535-2.601
		c2.29,1.869,3.971,4.519,4.862,7.314c0.722,2.263,1.048,5.167-0.451,7.204c-1.831,2.489-5.591,2.448-8.288,1.737
		c-1.812-0.478-3.283-1.61-4.329-3.149c-1.039-1.528-1.702-3.263-2.586-4.877c-0.502-0.917-1.07-1.806-1.786-2.573
		c-0.786-0.842-1.754-1.56-2.715-2.191c-2.007-1.318-4.299-2.194-6.692-2.303c1.36,1.275,2.468,2.798,3.033,4.607
		c0.561,1.794,0.504,3.751-0.243,5.482c-1.211,2.803-4.172,4.674-7.245,4.183c-3.879-0.62-6.868-4.649-7.392-8.364
		c-0.309-2.193,0.198-4.311,1.112-6.282c-2.297,2.609-4.334,5.567-5.264,8.891c-0.043,0.153-0.078,0.308-0.115,0.462
		c3.461,5.63,10.086,10.022,21.928,8.9c9.178,6.675,18.147,4.172,23.154-0.626c6.918,3.459,12.27-0.887,12.883-7.182
		C145.877,302.709,145.865,302.717,145.851,302.722z"/>
	<g>
		<g>
			<path style="fill:#571B09;" d="M93.375,185.83c-2.902,9.826-2.091,20.168-3.454,30.225c-1.394,10.285-4.717,20.191-6.199,30.46
				c-0.405,2.808-0.674,5.639-0.732,8.477c-0.058,2.823-0.065,5.855,0.67,8.598c0.113,0.421,0.808-0.298,0.791-0.567
				c-0.16-2.572-0.504-5.102-0.497-7.688c0.007-2.603,0.207-5.201,0.532-7.783c0.643-5.106,1.771-10.134,2.929-15.143
				c1.156-4.998,2.344-9.997,3.106-15.074c0.738-4.919,0.917-9.878,1.138-14.841c0.25-5.632,0.579-11.323,2.022-16.798
				C93.741,185.467,93.41,185.711,93.375,185.83z"/>
		</g>
		<path style="fill:#571B09;" d="M64.198,207.491c-0.674-0.963-1.385-1.9-2.133-2.807c-0.773-0.938-1.607-2.124-2.644-2.776
			c-0.196-0.124-0.616,0.303-0.496,0.496c0.542,0.878,1.38,1.592,2.055,2.371c0.712,0.823,1.395,1.671,2.047,2.543
			c1.309,1.753,2.485,3.605,3.524,5.53c2.053,3.804,3.564,7.882,4.488,12.104c0.525,2.4,0.895,4.837,1.056,7.29
			c0.008,0.126,0.219-0.064,0.217-0.148C72.185,223.302,69.233,214.681,64.198,207.491z"/>
		<path style="fill:#571B09;" d="M75.427,259.785c-2.673-0.115-4.698-1.833-6.563-3.578c-1.745-1.633-3.35-3.415-4.799-5.315
			c-2.92-3.828-5.198-8.136-6.768-12.686c-0.873-2.528-1.538-5.137-1.951-7.78c-0.02-0.129-0.327,0.128-0.314,0.243
			c1.064,9.815,5.668,19.049,12.761,25.909c1.878,1.816,4.433,4.399,7.299,3.822C75.254,260.369,75.722,259.798,75.427,259.785z"/>
		<path style="fill:#571B09;" d="M95.149,174.577c-1.532,1.472-2.767,3.297-4.081,4.961c-1.368,1.734-2.758,3.455-4.262,5.074
			c-2.76,2.969-5.949,5.617-9.715,7.2c-0.108,0.045-0.306,0.387-0.088,0.31c3.809-1.341,6.996-3.88,9.768-6.764
			c1.565-1.628,2.993-3.386,4.395-5.155c0.724-0.914,1.441-1.833,2.165-2.747c0.697-0.88,1.438-1.732,2.061-2.666
			C95.556,174.547,95.367,174.368,95.149,174.577z"/>
	</g>
	<g>
		<path style="fill:#A57346;" d="M112.145,301.938c-0.201-2.929-1.6-5.644-3.798-7.579c-1.238-1.089-2.695-1.846-4.289-2.257
			c-0.09-0.023-0.279,0.215-0.171,0.255c3.261,1.22,5.98,3.843,7.126,7.151c1.276,3.686,0.337,7.54-1.942,10.602
			c-0.244,0.328,0.115,0.398,0.331,0.163C111.417,308.081,112.347,304.88,112.145,301.938z"/>
		<path style="fill:#A57346;" d="M134.814,301.439c-0.567-3.132-2.406-5.835-4.738-7.941c-1.388-1.253-2.931-2.353-4.628-3.146
			c-0.101-0.047-0.325,0.197-0.231,0.267c1.568,1.162,3.184,2.257,4.593,3.617c1.4,1.352,2.625,2.913,3.456,4.679
			c0.789,1.676,1.183,3.538,1.111,5.391c-0.076,1.963-0.778,3.655-1.872,5.261c-0.247,0.363,0.122,0.422,0.355,0.177
			C134.889,307.609,135.319,304.229,134.814,301.439z"/>
	</g>
	<g>
		<path style="fill:#A57346;" d="M31.615,257.13c-3.177-0.574-6.459,0.416-8.949,2.439c-2.533,2.058-4.009,5.168-4.051,8.427
			c-0.023,1.82,0.399,3.677,1.488,5.158c0.117,0.159,0.487-0.266,0.419-0.42c-1.229-2.784-1.62-5.848-0.506-8.743
			c1.087-2.826,3.425-4.866,6.252-5.865c1.638-0.578,3.414-0.812,5.147-0.696C31.523,257.439,31.747,257.154,31.615,257.13z"/>
		<path style="fill:#A57346;" d="M47.873,263.322c-2.772-0.501-5.634,0.363-7.806,2.128c-2.21,1.796-3.497,4.508-3.534,7.351
			c-0.02,1.587,0.348,3.208,1.298,4.5c0.102,0.138,0.424-0.232,0.365-0.366c-1.072-2.429-1.413-5.101-0.441-7.627
			c0.948-2.465,2.988-4.245,5.453-5.116c1.429-0.505,2.978-0.708,4.49-0.607C47.792,263.591,47.988,263.343,47.873,263.322z"/>
	</g>
	<path style="fill:#AC6430;" d="M104.998,157.208c2.371,2.67,5.386,4.761,8.547,6.388c3.547,1.827,7.405,3.07,11.288,3.957
		c3.867,0.884,7.827,1.349,11.793,1.385c7.777,0.071,15.489-1.489,22.726-4.305c6.141-2.389,11.893-5.663,17.245-9.492
		c-3.564-5.105-6.669-8.272-6.669-8.272l-59.196-5.578c0,0-5.574,2.402-7.96,8.452c-0.391,0.992-0.633,1.949-0.794,2.882
		C102.749,154.277,103.761,155.815,104.998,157.208z"/>
	<g>
		<g>
			<g>
				<g>
					<path style="fill:#AC6430;" d="M241.456,80.249c-7.923-10.318-11.423-14.371-18.056-30.769
						C217.688,34.187,200,35.293,200,35.293c1.055,2.077,1.955,4.247,2.721,6.474c14.455-0.155,15.333,14.452,14.682,24.985
						c-0.694,11.223-1.558,25.29-1.558,25.29c3.132,25.795,13.634,24.136,23.4,15.845C249.563,97.2,249.378,90.567,241.456,80.249z"
						/>
					<path style="fill:#571B09;" d="M228.007,113.561c-1.012,0-1.971-0.177-2.875-0.531c-4.86-1.902-8.063-8.954-9.52-20.96
						c-0.002-0.043,0.862-14.109,1.556-25.333c0.637-10.289-0.84-17.17-4.515-21.037c-2.373-2.499-5.714-3.754-9.929-3.697
						c-0.126-0.01-0.192-0.063-0.225-0.159c-0.788-2.289-1.699-4.457-2.708-6.444c-0.036-0.071-0.034-0.154,0.006-0.223
						c0.039-0.069,0.11-0.113,0.189-0.118c0.181-0.01,17.928-0.941,23.635,14.34c6.224,15.387,9.71,19.914,16.654,28.93l1.368,1.778
						c8.3,10.81,7.759,17.6-2.228,27.944C235.094,111.719,231.274,113.561,228.007,113.561z M202.944,41.53
						c4.245,0,7.625,1.293,10.05,3.845c3.77,3.968,5.289,10.965,4.645,21.391c-0.694,11.222-1.557,25.289-1.557,25.289
						c1.433,11.779,4.537,18.703,9.223,20.536c3.65,1.428,8.289-0.215,13.789-4.885c9.878-10.232,10.39-16.618,2.177-27.315
						l-1.367-1.778c-6.971-9.051-10.469-13.594-16.72-29.047c-5.136-13.752-20.255-14.095-22.806-14.052
						c0.93,1.868,1.773,3.889,2.512,6.014C202.906,41.53,202.926,41.53,202.944,41.53z"/>
				</g>
				<path style="fill:#AC6430;" d="M219.939,45.554c2.93,5.468,5.025,11.319,7.488,17c1.222,2.821,2.543,5.606,4.1,8.259
					c0.757,1.29,1.57,2.549,2.45,3.759c1.048,1.441,2.201,2.8,3.251,4.241c4.355,5.977,7.694,12.915,8.546,20.322
					c2.972-6.257,1.223-11.671-4.317-18.885c-7.923-10.318-11.423-14.371-18.056-30.769c-1.548-4.146-3.979-7.079-6.697-9.163
					C217.893,41.99,218.97,43.745,219.939,45.554z"/>
				<path style="opacity:0.5;fill:#AC6430;" d="M243.822,83.595c-0.053,0.388-0.106,0.776-0.17,1.162
					c-0.552,3.351-1.521,7.082-3.936,9.61c-2.302,2.411-5.551,2.581-8.538,1.424c-1.8-0.697-3.251-1.77-4.392-3.336
					c-1.208-1.659-1.947-3.62-2.485-5.586c-1.331-4.865-1.517-10.023-1.672-15.036c-0.149-4.822-0.031-9.711-0.638-14.505
					c-0.202-1.598-0.507-3.129-1.214-4.584c-0.852-1.753-1.867-3.425-2.85-5.106c-1.126-1.926-2.252-3.855-3.257-5.847
					c-0.608-1.204-1.191-2.453-1.636-3.741C206.598,34.887,200,35.293,200,35.293c1.055,2.077,1.955,4.247,2.721,6.474
					c14.455-0.155,15.333,14.452,14.682,24.985c-0.694,11.223-1.558,25.29-1.558,25.29c3.132,25.795,13.634,24.136,23.399,15.845
					C248.404,98.4,249.282,92.106,243.822,83.595z"/>
				<g>
					<path style="fill:#F797A3;" d="M202.721,41.767c7.531,21.882,2.069,49.353,2.069,49.353s5.343,2.948,11.055,0.921
						c0,0,0.864-14.067,1.558-25.29C218.055,56.219,217.176,41.612,202.721,41.767z"/>
					<path style="fill:#C44D61;" d="M211.644,92.981c-3.907,0-6.927-1.633-6.968-1.655c-0.089-0.049-0.137-0.151-0.117-0.252
						c0.054-0.274,5.363-27.661-2.061-49.23c-0.025-0.072-0.014-0.151,0.03-0.212c0.086-0.125,0.266-0.102,0.415-0.101
						c4.245,0,7.625,1.293,10.05,3.845c3.77,3.968,5.289,10.965,4.645,21.391c-0.694,11.222-1.557,25.289-1.557,25.289
						c-0.006,0.094-0.068,0.176-0.156,0.208C214.449,92.786,212.994,92.981,211.644,92.981z M205.054,90.991
						c0.891,0.442,5.598,2.568,10.567,0.879c0.096-1.567,0.897-14.602,1.547-25.133c0.637-10.289-0.84-17.17-4.515-21.037
						c-2.313-2.434-5.543-3.677-9.604-3.698C210.051,62.734,205.497,88.613,205.054,90.991z"/>
				</g>
				<path style="fill:#F797A3;" d="M211.254,44.163c-0.082,0.419-0.133,0.844-0.155,1.256c-0.099,1.832,0.191,3.684,0.557,5.473
					c0.362,1.769,0.829,3.516,1.307,5.256c0.344,1.255,0.728,2.518,0.924,3.807c0.444,2.921,0.66,5.895,0.858,8.841
					c0.217,3.234,0.337,6.474,0.392,9.714c0.078,4.589,0.028,9.178-0.066,13.766c0.257-0.072,0.515-0.143,0.775-0.235
					c0,0,0.864-14.067,1.558-25.29C217.89,58.873,217.52,48.717,211.254,44.163z"/>
			</g>
			<g>
				<g>
					<path style="fill:#F797A3;" d="M100.258,27.934c-4.982,5.832-8.872,21.075-8.686,34.018c0.04-0.112,0.085-0.222,0.125-0.334
						c3.368-9.646,8.282-24.885,23.548-36.775C112.11,23.875,104.926,22.47,100.258,27.934z"/>
					<path style="fill:#C44D61;" d="M91.572,62.187c-0.013,0-0.026-0.001-0.039-0.003c-0.112-0.019-0.195-0.115-0.197-0.229
						c-0.187-12.981,3.735-28.312,8.742-34.174l0,0c4.801-5.619,12.254-4.084,15.236-3.163c0.084,0.026,0.146,0.096,0.162,0.182
						c0.016,0.086-0.018,0.174-0.087,0.228c-14.7,11.45-19.771,26.031-23.126,35.681l-0.469,1.323
						C91.76,62.126,91.67,62.187,91.572,62.187z M100.437,28.087L100.437,28.087c-4.772,5.587-8.546,19.935-8.634,32.513
						l0.016-0.046c3.346-9.623,8.388-24.124,22.922-35.616C111.611,24.049,104.839,22.934,100.437,28.087z"/>
				</g>
				<path style="fill:#F797A3;" d="M95.615,39.298c1.514-1.253,3.011-2.526,4.525-3.779c1.378-1.14,2.707-2.345,3.855-3.721
					c1.202-1.441,2.275-3.144,2.683-4.996c0.186-0.847,0.251-1.738,0.238-2.636c-2.339,0.422-4.715,1.496-6.656,3.768
					c-2.201,2.577-4.188,6.992-5.706,12.233C94.906,39.876,95.262,39.589,95.615,39.298z"/>
				<g>
					<path style="fill:#AC6430;" d="M96.892,21.57c-8.546,7.205-15.584,16.924-27.983,23.459c-11.73,6.2-16.422,9.719-10.557,25.973
						c5.865,16.254,13.238,17.929,17.762,14.243c4.476-3.647,11.735-12.873,15.459-23.292c-0.186-12.943,3.704-28.186,8.686-34.018
						c4.667-5.464,11.852-4.059,14.987-3.091c1.442-1.123,2.969-2.218,4.603-3.274C119.848,21.57,105.437,14.364,96.892,21.57z"/>
					<path style="fill:#571B09;" d="M71.795,87.116c-0.612,0-1.231-0.086-1.854-0.258c-3.101-0.86-7.668-4.294-11.811-15.776
						c-5.984-16.583-0.757-20.222,10.668-26.261c8.397-4.425,14.271-10.262,19.953-15.906c2.697-2.679,5.244-5.21,7.989-7.524l0,0
						c8.567-7.221,23.069-0.103,23.213-0.031c0.076,0.038,0.126,0.113,0.131,0.198c0.005,0.084-0.037,0.164-0.107,0.21
						c-1.556,1.005-3.098,2.102-4.587,3.261c-0.06,0.047-0.14,0.063-0.214,0.039c-2.892-0.893-10.12-2.387-14.737,3.019
						c-4.944,5.788-8.815,20.978-8.63,33.862c0,0.028-0.005,0.056-0.014,0.082c-3.518,9.843-10.627,19.4-15.531,23.396
						C74.889,86.546,73.37,87.116,71.795,87.116z M97.043,21.749c-2.731,2.302-5.271,4.827-7.961,7.499
						c-5.706,5.669-11.606,11.531-20.065,15.989c-11.48,6.068-16.309,9.435-10.444,25.685c4.075,11.293,8.499,14.652,11.494,15.483
						c2.075,0.576,4.115,0.112,5.898-1.342c4.848-3.95,11.878-13.401,15.371-23.149c-0.177-12.972,3.742-28.276,8.743-34.132
						c4.74-5.546,12.063-4.121,15.118-3.198c1.356-1.052,2.757-2.053,4.17-2.98c-1.039-0.475-4.117-1.788-7.847-2.506
						C107.312,18.288,101.385,18.09,97.043,21.749L97.043,21.749z"/>
				</g>
				<path style="fill:#AC6430;" d="M63.629,52.906c2.233-1.416,4.55-2.666,6.73-4.173c2.207-1.526,4.319-3.185,6.361-4.924
					c4.009-3.415,7.746-7.13,11.559-10.759c3.547-3.375,7.138-6.863,11.201-9.62c2.924-1.984,6.07-3.62,9.344-4.959
					c-4.041-0.375-8.468,0.177-11.933,3.098c-8.546,7.205-15.584,16.924-27.983,23.459c-8.738,4.619-13.567,7.753-13.039,15.769
					C57.737,57.564,60.471,54.909,63.629,52.906z"/>
				<path style="opacity:0.5;fill:#AC6430;" d="M106.498,18.373c-0.518,0.749-1.217,1.397-1.909,1.953
					c-1.385,1.113-2.734,2.262-4.015,3.494c-2.604,2.505-4.941,5.303-6.854,8.372c-1.177,1.889-2.118,3.659-2.882,5.647
					c-0.482,1.254-0.929,2.521-1.379,3.786c-1.273,3.576-2.547,7.151-3.939,10.683c-1.548,3.926-3.22,7.818-5.226,11.534
					c-1.624,3.01-3.498,6.149-6.117,8.407c-1.899,1.637-4.354,2.693-6.78,1.539c-1.378-0.656-2.487-1.811-3.396-3.012
					c-1.612-2.132-2.895-4.621-3.73-7.154c-0.973-2.951-1.467-6.66,0.344-9.412c1.778-2.702,4.868-4.243,7.047-6.573
					c0.901-0.964,1.661-2.068,2.34-3.218c-0.365,0.203-0.72,0.412-1.094,0.61c-11.73,6.2-16.422,9.719-10.557,25.973
					c5.865,16.254,13.238,17.929,17.762,14.243c4.476-3.647,11.735-12.873,15.459-23.292c-0.186-12.943,3.704-28.186,8.686-34.018
					c4.667-5.464,11.852-4.059,14.987-3.091c1.442-1.123,2.969-2.218,4.603-3.274C119.848,21.57,113.353,18.328,106.498,18.373z"/>
			</g>
			<g>
				<path style="fill:#AC6430;" d="M141.511,13.562c0,0-22.424-0.679-40.998,22.425C85.337,52.295,90.547,68.83,88.282,77.211
					c-2.265,8.381-17.441,22.424-15.176,30.805c1.359-4.53,3.851-4.757,3.851-4.757s-1.812,5.889,2.492,9.966
					c0,0,5.663,22.878,35.109,32.164c-1.132,14.95,11.326,19.253,20.159,18.8c8.834-0.453,15.856,0.453,26.275-12.685
					c23.33-5.663,36.163-14.091,36.442-22.356c1.021,7.15-0.279,8.264-0.279,8.264s5.107-3.807,4.179-11.422
					c5.85,7.15,5.85,11.422,5.85,11.422s1.856-11.508,0.448-18.079c3.755,3.911,7.979,3.129,7.979,3.129s-10.43-5.736-6.675-34.313
					c3.755-28.577,3.546-48.185-23.988-65.498c-2.92-9.595-14.184-12.307-23.571-11.055c5.423-5.215,17.105-3.129,17.105-3.129
					s-11.805-7.503-23.694-0.411C146.859,12.23,145.01,13.648,141.511,13.562z"/>
				<path style="fill:#571B09;" d="M133.397,164.461c-5.906,0-11.363-2.027-14.794-5.541c-3.232-3.312-4.676-7.806-4.295-13.361
					c-15.163-4.826-23.885-13.312-28.538-19.593c-4.771-6.44-6.354-11.946-6.534-12.615c-3.654-3.511-2.918-8.355-2.605-9.762
					c-0.702,0.257-2.311,1.194-3.301,4.496c-0.029,0.1-0.121,0.168-0.225,0.168c-0.001,0-0.002,0-0.004,0
					c-0.105-0.001-0.196-0.073-0.223-0.174c-1.389-5.142,3.515-12.177,8.258-18.981c3.098-4.445,6.025-8.643,6.919-11.948
					c0.61-2.258,0.672-5.129,0.742-8.452c0.188-8.84,0.446-20.946,11.544-32.871c18.39-22.875,40.875-22.512,41.176-22.499l0,0
					c2.807,0.063,4.494-0.833,9.477-3.513c1.066-0.573,2.279-1.225,3.682-1.964c11.865-7.077,23.81,0.346,23.93,0.421
					c0.096,0.06,0.134,0.179,0.094,0.284c-0.041,0.105-0.152,0.163-0.261,0.146c-0.111-0.02-10.853-1.871-16.339,2.572
					c9.554-1.054,20.174,1.982,23.047,11.228c12.981,8.179,20.53,17.272,23.754,28.613c2.927,10.292,2.272,21.814,0.268,37.068
					c-3.692,28.093,6.451,34.02,6.554,34.076c0.087,0.048,0.135,0.146,0.12,0.244c-0.016,0.098-0.092,0.175-0.189,0.193
					c-0.169,0.03-4.003,0.692-7.649-2.666c1.126,6.629-0.57,17.311-0.587,17.422c-0.018,0.12-0.108,0.207-0.251,0.197
					c-0.122-0.01-0.216-0.111-0.217-0.234c0-0.041-0.08-4.044-5.305-10.662c0.504,7.143-4.297,10.813-4.348,10.85
					c-0.102,0.076-0.244,0.057-0.324-0.041c-0.079-0.099-0.065-0.243,0.03-0.326c0.005-0.005,0.965-1.027,0.417-6.295
					c-1.968,7.998-15.258,15.659-36.293,20.775c-9.577,12.045-16.35,12.31-24.189,12.615c-0.725,0.028-1.46,0.057-2.208,0.096
					C134.282,164.45,133.838,164.461,133.397,164.461z M76.956,103.025c0.071,0,0.138,0.032,0.183,0.087
					c0.049,0.061,0.065,0.142,0.042,0.217c-0.018,0.058-1.715,5.801,2.428,9.726c0.033,0.031,0.056,0.071,0.066,0.114
					c0.015,0.057,1.47,5.769,6.488,12.535c4.628,6.243,13.324,14.686,28.464,19.462c0.104,0.033,0.172,0.133,0.164,0.242
					c-0.416,5.5,0.979,9.935,4.149,13.182c3.593,3.683,9.482,5.693,15.764,5.365c0.75-0.039,1.487-0.067,2.214-0.096
					c7.738-0.3,14.42-0.561,23.889-12.5c0.033-0.041,0.078-0.07,0.13-0.083c22.422-5.442,35.978-13.717,36.261-22.135
					c0.005-0.122,0.101-0.221,0.222-0.227c0.146-0.015,0.229,0.081,0.245,0.202c0.586,4.101,0.421,6.255,0.15,7.365
					c1.371-1.437,3.957-4.945,3.285-10.46c-0.013-0.104,0.045-0.204,0.141-0.245c0.097-0.042,0.209-0.014,0.275,0.068
					c3.844,4.698,5.185,8.149,5.653,10.009c0.442-3.345,1.313-11.426,0.233-16.468c-0.022-0.103,0.027-0.208,0.119-0.257
					c0.093-0.049,0.207-0.031,0.28,0.044c2.77,2.887,5.831,3.15,7.129,3.114c-2.166-1.672-9.497-9.293-6.229-34.165
					c1.997-15.195,2.65-26.664-0.254-36.878c-3.197-11.243-10.704-20.265-23.626-28.39c-0.048-0.03-0.084-0.076-0.1-0.13
					c-2.828-9.294-13.754-12.168-23.315-10.891c-0.107,0.014-0.199-0.04-0.243-0.131c-0.044-0.092-0.024-0.201,0.05-0.272
					c2.855-2.745,7.416-3.465,10.74-3.585c2.161-0.08,4.094,0.08,5.294,0.218c-3.191-1.611-12.795-5.497-22.342,0.198
					c-1.412,0.744-2.624,1.396-3.688,1.968c-4.926,2.649-6.754,3.636-9.711,3.569c-0.013-0.003-0.047-0.001-0.133-0.001
					c-1.874,0-23.129,0.511-40.676,22.338C89.71,47.941,89.454,59.944,89.268,68.707c-0.072,3.354-0.133,6.251-0.759,8.565
					c-0.915,3.385-3.865,7.615-6.987,12.094c-4.417,6.335-8.975,12.874-8.358,17.734c1.427-3.816,3.67-4.066,3.771-4.075
					C76.943,103.025,76.949,103.025,76.956,103.025z"/>
			</g>
			<path style="fill:#AC6430;" d="M90.76,61.512c0.826-6.191,3.886-11.82,7.414-16.953c3.478-5.061,7.276-9.887,11.684-14.175
				c4.44-4.318,9.393-7.93,14.636-11.203c3.102-1.937,6.415-3.409,9.774-4.79c-8.126,1.664-21.741,6.653-33.754,21.596
				c-6.449,6.931-9.211,13.9-10.436,20.269C90.222,58.018,90.462,59.777,90.76,61.512z"/>
			<path style="fill:#AC6430;" d="M155.162,8.972c0.909-0.741,2.074-1.257,3.078-1.617c5.092-1.827,10.775-1.312,15.91,0.052
				c0.959,0.255,1.915,0.54,2.858,0.863c0.92,0.101,1.473,0.199,1.473,0.199s-10.939-6.946-22.362-1.14
				C155.762,7.854,155.431,8.399,155.162,8.972z"/>
			<path style="opacity:0.5;fill:#AC6430;" d="M215.61,122.465c0,0-9.773-5.377-6.991-31.644c-0.024,0.093-0.041,0.188-0.066,0.282
				c-0.532,2.024-1.165,4.058-2.158,5.908c-0.721,1.342-1.704,2.75-3.162,3.351c-1.335,0.55-2.789,0.232-3.738-0.862
				c-1.117-1.287-1.442-3.107-1.586-4.752c-0.39-4.447,0.375-8.991,1.037-13.377c0.23-1.524,0.525-3.055,0.648-4.593
				c0.117-1.461,0.006-3.246-0.109-4.807c-0.144-1.946-0.397-3.883-0.74-5.804c-0.681-3.814-1.722-7.568-3.063-11.201
				c-0.656-1.776-1.379-3.514-2.296-5.173c-0.893-1.613-1.913-3.15-2.953-4.67c-1.081-1.582-2.191-3.123-3.016-4.86
				c-0.738-1.553-1.266-3.21-1.561-4.904c-0.575-3.303-0.238-6.679,0.644-9.896c0.138-0.505,0.293-1.003,0.456-1.499
				c-0.657-0.438-1.318-0.874-2.009-1.309c-0.366-1.203-0.864-2.297-1.472-3.289c0.209,1.691,0.21,3.415,0.013,5.083
				c-0.312,2.647-1.133,5.299-2.852,7.38c-0.323,0.391-0.493-0.169-0.482-0.448c0.101-2.363-0.26-4.752-1.49-6.806
				c-1.705-2.847-4.751-4.566-7.704-5.864c-3.191-1.403-6.533-2.456-9.645-4.039c-0.35-0.178-0.582-0.747-0.361-1.094
				c0.555-0.872,1.309-1.586,2.16-2.162c-0.584,0.046-1.164,0.107-1.737,0.183c5.423-5.215,17.105-3.129,17.105-3.129
				s-0.593-0.376-1.642-0.879c-2.885-0.38-5.798-0.505-8.664-0.234c-1.388,0.131-2.777,0.359-4.105,0.791
				c-1.278,0.415-2.504,1.006-3.697,1.619c-2.445,1.255-4.792,2.686-7.3,3.818c-0.19,0.086-0.307-0.099-0.378-0.247
				c-0.715-1.493-0.435-2.993,0.313-4.336c-5.146,2.747-7.353,4.063-9.673,4.442c0.382,0.14,0.763,0.285,1.143,0.437
				c1.502,0.601,2.979,1.261,4.481,1.86c1.509,0.602,3.054,1.109,4.597,1.617c2.87,0.945,5.694,1.941,8.37,3.362
				c1.902,1.011,3.706,2.239,5.387,3.583c1.883,1.505,3.658,3.204,5.036,5.191c1.166,1.682,2.064,3.701,1.836,5.789
				c-0.026,0.241-0.324,0.288-0.518,0.235c-4.267-1.182-9.321-0.501-12.93,2.14c-2.675,1.957-4.467,4.844-5.71,7.87
				c-0.65,1.583-1.163,3.222-1.585,4.881c-0.543,2.138-1.127,4.264-1.615,6.416c-1.005,4.432-1.772,9.153-1.177,13.698
				c0.58,4.431,2.306,8.664,2.305,13.177c0,0.34-0.517,0.227-0.69,0.161c-1.772-0.671-2.988-2.277-4.159-3.685
				c-1.012-1.217-2.022-2.325-3.516-2.928c-1.339-0.541-2.805-0.8-4.245-0.826c-2.707-0.049-5.764,0.837-6.936,3.519
				c-0.249,0.569-1.25-0.277-1.137-0.741c0.26-1.071,0.634-2.105,1.066-3.118c0.867-2.038,1.939-3.986,2.646-6.089
				c0.761-2.262,1.423-4.557,2.022-6.866c1.136-4.384,2.188-8.844,2.932-13.313c0.677-4.069,1.003-8.335,0.108-12.398
				c-0.837-3.806-2.776-7.774-6.109-9.974c-6.275-4.142-14.708-1.536-20.485,2.231c-6.608,4.309-10.875,11.194-14.488,18.024
				c-2.08,3.933-3.784,8.169-4.93,12.469c-0.637,2.389-0.972,4.747-1.009,7.22c-0.035,2.371,0.067,4.746-0.137,7.112
				c-0.013,0.153-0.294,0.934-0.563,0.61c-2.085-2.515-3.488-5.485-4.198-8.669c-0.013-0.06-0.019-0.12-0.032-0.18
				c-0.133,4.365-0.046,8.125-0.811,10.954c-2.265,8.381-17.441,22.424-15.176,30.805c1.359-4.53,3.851-4.757,3.851-4.757
				s-1.812,5.889,2.492,9.966c0,0,5.663,22.878,35.109,32.165c-1.133,14.95,11.326,19.253,20.159,18.8
				c8.834-0.453,15.856,0.453,26.275-12.685c23.33-5.663,36.163-14.091,36.442-22.356c1.021,7.15-0.279,8.264-0.279,8.264
				s5.107-3.807,4.179-11.421c5.85,7.15,5.85,11.421,5.85,11.421s1.856-11.508,0.448-18.079
				C211.386,123.247,215.61,122.465,215.61,122.465z"/>
			<path style="fill:#BA713C;" d="M156.294,52.971c0,0-7.452,18.629,1.639,38.152c0,0,8.346,3.279,13.115,9.687
				c2.086,3.279,5.961,1.341,8.346,1.192c2.384-0.149,13.264-6.557,15.201-18.331c1.937-11.773,0.887-37.376-16.688-44.122
				C162.419,33.605,156.294,52.971,156.294,52.971z"/>
			<path style="opacity:0.48;fill:#BA713C;" d="M158.103,54.733c0,0-6.705,16.763,1.475,34.33c0,0,7.51,2.95,11.801,8.717
				c1.877,2.95,5.364,1.207,7.51,1.073s11.935-5.9,13.678-16.494c1.743-10.594,0.799-33.632-15.016-39.702
				C163.614,37.307,158.103,54.733,158.103,54.733z"/>
			<path style="fill:#BA713C;" d="M99.811,56.101c0,0,7.004-20.119,24.888-25.186c7.75-1.639,13.562,1.639,12.071,26.08
				c-2.682,20.119-13.413,34.575-25.782,35.022C102.494,91.421,94.148,78.604,99.811,56.101z"/>
			<path style="opacity:0.48;fill:#BA713C;" d="M102.102,55.209c0,0,6.096-17.511,21.661-21.921
				c6.745-1.427,11.803,1.427,10.506,22.699c-2.335,17.511-11.674,30.092-22.44,30.482C104.437,85.95,97.173,74.795,102.102,55.209z
				"/>
			
				<ellipse transform="matrix(0.2996 -0.9541 0.9541 0.2996 15.9576 158.9757)" style="fill:#3E1506;" cx="116.255" cy="68.619" rx="17.404" ry="14.009"/>
			<g>
				<path style="fill:#E6E6E6;" d="M105.878,89.169c0,0,12.093,2.437,17.53-2.719c5.437-5.156,8.624-18.092,4.312-26.154
					c-4.312-8.062-18.842-8.062-24.748,5.531C97.066,79.419,102.409,88.044,105.878,89.169z"/>
				<path style="fill:#571B09;" d="M112.32,89.994c-3.454,0-6.251-0.547-6.489-0.595c-0.008-0.002-0.017-0.004-0.026-0.007
					c-1.555-0.504-3.183-2.289-4.251-4.657c-1.341-2.976-2.97-9.402,1.202-19.002c2.925-6.731,8.356-10.899,14.531-11.15
					c4.614-0.189,8.693,1.958,10.641,5.602c4.384,8.197,1.201,21.164-4.358,26.436C120.709,89.333,116.117,89.994,112.32,89.994z
					 M105.938,88.941c0.456,0.088,12.1,2.276,17.308-2.662c5.407-5.127,8.438-18.073,4.266-25.872
					c-1.863-3.482-5.751-5.537-10.207-5.354c-5.99,0.243-11.268,4.306-14.118,10.868c-4.1,9.435-2.515,15.716-1.205,18.621
					C103.191,87.223,104.816,88.571,105.938,88.941z"/>
			</g>
			<path style="fill:#FFFFFF;" d="M106.967,87.158c0,0,10.653,2.147,15.443-2.395c4.79-4.542,7.598-15.939,3.799-23.042
				c-3.799-7.102-16.6-7.102-21.803,4.873C99.203,78.569,103.911,86.167,106.967,87.158z"/>
			<path style="fill:#3E1506;" d="M160.061,81.294c0,0-1.031-22.686,15.374-23.436c7.968,0.187,18.748,8.905,13.03,29.248
				C175.903,85.606,160.061,81.294,160.061,81.294z"/>
			<g>
				<path style="fill:#E6E6E6;" d="M160.436,76.138c0,0-1.781,9.374,2.062,15.936c3,4.968,12.093,6.093,15.374,6.281
					c3.281,0.188,8.812-3.562,10.593-11.249c1.781-7.687,1.406-22.123-11.624-25.029C163.81,59.171,160.717,73.326,160.436,76.138z"
					/>
				<path style="fill:#571B09;" d="M178.104,98.597c-0.083,0-0.165-0.002-0.246-0.007c-2.023-0.116-12.285-0.968-15.561-6.394
					c-3.787-6.465-2.162-15.721-2.095-16.091c0.237-2.344,1.882-9.139,6.609-12.556c2.77-2.003,6.159-2.575,10.081-1.702
					c4.221,0.941,7.451,3.149,9.599,6.563c3.528,5.604,3.451,13.359,2.202,18.749C186.939,94.734,181.513,98.597,178.104,98.597z
					 M173.489,61.923c-2.408,0-4.552,0.671-6.402,2.008c-4.593,3.32-6.19,9.955-6.417,12.231c-0.001,0.007-0.002,0.014-0.003,0.02
					c-0.018,0.093-1.719,9.366,2.034,15.774c3.153,5.222,13.201,6.052,15.184,6.165c3.211,0.171,8.61-3.559,10.351-11.067
					c1.227-5.297,1.309-12.911-2.143-18.393c-2.079-3.303-5.21-5.441-9.304-6.354C175.641,62.05,174.539,61.923,173.489,61.923z
					 M160.435,76.138h0.006H160.435z"/>
			</g>
			<path style="fill:#FFFFFF;" d="M162.347,76.662c0,0-1.541,8.112,1.785,13.791c2.596,4.299,10.465,5.273,13.304,5.435
				c2.839,0.162,7.625-3.083,9.167-9.734s1.217-19.145-10.059-21.659C165.267,61.979,162.59,74.228,162.347,76.662z"/>
			<g>
				<g>
					<path style="fill:#682A15;" d="M127.313,75.341c0,7.278-5.511,13.179-12.309,13.179c-6.798,0-12.31-5.9-12.31-13.179
						c0-7.278,5.511-13.178,12.31-13.178C121.802,62.162,127.313,68.063,127.313,75.341z"/>
					<path style="fill:#441306;" d="M115.003,88.882c-6.98,0-12.659-6.074-12.659-13.541c0-7.467,5.678-13.542,12.659-13.542
						s12.66,6.075,12.66,13.542C127.662,82.808,121.983,88.882,115.003,88.882z M115.003,62.524
						c-6.593,0-11.958,5.749-11.958,12.817c0,7.067,5.365,12.816,11.958,12.816c6.595,0,11.96-5.749,11.96-12.816
						C126.962,68.274,121.597,62.524,115.003,62.524z"/>
				</g>
				<path style="fill:#080202;" d="M123.4,75.341c0,4.965-3.759,8.99-8.397,8.99c-4.638,0-8.397-4.025-8.397-8.99
					c0-4.965,3.76-8.99,8.397-8.99C119.641,66.351,123.4,70.376,123.4,75.341z"/>
				<g>
					<path style="fill:#FFFFFF;" d="M113.366,66.409c-0.691-1.123-1.942-1.589-3.199-1.303c-3.048,0.695-4.801,4.559-5.138,7.455
						c-0.202,1.735,0.319,4.514,2.283,4.926c1.721,0.361,3.494-1.233,4.502-2.498C113.621,72.722,115.036,69.123,113.366,66.409z"/>
					<path style="fill:#FFFFFF;" d="M110.263,78.845c-0.2-0.347-0.534-0.536-0.893-0.595c-0.559-0.278-1.275,0.078-1.717,0.481
						c-0.31,0.283-0.586,0.668-0.691,1.096c-0.092,0.374-0.055,0.74,0.1,1.087c0.248,0.555,0.846,0.822,1.394,0.845
						c0.673,0.028,1.327-0.301,1.73-0.876C110.586,80.314,110.612,79.449,110.263,78.845z"/>
				</g>
				<path style="fill:#ECCEB0;" d="M123.267,79.013c-0.273-0.654-0.943-1.039-1.7-1.04c-1.838-0.003-3.283,1.763-3.803,3.201
					c-0.311,0.861-0.323,2.34,0.765,2.781c0.953,0.386,2.156-0.219,2.88-0.746C122.705,82.263,123.926,80.593,123.267,79.013z"/>
			</g>
			<g>
				<g>
					<path style="fill:#682A15;" d="M185.654,82.913c0,7.278-5.511,13.179-12.309,13.179c-6.798,0-12.31-5.9-12.31-13.179
						c0-7.278,5.511-13.178,12.31-13.178C180.143,69.735,185.654,75.635,185.654,82.913z"/>
					<path style="fill:#441306;" d="M173.344,96.454c-6.98,0-12.658-6.074-12.658-13.541c0-7.467,5.678-13.541,12.658-13.541
						c6.98,0,12.66,6.075,12.66,13.541C186.004,90.38,180.324,96.454,173.344,96.454z M173.344,70.097
						c-6.593,0-11.958,5.749-11.958,12.817c0,7.067,5.365,12.816,11.958,12.816c6.595,0,11.96-5.749,11.96-12.816
						C185.304,75.846,179.938,70.097,173.344,70.097z"/>
				</g>
				<ellipse style="fill:#080202;" cx="173.344" cy="82.913" rx="8.397" ry="8.99"/>
				<g>
					<path style="fill:#FFFFFF;" d="M171.707,73.981c-0.691-1.123-1.942-1.589-3.199-1.303c-3.048,0.695-4.801,4.559-5.138,7.455
						c-0.202,1.735,0.319,4.514,2.283,4.926c1.721,0.361,3.494-1.233,4.502-2.498C171.963,80.294,173.377,76.696,171.707,73.981z"/>
					<path style="fill:#FFFFFF;" d="M168.605,86.418c-0.2-0.347-0.534-0.536-0.893-0.595c-0.559-0.278-1.275,0.078-1.717,0.481
						c-0.31,0.283-0.586,0.668-0.691,1.096c-0.092,0.374-0.055,0.74,0.1,1.087c0.249,0.555,0.846,0.822,1.394,0.845
						c0.673,0.027,1.327-0.301,1.73-0.876C168.928,87.887,168.953,87.022,168.605,86.418z"/>
				</g>
				<path style="fill:#ECCEB0;" d="M181.608,86.585c-0.273-0.654-0.943-1.038-1.7-1.04c-1.838-0.003-3.283,1.763-3.803,3.201
					c-0.311,0.861-0.322,2.34,0.765,2.781c0.953,0.386,2.156-0.219,2.88-0.746C181.047,89.836,182.267,88.166,181.608,86.585z"/>
			</g>
			<path style="fill:#571B09;" d="M174.157,49.248c0,0,6.806-3.603,16.015,7.607C187.77,44.844,179.362,41.107,174.157,49.248z"/>
			<path style="fill:#571B09;" d="M126.379,44.977c0,0-3.87-4.671-17.216,2.002C117.837,33.366,125.578,38.571,126.379,44.977z"/>
			<g>
				<g>
					<path style="fill:#CD8F5F;" d="M215.61,122.465c0,0-4.553-2.512-6.559-12.459c-3.147-0.207-7.838-1.183-13.049-4.542
						c-10.847-7.509-21.902-0.626-24.197-3.546C157.83,84.605,131.547,84.814,120.7,89.195c-10.847,4.38-8.761,2.712-24.822,0.834
						c-10.596-0.873-17.986,6.299-22.219,12.214c-0.74,2.097-1.017,4.056-0.553,5.774c1.359-4.53,3.851-4.757,3.851-4.757
						s-1.812,5.889,2.492,9.966c0,0,5.663,22.878,35.109,32.165c-1.133,14.95,11.326,19.253,20.159,18.8
						c8.834-0.453,15.856,0.453,26.275-12.685c23.33-5.663,36.163-14.091,36.442-22.356c1.021,7.15-0.279,8.264-0.279,8.264
						s5.107-3.807,4.179-11.421c5.85,7.15,5.85,11.421,5.85,11.421s1.856-11.508,0.448-18.079
						C211.386,123.247,215.61,122.465,215.61,122.465z"/>
					<path style="fill:#99582B;" d="M133.397,164.461c-5.906,0-11.363-2.027-14.794-5.541c-3.232-3.312-4.676-7.806-4.295-13.361
						c-28.292-9.005-34.692-30.819-35.072-32.208c-3.654-3.511-2.918-8.355-2.605-9.762c-0.702,0.257-2.311,1.194-3.301,4.496
						c-0.029,0.1-0.121,0.168-0.225,0.168c-0.001,0-0.002,0-0.004,0c-0.105-0.001-0.196-0.073-0.223-0.174
						c-0.447-1.652-0.264-3.587,0.559-5.914c0.007-0.021,0.017-0.041,0.03-0.059c4.365-6.099,11.791-13.196,22.43-12.311
						c3.979,0.465,6.8,0.91,9.066,1.267c6.681,1.053,7.539,1.189,15.648-2.085c10.456-4.223,37.122-4.864,51.376,12.794
						c0.781,0.992,2.796,0.719,5.588,0.34c4.663-0.631,11.705-1.585,18.56,3.16c5.212,3.359,9.909,4.302,12.93,4.5
						c0.106,0.007,0.194,0.084,0.215,0.188c1.956,9.701,6.398,12.275,6.442,12.3c0.086,0.048,0.134,0.146,0.118,0.244
						c-0.016,0.098-0.091,0.175-0.188,0.193c-0.169,0.03-4.003,0.692-7.649-2.666c1.126,6.629-0.57,17.311-0.587,17.422
						c-0.018,0.12-0.108,0.207-0.251,0.197c-0.122-0.01-0.216-0.111-0.217-0.234c0-0.041-0.08-4.044-5.305-10.662
						c0.504,7.143-4.297,10.813-4.348,10.85c-0.102,0.076-0.244,0.057-0.324-0.041c-0.079-0.099-0.065-0.243,0.03-0.326
						c0.005-0.005,0.965-1.027,0.417-6.295c-1.968,7.998-15.258,15.659-36.293,20.775c-9.577,12.045-16.35,12.31-24.189,12.615
						c-0.725,0.028-1.46,0.057-2.208,0.096C134.282,164.45,133.838,164.461,133.397,164.461z M76.956,103.025
						c0.071,0,0.138,0.032,0.183,0.087c0.049,0.061,0.065,0.142,0.042,0.217c-0.018,0.058-1.715,5.801,2.428,9.726
						c0.033,0.031,0.056,0.071,0.066,0.114c0.057,0.227,5.981,22.86,34.952,31.997c0.104,0.033,0.172,0.133,0.164,0.242
						c-0.416,5.5,0.979,9.935,4.149,13.182c3.593,3.683,9.482,5.693,15.764,5.365c0.75-0.039,1.487-0.067,2.214-0.096
						c7.738-0.3,14.42-0.561,23.889-12.5c0.033-0.041,0.078-0.07,0.13-0.083c22.422-5.442,35.978-13.717,36.261-22.135
						c0.005-0.122,0.101-0.221,0.222-0.227c0.146-0.015,0.229,0.081,0.245,0.202c0.586,4.101,0.421,6.255,0.15,7.365
						c1.371-1.437,3.957-4.945,3.285-10.46c-0.013-0.104,0.045-0.204,0.141-0.245c0.097-0.042,0.209-0.014,0.275,0.068
						c3.844,4.698,5.185,8.149,5.653,10.009c0.442-3.345,1.313-11.426,0.233-16.468c-0.022-0.103,0.027-0.208,0.119-0.257
						c0.093-0.049,0.207-0.031,0.28,0.044c2.776,2.892,5.852,3.149,7.137,3.114c-1.287-1.008-4.46-4.2-6.082-12.058
						c-3.081-0.227-7.78-1.214-12.981-4.566c-6.712-4.647-13.372-3.744-18.235-3.085c-2.945,0.4-5.077,0.689-6.019-0.513
						c-14.1-17.467-40.487-16.83-50.833-12.651c-8.226,3.322-9.099,3.185-15.898,2.113c-2.262-0.356-5.077-0.8-9.04-1.263
						c-10.4-0.865-17.684,6.096-21.982,12.089c-0.64,1.824-0.873,3.387-0.704,4.747c1.427-3.815,3.669-4.064,3.77-4.073
						C76.943,103.025,76.949,103.025,76.956,103.025z"/>
				</g>
			</g>
			<g>
				<path style="fill:#CD8F5F;" d="M178.427,102.987c2.653,0.547,5.359,0.768,8.015,1.313c3.447,0.707,6.834,1.695,10.161,2.836
					c2.687,0.922,5.328,1.885,7.801,3.296c2.107,1.203,4.07,2.643,5.924,4.204c-0.479-1.329-0.92-2.857-1.278-4.631
					c-3.147-0.207-7.838-1.183-13.049-4.542c-7.376-5.106-14.845-3.558-19.593-2.962
					C177.08,102.688,177.757,102.848,178.427,102.987z"/>
			</g>
			<g>
				<path style="fill:#CD8F5F;" d="M78.353,99.503c3.876-3.665,8.599-6.195,13.973-6.613c2.831-0.22,5.573,0.213,8.387,0.392
					c3.367,0.214,6.734-0.079,10.041-0.727c3.151-0.617,6.283-1.505,9.305-2.589c1.645-0.59,3.257-1.272,4.815-2.058
					c-1.554,0.366-2.964,0.799-4.173,1.287c-10.847,4.38-8.761,2.712-24.822,0.834c-10.596-0.873-17.986,6.299-22.219,12.214
					c-0.439,1.243-0.71,2.437-0.765,3.562C74.499,103.532,76.334,101.412,78.353,99.503z"/>
			</g>
			<g>
				<path style="fill:#CD8F5F;" d="M209.051,110.006c-0.126-0.008-0.259-0.02-0.39-0.031c-2.044,0.03-4.078,0.028-6.043,0.132
					c0.632,2.281,1.674,4.439,2.393,6.692c0.7,2.194,1.325,4.787,0.272,6.972c-0.215,0.446-1.08-0.113-1.212-0.382
					c-1.223-2.477-2.12-5.289-3.658-7.634c0.575,2.908,0.572,6.122-0.826,8.704c-0.182,0.336-0.81-0.109-0.941-0.244
					c-1.009-1.035-1.695-2.256-2.283-3.536c-0.281,2.545-1.046,5-2.309,7.261c-1.282,2.293-3.024,4.228-4.95,5.994
					c-1.45,1.33-2.972,2.587-4.577,3.726c-1.675,1.189-3.458,2.305-5.402,2.996c-1.598,0.568-3.431,0.854-5.015,0.088
					c-1.772-0.856-2.782-2.655-2.871-4.584c-0.109-2.366,0.77-4.745,1.722-6.87c0.97-2.164,2.158-4.231,3.416-6.238
					c0.642-1.024,1.305-2.109,2.193-2.941c0.51-0.478,1.131-0.851,1.852-0.772c0.85,0.093,1.582,0.706,2.151,1.3
					c0.7,0.731,1.301,1.554,1.874,2.391c1.432-2.585,1.883-5.558,0.264-8.202c-1.377-2.248-3.702-3.85-5.883-5.239
					c-2.04-1.299-4.797-2.537-5.507-5.087c-0.185-0.665-0.151-1.285,0.016-1.863c-0.674-0.085-1.196-0.298-1.529-0.721
					C157.83,84.605,131.547,84.814,120.7,89.195c-6.537,2.64-8.38,3.081-12.326,2.605c0.887,0.63,1.7,1.358,2.397,2.218
					c0.104,0.129,0.331,0.452,0.158,0.62c-0.475,0.461-1.019,0.841-1.637,1.086c-2.378,0.94-5.16-0.059-7.407,1.32
					c-1.295,0.794-2.121,2.268-2.656,3.65c-0.465,1.203-0.71,2.492-0.724,3.782c-0.029,2.744,0.845,5.413,1.879,7.922
					c1.125,2.729,2.489,5.351,3.685,8.049c1.164,2.627,2.23,5.374,2.569,8.247c0.16,1.351,0.168,2.717-0.062,4.061
					c-0.214,1.247-0.616,2.661-1.623,3.509c-1.748,1.472-4.293-0.068-5.774-1.186c-2.263-1.708-4.278-3.8-5.99-6.051
					c-4.423-5.815-7.124-12.75-8.253-19.941c-1.142,0.903-2.22,2.118-2.426,3.577c-0.035,0.246-0.286,0.697-0.522,0.301
					c-1.384-2.326-1.793-4.948-1.469-7.615c0.31-2.555,1.177-4.995,1.962-7.435c-2.624,1.07-4.5,3.862-5.727,6.27
					c-0.001,0.003-0.003,0.006-0.004,0.008c-0.313,1.819-0.564,5.945,2.698,9.035c0,0,5.663,22.878,35.109,32.165
					c-1.133,14.95,11.326,19.253,20.159,18.8c8.834-0.453,15.856,0.453,26.275-12.685c23.33-5.663,36.163-14.091,36.442-22.356
					c1.022,7.15-0.278,8.264-0.278,8.264s5.107-3.807,4.179-11.421c5.85,7.15,5.85,11.421,5.85,11.421s1.856-11.508,0.448-18.079
					c3.755,3.911,7.979,3.129,7.979,3.129S211.057,119.953,209.051,110.006z"/>
			</g>
			<g>
				<g>
					<path style="fill:#F9F8F4;" d="M160.177,152.51c0.328-0.524,0.658-1.048,0.979-1.577c1.659-2.729,2.855-5.642,4.053-8.592
						c1.106-2.722,2.304-5.396,3.32-8.156c0.5-1.359,0.975-2.727,1.432-4.101c0.444-1.336,0.808-2.697,1.268-4.027
						c0.797-2.304,1.877-4.484,3.544-6.28c1.216-1.311,3.186-3.082,2.653-5.093c-0.224-0.845-1.093-1.225-1.841-1.512
						c-0.783-0.3-1.607-0.51-2.343-0.922c-1.79-1.001-2.257-3.204-2.51-5.08c-0.311-2.298-0.472-4.572-1.255-6.779
						c-0.243-0.686-0.553-1.331-0.9-1.955c-14.039-13.345-36.392-13.318-46.912-9.602c-3.206,1.52-6.238,3.352-9.01,5.653
						c-3.398,2.82-6.327,6.477-7.229,10.893c-1.148,5.619,1.481,11.171,3.139,16.408c0.466,1.473,0.912,2.941,1.226,4.455
						c0.334,1.608,0.575,3.233,0.894,4.843c0.633,3.192,1.977,6.132,2.851,9.253c0.458,1.634,0.589,3.254,0.493,4.875
						c0.179,0.058,0.348,0.121,0.528,0.178c-1.133,14.95,11.326,19.253,20.159,18.8C143.318,163.75,150.202,164.592,160.177,152.51z
						"/>
					<path style="fill:#A57346;" d="M133.397,164.461c-5.906,0-11.363-2.027-14.794-5.541c-3.232-3.313-4.677-7.807-4.295-13.363
						c-0.037-0.013-0.074-0.026-0.109-0.038l-0.243-0.083c-0.102-0.033-0.168-0.13-0.163-0.238c0.101-1.706-0.057-3.275-0.484-4.798
						c-0.347-1.241-0.777-2.475-1.194-3.67c-0.628-1.804-1.279-3.669-1.661-5.601c-0.148-0.742-0.278-1.488-0.409-2.233
						c-0.15-0.857-0.305-1.743-0.485-2.608c-0.323-1.553-0.779-3.041-1.22-4.431c-0.306-0.965-0.652-1.964-0.987-2.93
						c-1.527-4.402-3.107-8.953-2.158-13.596c0.81-3.963,3.269-7.673,7.309-11.027c2.627-2.18,5.59-4.039,9.06-5.685
						c11.225-3.964,33.256-3.587,47.175,9.644c0.017,0.017,0.032,0.035,0.044,0.056c0.391,0.704,0.691,1.355,0.916,1.991
						c0.643,1.816,0.877,3.706,1.102,5.534c0.052,0.43,0.106,0.861,0.164,1.293c0.271,2.005,0.748,3.986,2.392,4.906
						c0.49,0.274,1.014,0.453,1.568,0.643c0.25,0.085,0.5,0.171,0.746,0.265c0.83,0.318,1.736,0.736,1.984,1.671
						c0.512,1.93-1.121,3.644-2.313,4.895c-0.138,0.144-0.27,0.284-0.395,0.418c-1.468,1.582-2.579,3.552-3.494,6.197
						c-0.249,0.719-0.474,1.463-0.691,2.181c-0.187,0.616-0.373,1.232-0.576,1.843c-0.486,1.462-0.955,2.805-1.434,4.108
						c-0.673,1.829-1.437,3.648-2.177,5.408c-0.386,0.917-0.771,1.833-1.146,2.756c-1.107,2.727-2.363,5.819-4.069,8.626
						c-0.277,0.455-0.56,0.906-0.842,1.356l-0.14,0.222c-0.006,0.008-0.011,0.017-0.018,0.025
						c-9.176,11.116-15.782,11.374-23.431,11.672c-0.723,0.028-1.454,0.057-2.2,0.096
						C134.282,164.45,133.838,164.461,133.397,164.461z M114.273,145.046c0.027,0.009,0.054,0.018,0.081,0.028
						c0.09,0.031,0.181,0.063,0.274,0.092c0.105,0.033,0.172,0.133,0.164,0.242c-0.416,5.5,0.979,9.935,4.149,13.182
						c3.593,3.683,9.482,5.693,15.764,5.365c0.747-0.038,1.48-0.067,2.205-0.095c7.533-0.294,14.039-0.548,23.077-11.49l0.131-0.21
						c0.281-0.448,0.562-0.898,0.838-1.351c1.686-2.775,2.934-5.848,4.035-8.559c0.376-0.924,0.762-1.842,1.148-2.761
						c0.737-1.755,1.499-3.569,2.169-5.388c0.477-1.298,0.944-2.638,1.429-4.094c0.202-0.607,0.387-1.219,0.572-1.831
						c0.219-0.723,0.445-1.471,0.697-2.199c0.938-2.709,2.079-4.731,3.594-6.363c0.127-0.137,0.261-0.278,0.4-0.423
						c1.178-1.236,2.643-2.773,2.2-4.45c-0.191-0.721-0.944-1.063-1.699-1.353c-0.24-0.092-0.484-0.175-0.729-0.259
						c-0.55-0.188-1.119-0.383-1.646-0.677c-1.828-1.023-2.355-3.229-2.629-5.253c-0.058-0.434-0.112-0.867-0.164-1.299
						c-0.233-1.886-0.452-3.667-1.078-5.434c-0.213-0.601-0.497-1.219-0.867-1.888c-13.625-12.925-35.884-13.327-46.645-9.526
						c-3.412,1.619-6.343,3.457-8.938,5.612c-3.956,3.284-6.361,6.903-7.149,10.759c-0.923,4.517,0.635,9.006,2.141,13.348
						c0.336,0.969,0.684,1.97,0.992,2.942c0.425,1.341,0.906,2.903,1.233,4.478c0.18,0.872,0.336,1.761,0.487,2.622
						c0.13,0.742,0.26,1.484,0.407,2.223c0.377,1.9,1.021,3.749,1.644,5.538c0.419,1.201,0.852,2.443,1.204,3.698
						C114.188,141.794,114.355,143.357,114.273,145.046z M160.177,152.509h0.005H160.177z"/>
				</g>
			</g>
			<g>
				<path style="fill:#ECCEB0;" d="M177.425,114.683c-0.224-0.845-1.093-1.225-1.841-1.512c-0.739-0.283-1.511-0.492-2.215-0.859
					c-0.156,0.449-0.32,0.895-0.498,1.338c-1.364,3.398-3.418,6.504-6.27,8.832c-2.957,2.413-6.513,3.669-10.245,4.262
					c-3.147,0.499-6.441,0.973-9.619,0.488c-1.493-0.228-3.051-0.703-4.083-1.871c-1.046-1.185-1.316-2.95-0.893-4.446
					c1.06-3.744,5.69-4.697,8.844-5.899c3.501-1.335,6.156-4.198,7.643-7.6c1.5-3.43,1.908-7.451,0.917-11.078
					c-0.601-2.201-1.779-4.217-3.301-5.935c-12.475-5.023-26.504-4.287-34.201-1.568c-0.003,0.001-0.006,0.003-0.009,0.005
					c-0.038,0.312-0.098,0.608-0.167,0.855c-0.57,2.019-2.129,3.568-2.963,5.472c-1.001,2.284-1.529,4.645-1.536,7.142
					c-0.006,1.896,0.369,3.765,1.194,5.476c0.83,1.722,2.067,3.22,3.412,4.564c1.308,1.307,2.779,2.462,3.918,3.93
					c0.627,0.807,1.448,2.051,0.972,3.115c-0.565,1.263-2.5,1.45-3.675,1.566c-1.356,0.133-2.73,0.066-4.066-0.208
					c-2.503-0.513-4.785-1.773-6.682-3.467c-3.257-2.909-5.397-6.909-6.772-11.066c-0.744,5.332,1.7,10.593,3.276,15.569
					c0.466,1.473,0.912,2.941,1.226,4.455c0.334,1.608,0.575,3.233,0.894,4.843c0.26,1.313,0.643,2.583,1.062,3.84
					c1.114-0.115,2.27,0.096,3.05,0.634c1.281,0.882,2.066,2.456,2.691,3.83c0.709,1.559,1.248,3.192,1.984,4.739
					c1.383,2.904,3.174,5.775,5.848,7.654c2.557,1.796,5.709,2.388,8.78,2.442c2.122,0.037,4.09-0.502,6.095-1.141
					c1.833-0.585,3.699-1.185,5.647-1.1c0.353,0.016,0.567,0.439,0.634,0.732c0.801,3.497-2.969,4.937-5.709,5.507
					c-2.956,0.616-6.205,0.764-9.19,0.247c-1.786-0.309-3.507-1.17-5.091-2.021c-2.018-1.084-3.894-2.413-5.661-3.866
					c-2.238-1.841-4.299-3.871-6.33-5.933c-0.357,13.933,11.64,17.983,20.221,17.543c8.601-0.441,15.486,0.401,25.461-11.681
					c0.328-0.524,0.658-1.048,0.979-1.577c1.659-2.729,2.855-5.642,4.053-8.592c1.106-2.722,2.304-5.396,3.32-8.156
					c0.5-1.359,0.975-2.727,1.432-4.101c0.444-1.336,0.808-2.697,1.268-4.027c0.797-2.304,1.877-4.484,3.544-6.28
					C175.988,118.465,177.959,116.694,177.425,114.683z"/>
			</g>
			<path style="fill:#660F08;" d="M106.255,114.33c0,0,13.141,18.617,27.065,9.7c4.85,9.074,28.316,8.135,41.145-4.38
				c0,0-2.19,8.291-14.236,18.147c-12.359,10.482-14.862,17.209-28.003,15.488c-13.141-1.721-9.387-11.42-16.27-19.868
				C109.071,124.968,106.255,114.33,106.255,114.33z"/>
			<path style="opacity:0.55;fill:#660F08;" d="M161.99,134.277c-1.815-0.097-3.634-0.105-5.449-0.04
				c-1.886,0.067-3.755,0.279-5.635,0.407c-4.74,0.325-9.422,0.007-14.018-1.234c-2.063-0.557-4.042-1.361-6.09-1.956
				c-1.4-0.407-2.846-0.65-4.298-0.774c-3.078-0.265-6.184,0.021-9.158,0.855c-0.757,0.212-1.512,0.471-2.252,0.775
				c0.282,0.371,0.568,0.741,0.865,1.105c6.884,8.448,3.129,18.148,16.27,19.868c13.141,1.721,15.644-5.006,28.003-15.488
				c1.403-1.148,2.667-2.273,3.814-3.368C163.357,134.366,162.672,134.314,161.99,134.277z"/>
			<path style="fill:#571B09;" d="M184.641,20.873c-0.06-0.277-0.582,0.228-0.569,0.422c0.105,1.571,0.192,3.129-0.005,4.697
				c-0.19,1.519-0.55,3.013-1.009,4.472c-0.832,2.644-2.004,5.165-3.214,7.656c-0.737-2.987-1.883-5.744-3.589-8.334
				c-1.728-2.623-3.617-5.197-5.893-7.375c-4.006-3.835-9.2-6.361-14.636-7.383c-3.085-0.58-6.235-0.655-9.333-0.14
				c-0.073,0.012-0.224,0.23-0.107,0.218c5.53-0.594,11.155,0.317,16.157,2.769c2.454,1.203,4.744,2.764,6.761,4.608
				c2.294,2.097,4.17,4.596,5.896,7.168c0.997,1.485,1.924,3.015,2.62,4.666c0.696,1.65,1.2,3.37,1.593,5.115
				c0.084,0.371,0.628-0.224,0.681-0.332c1.407-2.891,2.783-5.812,3.738-8.889C184.636,27.293,185.302,23.911,184.641,20.873z"/>
			<g>
				<g>
					<path style="fill:#F797A3;" d="M137.803,138.763c-8.12-7.208-15.913-4.479-19.782-2.264c4.157,7.58,2.642,15.27,14.205,16.785
						c11.883,1.556,15.069-3.796,24.708-12.586C153.393,136.814,146.326,135.162,137.803,138.763z"/>
					<path style="fill:#C44D61;" d="M136.077,153.792c-1.189,0-2.474-0.09-3.882-0.274c-8.55-1.12-10.093-5.622-11.879-10.835
						c-0.676-1.975-1.376-4.018-2.501-6.07c-0.062-0.112-0.022-0.254,0.089-0.317c3.947-2.261,11.775-4.97,19.944,2.194
						c5.852-2.433,14.351-3.337,19.259,2.051c0.087,0.096,0.081,0.245-0.016,0.332c-1.462,1.333-2.749,2.563-3.994,3.751
						C147.144,150.308,143.494,153.791,136.077,153.792z M118.338,136.591c1.08,2.018,1.762,4.011,2.424,5.939
						c1.806,5.274,3.234,9.44,11.494,10.521c9.97,1.305,13.715-2.273,20.517-8.768c1.196-1.143,2.433-2.323,3.827-3.599
						c-4.806-5.055-13.054-4.093-18.705-1.705c-0.083,0.035-0.179,0.02-0.248-0.041C129.796,131.97,122.256,134.408,118.338,136.591
						z"/>
				</g>
			</g>
			<g>
				<path style="fill:#F797A3;" d="M137.803,138.763c-0.885-0.786-1.766-1.447-2.639-2.01c0.982,3.805-2.143,7.518-1.87,11.344
					c0.064-0.256,0.124-0.512,0.206-0.763c0.938-2.893,3.041-4.775,5.487-6.438c1.689-1.148,3.401-2.198,5.424-2.662
					c1.915-0.439,3.92-0.094,4.533,2.028c0.675,2.338-0.406,4.693-2.006,6.368c-1.816,1.901-4.257,3.221-6.699,4.134
					c-2.225,0.831-4.711,1.454-7.104,1.253c-2.585-0.217-5.069-1.453-7.162-2.921c-1.666-1.169-3.158-2.571-4.562-4.051
					c1.577,4.092,3.763,7.315,10.815,8.239c11.883,1.556,15.069-3.796,24.708-12.586
					C153.393,136.814,146.326,135.162,137.803,138.763z"/>
			</g>
			<g>
				<path style="fill:#571B09;" d="M107.509,116.714c-2.526-5.229-4.948-11.021-3.457-16.894c0.202-0.016,0.405-0.012,0.605,0.029
					c0.615,0.126,1.132,0.495,1.733,0.656c0.225,0.06,0.651-0.411,0.457-0.607c-0.502-0.507-1.27-0.814-1.979-0.869
					c-0.65-0.05-1.279,0.161-1.812,0.528c-1.187,0.816-1.727,2.113-2.095,3.455c-0.027,0.1,0.036,0.118,0.116,0.101
					c0.099-0.021,0.18-0.158,0.211-0.243c0.386-1.041,0.865-2.233,1.89-2.796c0.191-0.105,0.398-0.173,0.61-0.217
					c-1.847,5.899,0.317,12.108,3.207,17.303C107.131,117.404,107.611,116.924,107.509,116.714z"/>
				<path style="fill:#571B09;" d="M182.924,117.234c-0.578-1.833-1.467-3.822-3.252-4.765c-1.876-0.991-4.025-0.101-5.966,0.186
					c-0.137,0.02-0.498,0.475-0.274,0.492c1.823,0.137,3.702-0.823,5.445-0.006c-0.915,1.566-1.816,3.111-2.96,4.534
					c-1.232,1.532-2.643,2.93-4.145,4.197c-0.2,0.168-0.304,0.749,0.086,0.472c1.705-1.209,3.199-2.651,4.489-4.296
					c1.121-1.43,2.172-3.036,2.853-4.744c1.646,0.991,2.272,2.877,2.992,4.552C182.357,118.242,183.025,117.557,182.924,117.234z"/>
				<path style="fill:#571B09;" d="M134.999,158.274c-2.731,0.792-5.483,0.767-8.178-0.172c-2.707-0.944-5.106-2.64-7.002-4.779
					c-4.09-4.614-6.053-10.788-7.891-16.557c-1.19-3.736-2.231-7.581-2.461-11.512c-0.007-0.126-0.218,0.064-0.217,0.147
					c0.039,3.616,0.671,7.17,1.639,10.647c0.889,3.195,1.902,6.377,3.157,9.449c2.263,5.537,5.736,10.837,11.473,13.188
					c2.913,1.194,6.416,1.587,9.336,0.207C135.062,158.794,135.462,158.139,134.999,158.274z"/>
				<path style="fill:#C44D61;" d="M141.62,137.518c-2.432-0.359-4.779,1.6-6.08,3.461c-1.664,2.379-2.118,5.4-2.162,8.24
					c-0.004,0.24,0.384-0.112,0.398-0.259c0.254-2.544,0.626-5.213,2.019-7.418c0.584-0.925,1.358-1.734,2.278-2.33
					c0.985-0.638,2.089-0.939,3.236-1.127C141.457,138.059,141.899,137.559,141.62,137.518z"/>
				<path style="fill:#571B09;" d="M172.129,123.866c-1.735,4.006-3.467,8.004-5.103,12.053c-1.594,3.947-3.176,7.898-4.783,11.839
					c-0.843,2.067-1.742,4.122-2.935,6.015c-0.371,0.589,0.316,0.573,0.601,0.16c2.3-3.32,3.574-7.3,5.063-11.022
					c1.62-4.049,3.239-8.098,4.838-12.155c0.91-2.308,1.719-4.649,2.582-6.974C172.463,123.591,172.167,123.779,172.129,123.866z"/>
				<path style="fill:#571B09;" d="M134.657,117.147c0.109-0.247-0.195-0.069-0.258,0.046c-0.608,1.118-1.227,2.24-1.466,3.505
					c-0.205,1.086-0.19,2.329,0.45,3.273c0.192,0.284,0.43,0.524,0.314,0.272c-0.462-0.997-0.328-2.852-0.128-3.937
					C133.77,119.211,134.208,118.162,134.657,117.147z"/>
			</g>
			<g>
				<g>
					<path style="fill:#6D3721;" d="M124.993,107.056c0,0-6.15-0.3-5.559-7.932c0.592-7.632,6.349-10.856,19.246-9.157
						c13.327,1.756,16.827,7.255,16.379,13.432c-0.448,6.177-6.748,7.212-7.5,7.25c-1.253,5.131-7.13,8.197-13.781,6.474
						C127.127,115.399,124.646,110.935,124.993,107.056z"/>
					<path style="fill:#571B09;" d="M138.113,117.954c-1.413,0.07-2.899-0.078-4.406-0.468c-6.956-1.802-9.219-6.475-9.07-10.094
						c-0.781-0.114-2.709-0.568-4.091-2.329c-1.152-1.467-1.637-3.478-1.443-5.976c0.23-2.969,1.247-5.294,3.022-6.911
						c3.076-2.802,8.503-3.646,16.591-2.581c11.621,1.531,17.232,6.187,16.676,13.838c-0.416,5.726-5.75,7.365-7.576,7.569
						C146.689,115.096,142.803,117.722,138.113,117.954z M131.059,89.932c-3.834,0.189-6.645,1.128-8.51,2.826
						c-1.655,1.507-2.564,3.601-2.782,6.402c-0.177,2.285,0.252,4.106,1.277,5.413c1.545,1.969,3.935,2.107,3.96,2.109
						c0.091,0.005,0.179,0.052,0.239,0.131c0.061,0.078,0.091,0.181,0.081,0.285c-0.3,3.359,1.753,7.905,8.525,9.66
						c6.261,1.622,12.141-1.106,13.388-6.212c0.038-0.155,0.16-0.264,0.303-0.271c0.067-0.003,6.736-0.718,7.187-6.911
						c0.527-7.27-4.733-11.531-16.083-13.026C135.773,89.96,133.249,89.824,131.059,89.932z"/>
				</g>
				<g style="opacity:0.49;">
					<path style="fill:#6D3721;" d="M138.68,89.967c-0.454-0.06-0.88-0.099-1.317-0.147c4.282,1.003,7.994,2.531,8.504,4.851
						c1.282,5.829-9.451,6.709-18.267,6.507c19.241,2.52,15.768,14.795,9.274,15.594c-3.4,0.418-7.146-1.634-9.953-3.685
						c1.418,1.733,3.648,3.204,6.856,4.036c6.651,1.723,12.528-1.343,13.781-6.474c0.752-0.037,7.052-1.073,7.5-7.25
						C155.508,97.221,152.007,91.722,138.68,89.967z"/>
				</g>
				<path style="fill:#571B09;" d="M150.85,107.637c0.081,1.635-1.582,3.047-3.714,3.152c-2.132,0.105-3.926-1.135-4.007-2.771
					c-0.081-1.635,1.582-3.047,3.714-3.152C148.976,104.761,150.77,106.001,150.85,107.637z"/>
				<g>
					<path style="opacity:0.52;fill:#571B09;" d="M146.713,108.007c1.576-0.078,2.89-0.871,3.439-1.939
						c-0.727-0.784-1.946-1.269-3.308-1.202c-1.576,0.078-2.89,0.871-3.439,1.939C144.133,107.588,145.351,108.074,146.713,108.007z
						"/>
					<path style="opacity:0.52;fill:#571B09;" d="M146.713,108.007c1.576-0.078,2.89-0.871,3.439-1.939
						c-0.727-0.784-1.946-1.269-3.308-1.202c-1.576,0.078-2.89,0.871-3.439,1.939C144.133,107.588,145.351,108.074,146.713,108.007z
						"/>
				</g>
				<path style="fill:#571B09;" d="M128.238,107.102c-0.974,1.207-3.054,0.876-4.645-0.739c-1.591-1.616-2.091-3.904-1.117-5.112
					c0.974-1.207,3.054-0.876,4.645,0.739C128.712,103.606,129.212,105.895,128.238,107.102z"/>
				<g>
					<path style="opacity:0.52;fill:#571B09;" d="M127.121,101.991c-0.966-0.981-2.11-1.48-3.079-1.457
						c-0.396,1.265,0.159,3.055,1.475,4.392c0.966,0.981,2.109,1.48,3.079,1.457C128.992,105.118,128.438,103.328,127.121,101.991z"
						/>
					<path style="opacity:0.52;fill:#571B09;" d="M127.121,101.991c-0.966-0.981-2.11-1.48-3.079-1.457
						c-0.396,1.265,0.159,3.055,1.475,4.392c0.966,0.981,2.109,1.48,3.079,1.457C128.992,105.118,128.438,103.328,127.121,101.991z"
						/>
				</g>
				<path style="fill:#6D3721;" d="M121.405,99.818c0,0,1.011-7.598,17.032-7.946C129.56,88.537,120.023,91.894,121.405,99.818z"/>
			</g>
			<path style="fill:#99582B;" d="M136.078,153.792c-1.19,0-2.475-0.089-3.883-0.274c-8.548-1.12-10.09-5.621-11.875-10.833
				c-0.98-2.863-2.092-6.107-4.546-9.12c-6.837-8.39-9.717-19.068-9.744-19.175c-0.029-0.11,0.024-0.225,0.128-0.273
				c0.101-0.047,0.225-0.017,0.291,0.078c0.13,0.183,13.167,18.332,26.746,9.637c0.056-0.035,0.122-0.048,0.186-0.029
				c0.063,0.017,0.117,0.059,0.148,0.117c1.518,2.841,5.035,4.82,9.903,5.573c8.563,1.325,21.881-1.243,30.869-10.011
				c0.075-0.074,0.192-0.089,0.283-0.035c0.091,0.053,0.136,0.161,0.109,0.263c-0.023,0.084-2.348,8.479-14.315,18.269
				c-2.873,2.437-5.216,4.674-7.284,6.648C147.142,150.309,143.493,153.792,136.078,153.792z M106.845,115.478
				c0.958,3.021,3.869,11.134,9.292,17.789c2.508,3.078,3.634,6.365,4.627,9.265c1.807,5.273,3.232,9.438,11.491,10.519
				c9.962,1.302,13.712-2.271,20.513-8.765c2.072-1.978,4.421-4.221,7.308-6.669c9.578-7.837,12.913-14.739,13.848-17.134
				c-9.082,8.345-22.101,10.781-30.566,9.473c-4.892-0.757-8.474-2.739-10.123-5.595
				C121.296,131.773,109.879,119.236,106.845,115.478z"/>
		</g>
		<path style="fill:#F797A3;" d="M129.148,136.336c0,0.461-1.121,0.834-2.503,0.834c-1.382,0-2.503-0.374-2.503-0.834
			s1.121-0.834,2.503-0.834C128.027,135.502,129.148,135.876,129.148,136.336z"/>
	</g>
	<path style="fill:#AC6430;" d="M165.908,12.86c0,0,15.807,1.153,16.214,12.89C183.14,15.777,177.645,12.25,165.908,12.86z"/>
	<path style="fill:#AC6430;" d="M57.209,202.934c0,0-18.056-8.195-17.918,20.418C36.652,208.212,42.347,194.322,57.209,202.934z"/>
	<path style="fill:#ECCEB0;" d="M213.843,265.185c0,0,10.143,1.014,11.326,10.819C228.889,269.749,219.253,263.663,213.843,265.185z
		"/>
	<path style="fill:#ECCEB0;" d="M134.075,289.195c0,0,9.83,2.699,9.355,12.563C148.144,296.215,139.663,288.601,134.075,289.195z"/>
	<path style="fill:#ECCEB0;" d="M122.391,291.57c0,0,8.9,4.969,6.082,14.434C134.375,301.748,127.959,292.329,122.391,291.57z"/>
	<path style="fill:#ECCEB0;" d="M100.229,292.395c0,0,6.604,3.825,4.032,11.973C108.969,300.501,104.463,292.795,100.229,292.395z"
		/>
	<path style="fill:#ECCEB0;" d="M28.431,259.136c0,0-6.604,3.825-4.031,11.973C19.691,267.243,24.197,259.536,28.431,259.136z"/>
	<path style="fill:#ECCEB0;" d="M47.102,264.041c0,0-6.604,3.825-4.032,11.973C38.362,272.147,42.868,264.441,47.102,264.041z"/>
	<path style="fill:#ECCEB0;" d="M23.285,252.868c0,0-8.04,2.55-7.21,11.957C11.917,259.529,18.621,252.289,23.285,252.868z"/>
	<path style="fill:#ECCEB0;" d="M208.795,268.675c0,0,10.143,1.014,11.326,10.819C223.84,273.239,214.204,267.154,208.795,268.675z"
		/>
	<path style="fill:#ECCEB0;" d="M192.011,274.995c0,0,8.174,0.818,9.128,8.72C204.136,278.674,196.37,273.769,192.011,274.995z"/>
</g>
</svg>
